G04 #@! TF.GenerationSoftware,KiCad,Pcbnew,(5.1.10)-1*
G04 #@! TF.CreationDate,2021-12-17T12:19:08+00:00*
G04 #@! TF.ProjectId,Updifier,55706469-6669-4657-922e-6b696361645f,rev?*
G04 #@! TF.SameCoordinates,Original*
G04 #@! TF.FileFunction,Copper,L1,Top*
G04 #@! TF.FilePolarity,Positive*
%FSLAX46Y46*%
G04 Gerber Fmt 4.6, Leading zero omitted, Abs format (unit mm)*
G04 Created by KiCad (PCBNEW (5.1.10)-1) date 2021-12-17 12:19:08*
%MOMM*%
%LPD*%
G01*
G04 APERTURE LIST*
G04 #@! TA.AperFunction,ComponentPad*
%ADD10C,1.800000*%
G04 #@! TD*
G04 #@! TA.AperFunction,ComponentPad*
%ADD11O,1.350000X1.350000*%
G04 #@! TD*
G04 #@! TA.AperFunction,ComponentPad*
%ADD12C,1.350000*%
G04 #@! TD*
G04 #@! TA.AperFunction,ComponentPad*
%ADD13R,1.090000X1.000000*%
G04 #@! TD*
G04 #@! TA.AperFunction,ComponentPad*
%ADD14C,1.000000*%
G04 #@! TD*
G04 #@! TA.AperFunction,SMDPad,CuDef*
%ADD15R,1.000000X2.750000*%
G04 #@! TD*
G04 #@! TA.AperFunction,SMDPad,CuDef*
%ADD16R,1.060000X0.650000*%
G04 #@! TD*
G04 #@! TA.AperFunction,SMDPad,CuDef*
%ADD17C,1.000000*%
G04 #@! TD*
G04 #@! TA.AperFunction,ComponentPad*
%ADD18C,1.524000*%
G04 #@! TD*
G04 #@! TA.AperFunction,SMDPad,CuDef*
%ADD19R,0.800000X0.800000*%
G04 #@! TD*
G04 #@! TA.AperFunction,ViaPad*
%ADD20C,0.685800*%
G04 #@! TD*
G04 #@! TA.AperFunction,Conductor*
%ADD21C,0.406400*%
G04 #@! TD*
G04 #@! TA.AperFunction,Conductor*
%ADD22C,0.250000*%
G04 #@! TD*
G04 #@! TA.AperFunction,Conductor*
%ADD23C,0.254000*%
G04 #@! TD*
G04 #@! TA.AperFunction,Conductor*
%ADD24C,0.100000*%
G04 #@! TD*
G04 APERTURE END LIST*
D10*
X176350000Y-62230000D03*
X176350000Y-59690000D03*
X176350000Y-57150000D03*
D11*
X172050000Y-52260000D03*
D12*
X170050000Y-52260000D03*
D13*
X153924000Y-62230000D03*
D14*
X152654000Y-62230000D03*
X153924000Y-60960000D03*
X152654000Y-60960000D03*
X153924000Y-59690000D03*
X152654000Y-59690000D03*
X153924000Y-58420000D03*
X152654000Y-58420000D03*
X153924000Y-57150000D03*
X152654000Y-57150000D03*
G04 #@! TA.AperFunction,SMDPad,CuDef*
G36*
G01*
X170537000Y-61745000D02*
X170537000Y-61445000D01*
G75*
G02*
X170687000Y-61295000I150000J0D01*
G01*
X172337000Y-61295000D01*
G75*
G02*
X172487000Y-61445000I0J-150000D01*
G01*
X172487000Y-61745000D01*
G75*
G02*
X172337000Y-61895000I-150000J0D01*
G01*
X170687000Y-61895000D01*
G75*
G02*
X170537000Y-61745000I0J150000D01*
G01*
G37*
G04 #@! TD.AperFunction*
G04 #@! TA.AperFunction,SMDPad,CuDef*
G36*
G01*
X170537000Y-63015000D02*
X170537000Y-62715000D01*
G75*
G02*
X170687000Y-62565000I150000J0D01*
G01*
X172337000Y-62565000D01*
G75*
G02*
X172487000Y-62715000I0J-150000D01*
G01*
X172487000Y-63015000D01*
G75*
G02*
X172337000Y-63165000I-150000J0D01*
G01*
X170687000Y-63165000D01*
G75*
G02*
X170537000Y-63015000I0J150000D01*
G01*
G37*
G04 #@! TD.AperFunction*
G04 #@! TA.AperFunction,SMDPad,CuDef*
G36*
G01*
X170537000Y-64285000D02*
X170537000Y-63985000D01*
G75*
G02*
X170687000Y-63835000I150000J0D01*
G01*
X172337000Y-63835000D01*
G75*
G02*
X172487000Y-63985000I0J-150000D01*
G01*
X172487000Y-64285000D01*
G75*
G02*
X172337000Y-64435000I-150000J0D01*
G01*
X170687000Y-64435000D01*
G75*
G02*
X170537000Y-64285000I0J150000D01*
G01*
G37*
G04 #@! TD.AperFunction*
G04 #@! TA.AperFunction,SMDPad,CuDef*
G36*
G01*
X170537000Y-65555000D02*
X170537000Y-65255000D01*
G75*
G02*
X170687000Y-65105000I150000J0D01*
G01*
X172337000Y-65105000D01*
G75*
G02*
X172487000Y-65255000I0J-150000D01*
G01*
X172487000Y-65555000D01*
G75*
G02*
X172337000Y-65705000I-150000J0D01*
G01*
X170687000Y-65705000D01*
G75*
G02*
X170537000Y-65555000I0J150000D01*
G01*
G37*
G04 #@! TD.AperFunction*
G04 #@! TA.AperFunction,SMDPad,CuDef*
G36*
G01*
X165587000Y-65555000D02*
X165587000Y-65255000D01*
G75*
G02*
X165737000Y-65105000I150000J0D01*
G01*
X167387000Y-65105000D01*
G75*
G02*
X167537000Y-65255000I0J-150000D01*
G01*
X167537000Y-65555000D01*
G75*
G02*
X167387000Y-65705000I-150000J0D01*
G01*
X165737000Y-65705000D01*
G75*
G02*
X165587000Y-65555000I0J150000D01*
G01*
G37*
G04 #@! TD.AperFunction*
G04 #@! TA.AperFunction,SMDPad,CuDef*
G36*
G01*
X165587000Y-64285000D02*
X165587000Y-63985000D01*
G75*
G02*
X165737000Y-63835000I150000J0D01*
G01*
X167387000Y-63835000D01*
G75*
G02*
X167537000Y-63985000I0J-150000D01*
G01*
X167537000Y-64285000D01*
G75*
G02*
X167387000Y-64435000I-150000J0D01*
G01*
X165737000Y-64435000D01*
G75*
G02*
X165587000Y-64285000I0J150000D01*
G01*
G37*
G04 #@! TD.AperFunction*
G04 #@! TA.AperFunction,SMDPad,CuDef*
G36*
G01*
X165587000Y-63015000D02*
X165587000Y-62715000D01*
G75*
G02*
X165737000Y-62565000I150000J0D01*
G01*
X167387000Y-62565000D01*
G75*
G02*
X167537000Y-62715000I0J-150000D01*
G01*
X167537000Y-63015000D01*
G75*
G02*
X167387000Y-63165000I-150000J0D01*
G01*
X165737000Y-63165000D01*
G75*
G02*
X165587000Y-63015000I0J150000D01*
G01*
G37*
G04 #@! TD.AperFunction*
G04 #@! TA.AperFunction,SMDPad,CuDef*
G36*
G01*
X165587000Y-61745000D02*
X165587000Y-61445000D01*
G75*
G02*
X165737000Y-61295000I150000J0D01*
G01*
X167387000Y-61295000D01*
G75*
G02*
X167537000Y-61445000I0J-150000D01*
G01*
X167537000Y-61745000D01*
G75*
G02*
X167387000Y-61895000I-150000J0D01*
G01*
X165737000Y-61895000D01*
G75*
G02*
X165587000Y-61745000I0J150000D01*
G01*
G37*
G04 #@! TD.AperFunction*
D15*
X162655000Y-56215000D03*
X162655000Y-50465000D03*
X158655000Y-50465000D03*
X158655000Y-56215000D03*
D16*
X170350000Y-57785000D03*
X170350000Y-58735000D03*
X170350000Y-56835000D03*
X172550000Y-56835000D03*
X172550000Y-57785000D03*
X172550000Y-58735000D03*
X173185000Y-68580000D03*
X173185000Y-67630000D03*
X173185000Y-69530000D03*
X170985000Y-69530000D03*
X170985000Y-68580000D03*
X170985000Y-67630000D03*
X155405000Y-67630000D03*
X155405000Y-69530000D03*
X153205000Y-69530000D03*
X153205000Y-68580000D03*
X153205000Y-67630000D03*
G04 #@! TA.AperFunction,SMDPad,CuDef*
G36*
G01*
X182520000Y-68155000D02*
X181970000Y-68155000D01*
G75*
G02*
X181770000Y-67955000I0J200000D01*
G01*
X181770000Y-67555000D01*
G75*
G02*
X181970000Y-67355000I200000J0D01*
G01*
X182520000Y-67355000D01*
G75*
G02*
X182720000Y-67555000I0J-200000D01*
G01*
X182720000Y-67955000D01*
G75*
G02*
X182520000Y-68155000I-200000J0D01*
G01*
G37*
G04 #@! TD.AperFunction*
G04 #@! TA.AperFunction,SMDPad,CuDef*
G36*
G01*
X182520000Y-69805000D02*
X181970000Y-69805000D01*
G75*
G02*
X181770000Y-69605000I0J200000D01*
G01*
X181770000Y-69205000D01*
G75*
G02*
X181970000Y-69005000I200000J0D01*
G01*
X182520000Y-69005000D01*
G75*
G02*
X182720000Y-69205000I0J-200000D01*
G01*
X182720000Y-69605000D01*
G75*
G02*
X182520000Y-69805000I-200000J0D01*
G01*
G37*
G04 #@! TD.AperFunction*
G04 #@! TA.AperFunction,SMDPad,CuDef*
G36*
G01*
X176805000Y-68155000D02*
X176255000Y-68155000D01*
G75*
G02*
X176055000Y-67955000I0J200000D01*
G01*
X176055000Y-67555000D01*
G75*
G02*
X176255000Y-67355000I200000J0D01*
G01*
X176805000Y-67355000D01*
G75*
G02*
X177005000Y-67555000I0J-200000D01*
G01*
X177005000Y-67955000D01*
G75*
G02*
X176805000Y-68155000I-200000J0D01*
G01*
G37*
G04 #@! TD.AperFunction*
G04 #@! TA.AperFunction,SMDPad,CuDef*
G36*
G01*
X176805000Y-69805000D02*
X176255000Y-69805000D01*
G75*
G02*
X176055000Y-69605000I0J200000D01*
G01*
X176055000Y-69205000D01*
G75*
G02*
X176255000Y-69005000I200000J0D01*
G01*
X176805000Y-69005000D01*
G75*
G02*
X177005000Y-69205000I0J-200000D01*
G01*
X177005000Y-69605000D01*
G75*
G02*
X176805000Y-69805000I-200000J0D01*
G01*
G37*
G04 #@! TD.AperFunction*
G04 #@! TA.AperFunction,SMDPad,CuDef*
G36*
G01*
X167365000Y-69005000D02*
X167915000Y-69005000D01*
G75*
G02*
X168115000Y-69205000I0J-200000D01*
G01*
X168115000Y-69605000D01*
G75*
G02*
X167915000Y-69805000I-200000J0D01*
G01*
X167365000Y-69805000D01*
G75*
G02*
X167165000Y-69605000I0J200000D01*
G01*
X167165000Y-69205000D01*
G75*
G02*
X167365000Y-69005000I200000J0D01*
G01*
G37*
G04 #@! TD.AperFunction*
G04 #@! TA.AperFunction,SMDPad,CuDef*
G36*
G01*
X167365000Y-67355000D02*
X167915000Y-67355000D01*
G75*
G02*
X168115000Y-67555000I0J-200000D01*
G01*
X168115000Y-67955000D01*
G75*
G02*
X167915000Y-68155000I-200000J0D01*
G01*
X167365000Y-68155000D01*
G75*
G02*
X167165000Y-67955000I0J200000D01*
G01*
X167165000Y-67555000D01*
G75*
G02*
X167365000Y-67355000I200000J0D01*
G01*
G37*
G04 #@! TD.AperFunction*
G04 #@! TA.AperFunction,SMDPad,CuDef*
G36*
G01*
X181970000Y-51225000D02*
X182520000Y-51225000D01*
G75*
G02*
X182720000Y-51425000I0J-200000D01*
G01*
X182720000Y-51825000D01*
G75*
G02*
X182520000Y-52025000I-200000J0D01*
G01*
X181970000Y-52025000D01*
G75*
G02*
X181770000Y-51825000I0J200000D01*
G01*
X181770000Y-51425000D01*
G75*
G02*
X181970000Y-51225000I200000J0D01*
G01*
G37*
G04 #@! TD.AperFunction*
G04 #@! TA.AperFunction,SMDPad,CuDef*
G36*
G01*
X181970000Y-49575000D02*
X182520000Y-49575000D01*
G75*
G02*
X182720000Y-49775000I0J-200000D01*
G01*
X182720000Y-50175000D01*
G75*
G02*
X182520000Y-50375000I-200000J0D01*
G01*
X181970000Y-50375000D01*
G75*
G02*
X181770000Y-50175000I0J200000D01*
G01*
X181770000Y-49775000D01*
G75*
G02*
X181970000Y-49575000I200000J0D01*
G01*
G37*
G04 #@! TD.AperFunction*
G04 #@! TA.AperFunction,SMDPad,CuDef*
G36*
G01*
X159175000Y-62505000D02*
X159175000Y-61955000D01*
G75*
G02*
X159375000Y-61755000I200000J0D01*
G01*
X159775000Y-61755000D01*
G75*
G02*
X159975000Y-61955000I0J-200000D01*
G01*
X159975000Y-62505000D01*
G75*
G02*
X159775000Y-62705000I-200000J0D01*
G01*
X159375000Y-62705000D01*
G75*
G02*
X159175000Y-62505000I0J200000D01*
G01*
G37*
G04 #@! TD.AperFunction*
G04 #@! TA.AperFunction,SMDPad,CuDef*
G36*
G01*
X157525000Y-62505000D02*
X157525000Y-61955000D01*
G75*
G02*
X157725000Y-61755000I200000J0D01*
G01*
X158125000Y-61755000D01*
G75*
G02*
X158325000Y-61955000I0J-200000D01*
G01*
X158325000Y-62505000D01*
G75*
G02*
X158125000Y-62705000I-200000J0D01*
G01*
X157725000Y-62705000D01*
G75*
G02*
X157525000Y-62505000I0J200000D01*
G01*
G37*
G04 #@! TD.AperFunction*
G04 #@! TA.AperFunction,SMDPad,CuDef*
G36*
G01*
X158325000Y-64495000D02*
X158325000Y-65045000D01*
G75*
G02*
X158125000Y-65245000I-200000J0D01*
G01*
X157725000Y-65245000D01*
G75*
G02*
X157525000Y-65045000I0J200000D01*
G01*
X157525000Y-64495000D01*
G75*
G02*
X157725000Y-64295000I200000J0D01*
G01*
X158125000Y-64295000D01*
G75*
G02*
X158325000Y-64495000I0J-200000D01*
G01*
G37*
G04 #@! TD.AperFunction*
G04 #@! TA.AperFunction,SMDPad,CuDef*
G36*
G01*
X159975000Y-64495000D02*
X159975000Y-65045000D01*
G75*
G02*
X159775000Y-65245000I-200000J0D01*
G01*
X159375000Y-65245000D01*
G75*
G02*
X159175000Y-65045000I0J200000D01*
G01*
X159175000Y-64495000D01*
G75*
G02*
X159375000Y-64295000I200000J0D01*
G01*
X159775000Y-64295000D01*
G75*
G02*
X159975000Y-64495000I0J-200000D01*
G01*
G37*
G04 #@! TD.AperFunction*
G04 #@! TA.AperFunction,SMDPad,CuDef*
G36*
G01*
X167430000Y-58060000D02*
X167430000Y-57510000D01*
G75*
G02*
X167630000Y-57310000I200000J0D01*
G01*
X168030000Y-57310000D01*
G75*
G02*
X168230000Y-57510000I0J-200000D01*
G01*
X168230000Y-58060000D01*
G75*
G02*
X168030000Y-58260000I-200000J0D01*
G01*
X167630000Y-58260000D01*
G75*
G02*
X167430000Y-58060000I0J200000D01*
G01*
G37*
G04 #@! TD.AperFunction*
G04 #@! TA.AperFunction,SMDPad,CuDef*
G36*
G01*
X165780000Y-58060000D02*
X165780000Y-57510000D01*
G75*
G02*
X165980000Y-57310000I200000J0D01*
G01*
X166380000Y-57310000D01*
G75*
G02*
X166580000Y-57510000I0J-200000D01*
G01*
X166580000Y-58060000D01*
G75*
G02*
X166380000Y-58260000I-200000J0D01*
G01*
X165980000Y-58260000D01*
G75*
G02*
X165780000Y-58060000I0J200000D01*
G01*
G37*
G04 #@! TD.AperFunction*
G04 #@! TA.AperFunction,SMDPad,CuDef*
G36*
G01*
X159219000Y-68130000D02*
X157519000Y-68130000D01*
G75*
G02*
X157269000Y-67880000I0J250000D01*
G01*
X157269000Y-67130000D01*
G75*
G02*
X157519000Y-66880000I250000J0D01*
G01*
X159219000Y-66880000D01*
G75*
G02*
X159469000Y-67130000I0J-250000D01*
G01*
X159469000Y-67880000D01*
G75*
G02*
X159219000Y-68130000I-250000J0D01*
G01*
G37*
G04 #@! TD.AperFunction*
G04 #@! TA.AperFunction,SMDPad,CuDef*
G36*
G01*
X159219000Y-70280000D02*
X157519000Y-70280000D01*
G75*
G02*
X157269000Y-70030000I0J250000D01*
G01*
X157269000Y-69280000D01*
G75*
G02*
X157519000Y-69030000I250000J0D01*
G01*
X159219000Y-69030000D01*
G75*
G02*
X159469000Y-69280000I0J-250000D01*
G01*
X159469000Y-70030000D01*
G75*
G02*
X159219000Y-70280000I-250000J0D01*
G01*
G37*
G04 #@! TD.AperFunction*
D17*
X179070000Y-50800000D03*
X179070000Y-68580000D03*
X147955000Y-50165000D03*
G04 #@! TA.AperFunction,SMDPad,CuDef*
G36*
G01*
X151975000Y-50525000D02*
X151975000Y-51075000D01*
G75*
G02*
X151775000Y-51275000I-200000J0D01*
G01*
X151375000Y-51275000D01*
G75*
G02*
X151175000Y-51075000I0J200000D01*
G01*
X151175000Y-50525000D01*
G75*
G02*
X151375000Y-50325000I200000J0D01*
G01*
X151775000Y-50325000D01*
G75*
G02*
X151975000Y-50525000I0J-200000D01*
G01*
G37*
G04 #@! TD.AperFunction*
G04 #@! TA.AperFunction,SMDPad,CuDef*
G36*
G01*
X153625000Y-50525000D02*
X153625000Y-51075000D01*
G75*
G02*
X153425000Y-51275000I-200000J0D01*
G01*
X153025000Y-51275000D01*
G75*
G02*
X152825000Y-51075000I0J200000D01*
G01*
X152825000Y-50525000D01*
G75*
G02*
X153025000Y-50325000I200000J0D01*
G01*
X153425000Y-50325000D01*
G75*
G02*
X153625000Y-50525000I0J-200000D01*
G01*
G37*
G04 #@! TD.AperFunction*
D18*
X185150000Y-69850000D03*
X185150000Y-67310000D03*
X185150000Y-52070000D03*
X185150000Y-49530000D03*
D19*
X162560000Y-69680000D03*
X162560000Y-67480000D03*
G04 #@! TA.AperFunction,SMDPad,CuDef*
G36*
G01*
X165485000Y-68892000D02*
X165985000Y-68892000D01*
G75*
G02*
X166210000Y-69117000I0J-225000D01*
G01*
X166210000Y-69567000D01*
G75*
G02*
X165985000Y-69792000I-225000J0D01*
G01*
X165485000Y-69792000D01*
G75*
G02*
X165260000Y-69567000I0J225000D01*
G01*
X165260000Y-69117000D01*
G75*
G02*
X165485000Y-68892000I225000J0D01*
G01*
G37*
G04 #@! TD.AperFunction*
G04 #@! TA.AperFunction,SMDPad,CuDef*
G36*
G01*
X165485000Y-67342000D02*
X165985000Y-67342000D01*
G75*
G02*
X166210000Y-67567000I0J-225000D01*
G01*
X166210000Y-68017000D01*
G75*
G02*
X165985000Y-68242000I-225000J0D01*
G01*
X165485000Y-68242000D01*
G75*
G02*
X165260000Y-68017000I0J225000D01*
G01*
X165260000Y-67567000D01*
G75*
G02*
X165485000Y-67342000I225000J0D01*
G01*
G37*
G04 #@! TD.AperFunction*
G04 #@! TA.AperFunction,SMDPad,CuDef*
G36*
G01*
X162885000Y-62480000D02*
X162885000Y-61980000D01*
G75*
G02*
X163110000Y-61755000I225000J0D01*
G01*
X163560000Y-61755000D01*
G75*
G02*
X163785000Y-61980000I0J-225000D01*
G01*
X163785000Y-62480000D01*
G75*
G02*
X163560000Y-62705000I-225000J0D01*
G01*
X163110000Y-62705000D01*
G75*
G02*
X162885000Y-62480000I0J225000D01*
G01*
G37*
G04 #@! TD.AperFunction*
G04 #@! TA.AperFunction,SMDPad,CuDef*
G36*
G01*
X161335000Y-62480000D02*
X161335000Y-61980000D01*
G75*
G02*
X161560000Y-61755000I225000J0D01*
G01*
X162010000Y-61755000D01*
G75*
G02*
X162235000Y-61980000I0J-225000D01*
G01*
X162235000Y-62480000D01*
G75*
G02*
X162010000Y-62705000I-225000J0D01*
G01*
X161560000Y-62705000D01*
G75*
G02*
X161335000Y-62480000I0J225000D01*
G01*
G37*
G04 #@! TD.AperFunction*
G04 #@! TA.AperFunction,SMDPad,CuDef*
G36*
G01*
X162885000Y-65020000D02*
X162885000Y-64520000D01*
G75*
G02*
X163110000Y-64295000I225000J0D01*
G01*
X163560000Y-64295000D01*
G75*
G02*
X163785000Y-64520000I0J-225000D01*
G01*
X163785000Y-65020000D01*
G75*
G02*
X163560000Y-65245000I-225000J0D01*
G01*
X163110000Y-65245000D01*
G75*
G02*
X162885000Y-65020000I0J225000D01*
G01*
G37*
G04 #@! TD.AperFunction*
G04 #@! TA.AperFunction,SMDPad,CuDef*
G36*
G01*
X161335000Y-65020000D02*
X161335000Y-64520000D01*
G75*
G02*
X161560000Y-64295000I225000J0D01*
G01*
X162010000Y-64295000D01*
G75*
G02*
X162235000Y-64520000I0J-225000D01*
G01*
X162235000Y-65020000D01*
G75*
G02*
X162010000Y-65245000I-225000J0D01*
G01*
X161560000Y-65245000D01*
G75*
G02*
X161335000Y-65020000I0J225000D01*
G01*
G37*
G04 #@! TD.AperFunction*
G04 #@! TA.AperFunction,SMDPad,CuDef*
G36*
G01*
X166680000Y-54868000D02*
X166680000Y-55368000D01*
G75*
G02*
X166455000Y-55593000I-225000J0D01*
G01*
X166005000Y-55593000D01*
G75*
G02*
X165780000Y-55368000I0J225000D01*
G01*
X165780000Y-54868000D01*
G75*
G02*
X166005000Y-54643000I225000J0D01*
G01*
X166455000Y-54643000D01*
G75*
G02*
X166680000Y-54868000I0J-225000D01*
G01*
G37*
G04 #@! TD.AperFunction*
G04 #@! TA.AperFunction,SMDPad,CuDef*
G36*
G01*
X168230000Y-54868000D02*
X168230000Y-55368000D01*
G75*
G02*
X168005000Y-55593000I-225000J0D01*
G01*
X167555000Y-55593000D01*
G75*
G02*
X167330000Y-55368000I0J225000D01*
G01*
X167330000Y-54868000D01*
G75*
G02*
X167555000Y-54643000I225000J0D01*
G01*
X168005000Y-54643000D01*
G75*
G02*
X168230000Y-54868000I0J-225000D01*
G01*
G37*
G04 #@! TD.AperFunction*
G04 #@! TA.AperFunction,SMDPad,CuDef*
G36*
G01*
X150110000Y-68255000D02*
X149610000Y-68255000D01*
G75*
G02*
X149385000Y-68030000I0J225000D01*
G01*
X149385000Y-67580000D01*
G75*
G02*
X149610000Y-67355000I225000J0D01*
G01*
X150110000Y-67355000D01*
G75*
G02*
X150335000Y-67580000I0J-225000D01*
G01*
X150335000Y-68030000D01*
G75*
G02*
X150110000Y-68255000I-225000J0D01*
G01*
G37*
G04 #@! TD.AperFunction*
G04 #@! TA.AperFunction,SMDPad,CuDef*
G36*
G01*
X150110000Y-69805000D02*
X149610000Y-69805000D01*
G75*
G02*
X149385000Y-69580000I0J225000D01*
G01*
X149385000Y-69130000D01*
G75*
G02*
X149610000Y-68905000I225000J0D01*
G01*
X150110000Y-68905000D01*
G75*
G02*
X150335000Y-69130000I0J-225000D01*
G01*
X150335000Y-69580000D01*
G75*
G02*
X150110000Y-69805000I-225000J0D01*
G01*
G37*
G04 #@! TD.AperFunction*
G04 #@! TA.AperFunction,SMDPad,CuDef*
G36*
G01*
X162235000Y-59440000D02*
X162235000Y-59940000D01*
G75*
G02*
X162010000Y-60165000I-225000J0D01*
G01*
X161560000Y-60165000D01*
G75*
G02*
X161335000Y-59940000I0J225000D01*
G01*
X161335000Y-59440000D01*
G75*
G02*
X161560000Y-59215000I225000J0D01*
G01*
X162010000Y-59215000D01*
G75*
G02*
X162235000Y-59440000I0J-225000D01*
G01*
G37*
G04 #@! TD.AperFunction*
G04 #@! TA.AperFunction,SMDPad,CuDef*
G36*
G01*
X163785000Y-59440000D02*
X163785000Y-59940000D01*
G75*
G02*
X163560000Y-60165000I-225000J0D01*
G01*
X163110000Y-60165000D01*
G75*
G02*
X162885000Y-59940000I0J225000D01*
G01*
X162885000Y-59440000D01*
G75*
G02*
X163110000Y-59215000I225000J0D01*
G01*
X163560000Y-59215000D01*
G75*
G02*
X163785000Y-59440000I0J-225000D01*
G01*
G37*
G04 #@! TD.AperFunction*
D20*
X156210000Y-69977000D03*
X148970994Y-67818000D03*
X160782000Y-50419000D03*
X159893000Y-55626000D03*
X173863000Y-57785000D03*
X171577000Y-60833000D03*
X161785000Y-60338000D03*
X163322000Y-61214000D03*
X164719000Y-69342000D03*
X147320000Y-69850000D03*
X147320000Y-59690000D03*
X156210000Y-49530000D03*
X187960000Y-59690000D03*
X187960000Y-50800000D03*
X187960000Y-68580000D03*
X152400000Y-54610000D03*
X154686000Y-69977000D03*
X159800000Y-61260000D03*
X166050000Y-51498992D03*
X166050000Y-54101994D03*
X169799998Y-63510000D03*
X152141784Y-69087068D03*
X151257000Y-67310000D03*
X175768000Y-65405000D03*
X173826890Y-65405000D03*
X163830000Y-56732900D03*
X164699996Y-59710000D03*
X154432000Y-50800000D03*
X150622000Y-50800000D03*
X168783000Y-60579000D03*
X167005000Y-58546984D03*
X162687000Y-54356000D03*
X162687000Y-52197000D03*
X176911000Y-66421000D03*
X173826890Y-66421000D03*
D21*
X149860000Y-67805000D02*
X149860000Y-65024000D01*
X167765000Y-69530000D02*
X167640000Y-69405000D01*
X170985000Y-69530000D02*
X167765000Y-69530000D01*
X165798000Y-69405000D02*
X165735000Y-69342000D01*
X167640000Y-69405000D02*
X165798000Y-69405000D01*
X155763000Y-69530000D02*
X156210000Y-69977000D01*
X155405000Y-69530000D02*
X155763000Y-69530000D01*
X149860000Y-67805000D02*
X148983994Y-67805000D01*
X148983994Y-67805000D02*
X148970994Y-67818000D01*
X158990000Y-50419000D02*
X158655000Y-50084000D01*
X160782000Y-50419000D02*
X158990000Y-50419000D01*
X158863000Y-55626000D02*
X158655000Y-55834000D01*
X159893000Y-55626000D02*
X158863000Y-55626000D01*
X173863000Y-57785000D02*
X172550000Y-57785000D01*
X171485000Y-60925000D02*
X171577000Y-60833000D01*
X171485000Y-61595000D02*
X171485000Y-60925000D01*
X161785000Y-60680000D02*
X163335000Y-62230000D01*
X161785000Y-59690000D02*
X161785000Y-60680000D01*
X160147000Y-62230000D02*
X161785000Y-60592000D01*
X159575000Y-62230000D02*
X160147000Y-62230000D01*
X161785000Y-60592000D02*
X161785000Y-60338000D01*
X161785000Y-60338000D02*
X161785000Y-59690000D01*
X163335000Y-61227000D02*
X163322000Y-61214000D01*
X163335000Y-62230000D02*
X163335000Y-61227000D01*
X164719000Y-69342000D02*
X165735000Y-69342000D01*
D22*
X147320000Y-69850000D02*
X147320000Y-59690000D01*
D21*
X149860000Y-65024000D02*
X151257000Y-63627000D01*
X151257000Y-63627000D02*
X152654000Y-62230000D01*
D22*
X152654000Y-54864000D02*
X152400000Y-54610000D01*
X152654000Y-57150000D02*
X152654000Y-54864000D01*
X186420000Y-50800000D02*
X185150000Y-49530000D01*
X187960000Y-50800000D02*
X186420000Y-50800000D01*
X188050000Y-68490000D02*
X187960000Y-68580000D01*
D21*
X159575000Y-61485000D02*
X159800000Y-61260000D01*
X159575000Y-62230000D02*
X159575000Y-61485000D01*
X166050008Y-51499000D02*
X166050000Y-51498992D01*
D22*
X166230000Y-55260000D02*
X166230000Y-54281994D01*
X166230000Y-54281994D02*
X166050000Y-54101994D01*
X186420000Y-68580000D02*
X185150000Y-67310000D01*
X187960000Y-68580000D02*
X186420000Y-68580000D01*
X161785000Y-64770000D02*
X159575000Y-64770000D01*
X161785000Y-64770000D02*
X161785000Y-62230000D01*
X173185000Y-67630000D02*
X172781000Y-67630000D01*
X171831000Y-68580000D02*
X170985000Y-68580000D01*
X172781000Y-67630000D02*
X171831000Y-68580000D01*
X166523000Y-68580000D02*
X165735000Y-67792000D01*
X170985000Y-68580000D02*
X166523000Y-68580000D01*
X162560000Y-65545000D02*
X162560000Y-67480000D01*
X161785000Y-64770000D02*
X162560000Y-65545000D01*
X164084000Y-66141000D02*
X165735000Y-67792000D01*
X161785000Y-62344000D02*
X163322000Y-63881000D01*
X161785000Y-62230000D02*
X161785000Y-62344000D01*
X163322000Y-63881000D02*
X163703000Y-63881000D01*
X163703000Y-63881000D02*
X164084000Y-64262000D01*
X164084000Y-64262000D02*
X164084000Y-66141000D01*
X158369000Y-67505000D02*
X156777000Y-67505000D01*
X156652000Y-67630000D02*
X155405000Y-67630000D01*
X156777000Y-67505000D02*
X156652000Y-67630000D01*
X160215000Y-67505000D02*
X158369000Y-67505000D01*
X162390000Y-69680000D02*
X160215000Y-67505000D01*
X162560000Y-69680000D02*
X162390000Y-69680000D01*
X171485000Y-64135000D02*
X170424998Y-64135000D01*
X170424998Y-64135000D02*
X169799998Y-63510000D01*
X184705000Y-51625000D02*
X185150000Y-52070000D01*
X182245000Y-51625000D02*
X184705000Y-51625000D01*
X184705000Y-69405000D02*
X185150000Y-69850000D01*
X182245000Y-69405000D02*
X184705000Y-69405000D01*
X157925000Y-63690000D02*
X157925000Y-62230000D01*
X157925000Y-64770000D02*
X157925000Y-63690000D01*
X152648852Y-68580000D02*
X152141784Y-69087068D01*
X153205000Y-68580000D02*
X152648852Y-68580000D01*
X163335000Y-68059000D02*
X163335000Y-64770000D01*
X162941000Y-68453000D02*
X163335000Y-68059000D01*
X160020000Y-66548000D02*
X161925000Y-68453000D01*
X161925000Y-68453000D02*
X162941000Y-68453000D01*
X158877000Y-66548000D02*
X160020000Y-66548000D01*
X157925000Y-65596000D02*
X158877000Y-66548000D01*
X157925000Y-64770000D02*
X157925000Y-65596000D01*
X157925000Y-65595000D02*
X157925000Y-64770000D01*
X152146000Y-66929000D02*
X156591000Y-66929000D01*
X151765000Y-67310000D02*
X152146000Y-66929000D01*
X156591000Y-66929000D02*
X157925000Y-65595000D01*
X151257000Y-67310000D02*
X151765000Y-67310000D01*
X176149000Y-65786000D02*
X175768000Y-65405000D01*
X176149000Y-67374000D02*
X176149000Y-65786000D01*
X176530000Y-67755000D02*
X176149000Y-67374000D01*
X172593000Y-64770000D02*
X173228000Y-65405000D01*
X173228000Y-65405000D02*
X173826890Y-65405000D01*
X169545000Y-64770000D02*
X172593000Y-64770000D01*
X168910000Y-64135000D02*
X169545000Y-64770000D01*
X171130000Y-56835000D02*
X171450000Y-57155000D01*
X170350000Y-56835000D02*
X171130000Y-56835000D01*
X171450000Y-59055000D02*
X168910000Y-61595000D01*
X171450000Y-57155000D02*
X171450000Y-59055000D01*
X168910000Y-61595000D02*
X168910000Y-64135000D01*
X173185000Y-69530000D02*
X174818000Y-69530000D01*
X174943000Y-69405000D02*
X176530000Y-69405000D01*
X174818000Y-69530000D02*
X174943000Y-69405000D01*
D21*
X157269000Y-69655000D02*
X156194000Y-68580000D01*
X158369000Y-69655000D02*
X157269000Y-69655000D01*
X153841522Y-69530000D02*
X153205000Y-69530000D01*
X154791522Y-68580000D02*
X153841522Y-69530000D01*
X156194000Y-68580000D02*
X154791522Y-68580000D01*
X153841522Y-67630000D02*
X153205000Y-67630000D01*
X154791522Y-68580000D02*
X153841522Y-67630000D01*
X150672500Y-69355000D02*
X149860000Y-69355000D01*
X152397500Y-67630000D02*
X150672500Y-69355000D01*
X153205000Y-67630000D02*
X152397500Y-67630000D01*
X169672000Y-57785000D02*
X170350000Y-57785000D01*
X166335000Y-61122000D02*
X169672000Y-57785000D01*
X166335000Y-61595000D02*
X166335000Y-61122000D01*
X165608000Y-61595000D02*
X166335000Y-61595000D01*
X163703000Y-59690000D02*
X165608000Y-61595000D01*
X163335000Y-59690000D02*
X163703000Y-59690000D01*
X163322000Y-53594000D02*
X163830000Y-54102000D01*
X155956000Y-53594000D02*
X163322000Y-53594000D01*
X153225000Y-50800000D02*
X153225000Y-50863000D01*
X153225000Y-50863000D02*
X155956000Y-53594000D01*
X163830000Y-54102000D02*
X163830000Y-56732900D01*
X163335000Y-59690000D02*
X164679996Y-59690000D01*
X164679996Y-59690000D02*
X164699996Y-59710000D01*
X149238000Y-69355000D02*
X149860000Y-69355000D01*
X148082000Y-68199000D02*
X149238000Y-69355000D01*
X149860000Y-59563000D02*
X148082000Y-61341000D01*
X148082000Y-61341000D02*
X148082000Y-68199000D01*
X149860000Y-50419000D02*
X149860000Y-59563000D01*
X150368000Y-49911000D02*
X149860000Y-50419000D01*
X153035000Y-49911000D02*
X150368000Y-49911000D01*
X153225000Y-50101000D02*
X153035000Y-49911000D01*
X153225000Y-50800000D02*
X153225000Y-50101000D01*
X151575000Y-50800000D02*
X150622000Y-50800000D01*
X181265000Y-49975000D02*
X182245000Y-49975000D01*
X180550000Y-49260000D02*
X181265000Y-49975000D01*
X177050000Y-49260000D02*
X180550000Y-49260000D01*
X170050000Y-49260000D02*
X177050000Y-49260000D01*
X167780000Y-51530000D02*
X170050000Y-49260000D01*
X167749000Y-52959000D02*
X167780000Y-52990000D01*
X156337000Y-52959000D02*
X167749000Y-52959000D01*
X154432000Y-51054000D02*
X156337000Y-52959000D01*
X154432000Y-50800000D02*
X154432000Y-51054000D01*
X167780000Y-52990000D02*
X167780000Y-51530000D01*
X167780000Y-55260000D02*
X167780000Y-52990000D01*
X177050000Y-54876000D02*
X177050000Y-49260000D01*
X178550000Y-56376000D02*
X177050000Y-54876000D01*
X178550000Y-60030000D02*
X178550000Y-56376000D01*
X176350000Y-62230000D02*
X178550000Y-60030000D01*
D22*
X150622000Y-50800000D02*
X150622000Y-59944000D01*
X151638000Y-60960000D02*
X152654000Y-60960000D01*
X150622000Y-59944000D02*
X151638000Y-60960000D01*
X169481000Y-56134000D02*
X167830000Y-57785000D01*
X172550000Y-56134000D02*
X169481000Y-56134000D01*
X172550000Y-56835000D02*
X172550000Y-56134000D01*
X172550000Y-56134000D02*
X172550000Y-54510000D01*
X172050000Y-54010000D02*
X172050000Y-52260000D01*
X172550000Y-54510000D02*
X172050000Y-54010000D01*
X166300000Y-59260000D02*
X165050000Y-58010000D01*
X155956000Y-60960000D02*
X153924000Y-60960000D01*
X167308000Y-59260000D02*
X166300000Y-59260000D01*
X158906000Y-58010000D02*
X155956000Y-60960000D01*
X167830000Y-58738000D02*
X167308000Y-59260000D01*
X165050000Y-58010000D02*
X158906000Y-58010000D01*
X167830000Y-57785000D02*
X167830000Y-58738000D01*
X174498000Y-59002000D02*
X176350000Y-57150000D01*
X174117000Y-67183000D02*
X174498000Y-66802000D01*
X174498000Y-66802000D02*
X174498000Y-59002000D01*
X174117000Y-68234881D02*
X174117000Y-67183000D01*
X173771881Y-68580000D02*
X174117000Y-68234881D01*
X173185000Y-68580000D02*
X173771881Y-68580000D01*
X166180000Y-57785000D02*
X166941984Y-58546984D01*
X166941984Y-58546984D02*
X167005000Y-58546984D01*
X162655000Y-55834000D02*
X162687000Y-55802000D01*
X162687000Y-55802000D02*
X162687000Y-54356000D01*
X162655000Y-50084000D02*
X162655000Y-52165000D01*
X162655000Y-52165000D02*
X162687000Y-52197000D01*
X168402000Y-60960000D02*
X168783000Y-60579000D01*
X168402000Y-64643000D02*
X168402000Y-60960000D01*
X171485000Y-65405000D02*
X169164000Y-65405000D01*
X169164000Y-65405000D02*
X168402000Y-64643000D01*
X162655000Y-56215000D02*
X162655000Y-57118000D01*
X162941000Y-57404000D02*
X165799000Y-57404000D01*
X162655000Y-57118000D02*
X162941000Y-57404000D01*
X165799000Y-57404000D02*
X166180000Y-57785000D01*
X170985000Y-67630000D02*
X169225000Y-67630000D01*
X169100000Y-67755000D02*
X167640000Y-67755000D01*
X169225000Y-67630000D02*
X169100000Y-67755000D01*
X167259000Y-65405000D02*
X166335000Y-65405000D01*
X167640000Y-65786000D02*
X167259000Y-65405000D01*
X167640000Y-67755000D02*
X167640000Y-65786000D01*
X180911000Y-66421000D02*
X176911000Y-66421000D01*
X182245000Y-67755000D02*
X180911000Y-66421000D01*
X167894000Y-64135000D02*
X166335000Y-64135000D01*
X167894000Y-60452000D02*
X167894000Y-64135000D01*
X169611000Y-58735000D02*
X167894000Y-60452000D01*
X170350000Y-58735000D02*
X169611000Y-58735000D01*
X169037000Y-66421000D02*
X167894000Y-65278000D01*
X167894000Y-65278000D02*
X167894000Y-64135000D01*
X173826890Y-66421000D02*
X169037000Y-66421000D01*
X173228000Y-59413000D02*
X172550000Y-58735000D01*
X173228000Y-62484000D02*
X173228000Y-59413000D01*
X172847000Y-62865000D02*
X173228000Y-62484000D01*
X171485000Y-62865000D02*
X172847000Y-62865000D01*
D23*
X188824001Y-70714000D02*
X185902446Y-70714000D01*
X186037826Y-70578620D01*
X186162913Y-70391413D01*
X186249075Y-70183401D01*
X186293000Y-69962576D01*
X186293000Y-69737424D01*
X186249075Y-69516599D01*
X186162913Y-69308587D01*
X186037826Y-69121380D01*
X185878620Y-68962174D01*
X185691413Y-68837087D01*
X185483401Y-68750925D01*
X185262576Y-68707000D01*
X185037424Y-68707000D01*
X184816599Y-68750925D01*
X184608587Y-68837087D01*
X184515927Y-68899000D01*
X183014136Y-68899000D01*
X183004616Y-68881190D01*
X182932132Y-68792868D01*
X182843810Y-68720384D01*
X182743044Y-68666523D01*
X182633707Y-68633356D01*
X182520000Y-68622157D01*
X181970000Y-68622157D01*
X181856293Y-68633356D01*
X181746956Y-68666523D01*
X181646190Y-68720384D01*
X181557868Y-68792868D01*
X181485384Y-68881190D01*
X181431523Y-68981956D01*
X181398356Y-69091293D01*
X181387157Y-69205000D01*
X181387157Y-69605000D01*
X181398356Y-69718707D01*
X181431523Y-69828044D01*
X181485384Y-69928810D01*
X181557868Y-70017132D01*
X181646190Y-70089616D01*
X181746956Y-70143477D01*
X181856293Y-70176644D01*
X181970000Y-70187843D01*
X182520000Y-70187843D01*
X182633707Y-70176644D01*
X182743044Y-70143477D01*
X182843810Y-70089616D01*
X182932132Y-70017132D01*
X183004616Y-69928810D01*
X183014136Y-69911000D01*
X184007000Y-69911000D01*
X184007000Y-69962576D01*
X184050925Y-70183401D01*
X184137087Y-70391413D01*
X184262174Y-70578620D01*
X184397554Y-70714000D01*
X146456000Y-70714000D01*
X146456000Y-61341000D01*
X147494975Y-61341000D01*
X147497800Y-61369684D01*
X147497801Y-68170306D01*
X147494975Y-68199000D01*
X147506254Y-68313523D01*
X147539659Y-68423644D01*
X147561589Y-68464671D01*
X147593907Y-68525134D01*
X147616113Y-68552192D01*
X147648620Y-68591803D01*
X147648623Y-68591806D01*
X147666911Y-68614090D01*
X147689194Y-68632377D01*
X148804622Y-69747806D01*
X148822910Y-69770090D01*
X148845194Y-69788378D01*
X148845196Y-69788380D01*
X148865187Y-69804785D01*
X148911866Y-69843094D01*
X149013355Y-69897341D01*
X149112595Y-69927445D01*
X149180190Y-70009810D01*
X149272301Y-70085403D01*
X149377389Y-70141574D01*
X149491416Y-70176163D01*
X149610000Y-70187843D01*
X150110000Y-70187843D01*
X150228584Y-70176163D01*
X150342611Y-70141574D01*
X150447699Y-70085403D01*
X150539810Y-70009810D01*
X150597758Y-69939200D01*
X150643816Y-69939200D01*
X150672500Y-69942025D01*
X150701184Y-69939200D01*
X150701192Y-69939200D01*
X150787023Y-69930746D01*
X150897145Y-69897341D01*
X150998634Y-69843094D01*
X151087590Y-69770090D01*
X151105882Y-69747801D01*
X151477850Y-69375833D01*
X151500272Y-69429963D01*
X151579494Y-69548528D01*
X151680324Y-69649358D01*
X151798889Y-69728580D01*
X151930630Y-69783149D01*
X152070486Y-69810968D01*
X152213082Y-69810968D01*
X152292157Y-69795239D01*
X152292157Y-69855000D01*
X152299513Y-69929689D01*
X152321299Y-70001508D01*
X152356678Y-70067696D01*
X152404289Y-70125711D01*
X152462304Y-70173322D01*
X152528492Y-70208701D01*
X152600311Y-70230487D01*
X152675000Y-70237843D01*
X153735000Y-70237843D01*
X153809689Y-70230487D01*
X153881508Y-70208701D01*
X153947696Y-70173322D01*
X154005711Y-70125711D01*
X154043989Y-70079069D01*
X154066167Y-70072341D01*
X154167656Y-70018094D01*
X154256612Y-69945090D01*
X154274904Y-69922801D01*
X155033506Y-69164200D01*
X155952017Y-69164200D01*
X156835622Y-70047806D01*
X156853910Y-70070090D01*
X156876194Y-70088378D01*
X156876196Y-70088380D01*
X156893289Y-70102407D01*
X156898317Y-70153462D01*
X156934329Y-70272179D01*
X156992810Y-70381589D01*
X157071512Y-70477488D01*
X157167411Y-70556190D01*
X157276821Y-70614671D01*
X157395538Y-70650683D01*
X157519000Y-70662843D01*
X159219000Y-70662843D01*
X159342462Y-70650683D01*
X159461179Y-70614671D01*
X159570589Y-70556190D01*
X159666488Y-70477488D01*
X159745190Y-70381589D01*
X159803671Y-70272179D01*
X159839683Y-70153462D01*
X159851843Y-70030000D01*
X159851843Y-69280000D01*
X159839683Y-69156538D01*
X159803671Y-69037821D01*
X159745190Y-68928411D01*
X159666488Y-68832512D01*
X159570589Y-68753810D01*
X159461179Y-68695329D01*
X159342462Y-68659317D01*
X159219000Y-68647157D01*
X157519000Y-68647157D01*
X157395538Y-68659317D01*
X157276821Y-68695329D01*
X157184734Y-68744551D01*
X156627382Y-68187199D01*
X156609090Y-68164910D01*
X156573863Y-68136000D01*
X156627154Y-68136000D01*
X156652000Y-68138447D01*
X156676846Y-68136000D01*
X156676854Y-68136000D01*
X156751193Y-68128678D01*
X156846575Y-68099745D01*
X156916230Y-68062513D01*
X156934329Y-68122179D01*
X156992810Y-68231589D01*
X157071512Y-68327488D01*
X157167411Y-68406190D01*
X157276821Y-68464671D01*
X157395538Y-68500683D01*
X157519000Y-68512843D01*
X159219000Y-68512843D01*
X159342462Y-68500683D01*
X159461179Y-68464671D01*
X159570589Y-68406190D01*
X159666488Y-68327488D01*
X159745190Y-68231589D01*
X159803671Y-68122179D01*
X159837396Y-68011000D01*
X160005409Y-68011000D01*
X161777157Y-69782749D01*
X161777157Y-70080000D01*
X161784513Y-70154689D01*
X161806299Y-70226508D01*
X161841678Y-70292696D01*
X161889289Y-70350711D01*
X161947304Y-70398322D01*
X162013492Y-70433701D01*
X162085311Y-70455487D01*
X162160000Y-70462843D01*
X162960000Y-70462843D01*
X163034689Y-70455487D01*
X163106508Y-70433701D01*
X163172696Y-70398322D01*
X163230711Y-70350711D01*
X163278322Y-70292696D01*
X163313701Y-70226508D01*
X163335487Y-70154689D01*
X163342843Y-70080000D01*
X163342843Y-69280000D01*
X163335487Y-69205311D01*
X163313701Y-69133492D01*
X163278322Y-69067304D01*
X163230711Y-69009289D01*
X163172696Y-68961678D01*
X163112790Y-68929657D01*
X163135575Y-68922745D01*
X163223479Y-68875759D01*
X163300527Y-68812527D01*
X163316376Y-68793215D01*
X163675220Y-68434372D01*
X163694527Y-68418527D01*
X163757759Y-68341479D01*
X163804745Y-68253575D01*
X163816689Y-68214200D01*
X163833678Y-68158194D01*
X163835864Y-68136000D01*
X163841000Y-68083854D01*
X163841000Y-68083847D01*
X163843447Y-68059001D01*
X163841000Y-68034155D01*
X163841000Y-66613591D01*
X164877157Y-67649749D01*
X164877157Y-68017000D01*
X164888837Y-68135584D01*
X164923426Y-68249611D01*
X164979597Y-68354699D01*
X165055190Y-68446810D01*
X165147301Y-68522403D01*
X165252389Y-68578574D01*
X165366416Y-68613163D01*
X165485000Y-68624843D01*
X165852251Y-68624843D01*
X166147628Y-68920220D01*
X166163473Y-68939527D01*
X166240521Y-69002759D01*
X166328425Y-69049745D01*
X166397836Y-69070800D01*
X166423806Y-69078678D01*
X166429655Y-69079254D01*
X166498146Y-69086000D01*
X166498153Y-69086000D01*
X166522999Y-69088447D01*
X166547845Y-69086000D01*
X170119736Y-69086000D01*
X170136678Y-69117696D01*
X170184289Y-69175711D01*
X170242304Y-69223322D01*
X170308492Y-69258701D01*
X170380311Y-69280487D01*
X170455000Y-69287843D01*
X171515000Y-69287843D01*
X171589689Y-69280487D01*
X171661508Y-69258701D01*
X171727696Y-69223322D01*
X171785711Y-69175711D01*
X171833322Y-69117696D01*
X171849954Y-69086580D01*
X171855846Y-69086000D01*
X171855854Y-69086000D01*
X171930193Y-69078678D01*
X172025575Y-69049745D01*
X172113479Y-69002759D01*
X172190527Y-68939527D01*
X172206376Y-68920215D01*
X172272157Y-68854434D01*
X172272157Y-68905000D01*
X172279513Y-68979689D01*
X172301299Y-69051508D01*
X172303166Y-69055000D01*
X172301299Y-69058492D01*
X172279513Y-69130311D01*
X172272157Y-69205000D01*
X172272157Y-69855000D01*
X172279513Y-69929689D01*
X172301299Y-70001508D01*
X172336678Y-70067696D01*
X172384289Y-70125711D01*
X172442304Y-70173322D01*
X172508492Y-70208701D01*
X172580311Y-70230487D01*
X172655000Y-70237843D01*
X173715000Y-70237843D01*
X173789689Y-70230487D01*
X173861508Y-70208701D01*
X173927696Y-70173322D01*
X173985711Y-70125711D01*
X174033322Y-70067696D01*
X174050264Y-70036000D01*
X174793154Y-70036000D01*
X174818000Y-70038447D01*
X174842846Y-70036000D01*
X174842854Y-70036000D01*
X174917193Y-70028678D01*
X175012575Y-69999745D01*
X175100479Y-69952759D01*
X175151362Y-69911000D01*
X175760864Y-69911000D01*
X175770384Y-69928810D01*
X175842868Y-70017132D01*
X175931190Y-70089616D01*
X176031956Y-70143477D01*
X176141293Y-70176644D01*
X176255000Y-70187843D01*
X176805000Y-70187843D01*
X176918707Y-70176644D01*
X177028044Y-70143477D01*
X177128810Y-70089616D01*
X177217132Y-70017132D01*
X177289616Y-69928810D01*
X177343477Y-69828044D01*
X177376644Y-69718707D01*
X177387843Y-69605000D01*
X177387843Y-69205000D01*
X177376644Y-69091293D01*
X177343477Y-68981956D01*
X177289616Y-68881190D01*
X177217132Y-68792868D01*
X177128810Y-68720384D01*
X177028044Y-68666523D01*
X176918707Y-68633356D01*
X176805000Y-68622157D01*
X176255000Y-68622157D01*
X176141293Y-68633356D01*
X176031956Y-68666523D01*
X175931190Y-68720384D01*
X175842868Y-68792868D01*
X175770384Y-68881190D01*
X175760864Y-68899000D01*
X174967854Y-68899000D01*
X174943000Y-68896552D01*
X174918146Y-68899000D01*
X174843807Y-68906322D01*
X174748425Y-68935255D01*
X174660521Y-68982241D01*
X174609638Y-69024000D01*
X174077045Y-69024000D01*
X174090487Y-68979689D01*
X174091192Y-68972532D01*
X174131408Y-68939527D01*
X174147257Y-68920215D01*
X174457220Y-68610253D01*
X174476527Y-68594408D01*
X174539759Y-68517360D01*
X174586745Y-68429456D01*
X174615678Y-68334074D01*
X174623000Y-68259735D01*
X174623000Y-68259727D01*
X174625447Y-68234881D01*
X174623000Y-68210035D01*
X174623000Y-67392591D01*
X174838220Y-67177372D01*
X174857527Y-67161527D01*
X174920759Y-67084479D01*
X174967745Y-66996575D01*
X174996678Y-66901193D01*
X175004000Y-66826854D01*
X175004000Y-66826847D01*
X175006447Y-66802001D01*
X175004000Y-66777155D01*
X175004000Y-65333702D01*
X175044100Y-65333702D01*
X175044100Y-65476298D01*
X175071919Y-65616154D01*
X175126488Y-65747895D01*
X175205710Y-65866460D01*
X175306540Y-65967290D01*
X175425105Y-66046512D01*
X175556846Y-66101081D01*
X175643001Y-66118218D01*
X175643000Y-67349153D01*
X175640553Y-67374000D01*
X175643000Y-67398846D01*
X175643000Y-67398853D01*
X175650322Y-67473192D01*
X175672888Y-67547583D01*
X175672157Y-67555000D01*
X175672157Y-67955000D01*
X175683356Y-68068707D01*
X175716523Y-68178044D01*
X175770384Y-68278810D01*
X175842868Y-68367132D01*
X175931190Y-68439616D01*
X176031956Y-68493477D01*
X176141293Y-68526644D01*
X176255000Y-68537843D01*
X176805000Y-68537843D01*
X176918707Y-68526644D01*
X177028044Y-68493477D01*
X177073836Y-68469000D01*
X177943000Y-68469000D01*
X177943000Y-68691000D01*
X177986310Y-68908734D01*
X178071266Y-69113835D01*
X178194602Y-69298421D01*
X178351579Y-69455398D01*
X178536165Y-69578734D01*
X178741266Y-69663690D01*
X178959000Y-69707000D01*
X179181000Y-69707000D01*
X179398734Y-69663690D01*
X179603835Y-69578734D01*
X179788421Y-69455398D01*
X179945398Y-69298421D01*
X180068734Y-69113835D01*
X180153690Y-68908734D01*
X180197000Y-68691000D01*
X180197000Y-68469000D01*
X180153690Y-68251266D01*
X180068734Y-68046165D01*
X179945398Y-67861579D01*
X179788421Y-67704602D01*
X179603835Y-67581266D01*
X179398734Y-67496310D01*
X179181000Y-67453000D01*
X178959000Y-67453000D01*
X178741266Y-67496310D01*
X178536165Y-67581266D01*
X178351579Y-67704602D01*
X178194602Y-67861579D01*
X178071266Y-68046165D01*
X177986310Y-68251266D01*
X177943000Y-68469000D01*
X177073836Y-68469000D01*
X177128810Y-68439616D01*
X177217132Y-68367132D01*
X177289616Y-68278810D01*
X177343477Y-68178044D01*
X177376644Y-68068707D01*
X177387843Y-67955000D01*
X177387843Y-67555000D01*
X177376644Y-67441293D01*
X177343477Y-67331956D01*
X177289616Y-67231190D01*
X177217132Y-67142868D01*
X177164392Y-67099585D01*
X177253895Y-67062512D01*
X177372460Y-66983290D01*
X177428750Y-66927000D01*
X180701409Y-66927000D01*
X181387157Y-67612749D01*
X181387157Y-67955000D01*
X181398356Y-68068707D01*
X181431523Y-68178044D01*
X181485384Y-68278810D01*
X181557868Y-68367132D01*
X181646190Y-68439616D01*
X181746956Y-68493477D01*
X181856293Y-68526644D01*
X181970000Y-68537843D01*
X182520000Y-68537843D01*
X182633707Y-68526644D01*
X182743044Y-68493477D01*
X182843810Y-68439616D01*
X182932132Y-68367132D01*
X183004616Y-68278810D01*
X183058477Y-68178044D01*
X183091644Y-68068707D01*
X183102843Y-67955000D01*
X183102843Y-67555000D01*
X183091644Y-67441293D01*
X183058477Y-67331956D01*
X183004616Y-67231190D01*
X182932132Y-67142868D01*
X182843810Y-67070384D01*
X182743044Y-67016523D01*
X182633707Y-66983356D01*
X182520000Y-66972157D01*
X182177749Y-66972157D01*
X181286376Y-66080785D01*
X181270527Y-66061473D01*
X181193479Y-65998241D01*
X181105575Y-65951255D01*
X181010193Y-65922322D01*
X180935854Y-65915000D01*
X180935846Y-65915000D01*
X180911000Y-65912553D01*
X180886154Y-65915000D01*
X177428750Y-65915000D01*
X177372460Y-65858710D01*
X177253895Y-65779488D01*
X177122154Y-65724919D01*
X176982298Y-65697100D01*
X176839702Y-65697100D01*
X176699846Y-65724919D01*
X176653330Y-65744187D01*
X176648504Y-65695192D01*
X176647678Y-65686806D01*
X176639229Y-65658953D01*
X176618745Y-65591425D01*
X176571759Y-65503521D01*
X176508527Y-65426473D01*
X176491900Y-65412828D01*
X176491900Y-65333702D01*
X176464081Y-65193846D01*
X176409512Y-65062105D01*
X176330290Y-64943540D01*
X176229460Y-64842710D01*
X176110895Y-64763488D01*
X175979154Y-64708919D01*
X175839298Y-64681100D01*
X175696702Y-64681100D01*
X175556846Y-64708919D01*
X175425105Y-64763488D01*
X175306540Y-64842710D01*
X175205710Y-64943540D01*
X175126488Y-65062105D01*
X175071919Y-65193846D01*
X175044100Y-65333702D01*
X175004000Y-65333702D01*
X175004000Y-59211591D01*
X175875565Y-58340027D01*
X175976346Y-58381772D01*
X176223833Y-58431000D01*
X176476167Y-58431000D01*
X176723654Y-58381772D01*
X176956781Y-58285207D01*
X177166590Y-58145018D01*
X177345018Y-57966590D01*
X177485207Y-57756781D01*
X177581772Y-57523654D01*
X177631000Y-57276167D01*
X177631000Y-57023833D01*
X177581772Y-56776346D01*
X177485207Y-56543219D01*
X177345018Y-56333410D01*
X177166590Y-56154982D01*
X176956781Y-56014793D01*
X176723654Y-55918228D01*
X176476167Y-55869000D01*
X176223833Y-55869000D01*
X175976346Y-55918228D01*
X175743219Y-56014793D01*
X175533410Y-56154982D01*
X175354982Y-56333410D01*
X175214793Y-56543219D01*
X175118228Y-56776346D01*
X175069000Y-57023833D01*
X175069000Y-57276167D01*
X175118228Y-57523654D01*
X175159973Y-57624435D01*
X174157781Y-58626628D01*
X174138474Y-58642473D01*
X174075242Y-58719521D01*
X174054601Y-58758138D01*
X174028255Y-58807426D01*
X173999322Y-58902808D01*
X173989553Y-59002000D01*
X173992001Y-59026856D01*
X173992000Y-64699760D01*
X173898188Y-64681100D01*
X173755592Y-64681100D01*
X173615736Y-64708919D01*
X173483995Y-64763488D01*
X173374944Y-64836353D01*
X172968376Y-64429785D01*
X172952527Y-64410473D01*
X172875479Y-64347241D01*
X172864301Y-64341266D01*
X172869843Y-64285000D01*
X172869843Y-63985000D01*
X172859605Y-63881047D01*
X172829283Y-63781090D01*
X172780043Y-63688968D01*
X172713777Y-63608223D01*
X172633032Y-63541957D01*
X172554536Y-63500000D01*
X172633032Y-63458043D01*
X172713777Y-63391777D01*
X172730828Y-63371000D01*
X172822154Y-63371000D01*
X172847000Y-63373447D01*
X172871846Y-63371000D01*
X172871854Y-63371000D01*
X172946193Y-63363678D01*
X173041575Y-63334745D01*
X173129479Y-63287759D01*
X173206527Y-63224527D01*
X173222376Y-63205215D01*
X173568220Y-62859372D01*
X173587527Y-62843527D01*
X173650759Y-62766479D01*
X173697745Y-62678575D01*
X173726678Y-62583193D01*
X173734000Y-62508854D01*
X173734000Y-62508847D01*
X173736447Y-62484001D01*
X173734000Y-62459155D01*
X173734000Y-59437854D01*
X173736448Y-59413000D01*
X173726678Y-59313807D01*
X173697745Y-59218425D01*
X173686065Y-59196574D01*
X173650759Y-59130521D01*
X173587527Y-59053473D01*
X173568220Y-59037628D01*
X173462843Y-58932251D01*
X173462843Y-58410000D01*
X173455487Y-58335311D01*
X173433701Y-58263492D01*
X173398322Y-58197304D01*
X173350711Y-58139289D01*
X173292696Y-58091678D01*
X173226508Y-58056299D01*
X173154689Y-58034513D01*
X173080000Y-58027157D01*
X172020000Y-58027157D01*
X171956000Y-58033460D01*
X171956000Y-57536540D01*
X172020000Y-57542843D01*
X173080000Y-57542843D01*
X173154689Y-57535487D01*
X173226508Y-57513701D01*
X173292696Y-57478322D01*
X173350711Y-57430711D01*
X173398322Y-57372696D01*
X173433701Y-57306508D01*
X173455487Y-57234689D01*
X173462843Y-57160000D01*
X173462843Y-56510000D01*
X173455487Y-56435311D01*
X173433701Y-56363492D01*
X173398322Y-56297304D01*
X173350711Y-56239289D01*
X173292696Y-56191678D01*
X173226508Y-56156299D01*
X173154689Y-56134513D01*
X173080000Y-56127157D01*
X173057774Y-56127157D01*
X173056000Y-56109146D01*
X173056000Y-54534854D01*
X173058448Y-54510000D01*
X173048678Y-54410807D01*
X173019745Y-54315425D01*
X173003323Y-54284702D01*
X172972759Y-54227521D01*
X172909527Y-54150473D01*
X172890220Y-54134628D01*
X172556000Y-53800409D01*
X172556000Y-53191942D01*
X172723161Y-53080249D01*
X172870249Y-52933161D01*
X172985815Y-52760204D01*
X173065419Y-52568024D01*
X173106000Y-52364007D01*
X173106000Y-52155993D01*
X173065419Y-51951976D01*
X172985815Y-51759796D01*
X172870249Y-51586839D01*
X172723161Y-51439751D01*
X172550204Y-51324185D01*
X172358024Y-51244581D01*
X172154007Y-51204000D01*
X171945993Y-51204000D01*
X171741976Y-51244581D01*
X171549796Y-51324185D01*
X171376839Y-51439751D01*
X171229751Y-51586839D01*
X171114185Y-51759796D01*
X171050000Y-51914751D01*
X170985815Y-51759796D01*
X170870249Y-51586839D01*
X170723161Y-51439751D01*
X170550204Y-51324185D01*
X170358024Y-51244581D01*
X170154007Y-51204000D01*
X169945993Y-51204000D01*
X169741976Y-51244581D01*
X169549796Y-51324185D01*
X169376839Y-51439751D01*
X169229751Y-51586839D01*
X169114185Y-51759796D01*
X169034581Y-51951976D01*
X168994000Y-52155993D01*
X168994000Y-52364007D01*
X169034581Y-52568024D01*
X169114185Y-52760204D01*
X169229751Y-52933161D01*
X169376839Y-53080249D01*
X169549796Y-53195815D01*
X169741976Y-53275419D01*
X169945993Y-53316000D01*
X170154007Y-53316000D01*
X170358024Y-53275419D01*
X170550204Y-53195815D01*
X170723161Y-53080249D01*
X170870249Y-52933161D01*
X170985815Y-52760204D01*
X171050000Y-52605249D01*
X171114185Y-52760204D01*
X171229751Y-52933161D01*
X171376839Y-53080249D01*
X171544000Y-53191943D01*
X171544000Y-53985153D01*
X171541553Y-54010000D01*
X171544000Y-54034846D01*
X171544000Y-54034853D01*
X171551322Y-54109192D01*
X171580255Y-54204574D01*
X171627241Y-54292479D01*
X171690473Y-54369527D01*
X171709785Y-54385376D01*
X172044001Y-54719593D01*
X172044000Y-55628000D01*
X169505854Y-55628000D01*
X169481000Y-55625552D01*
X169456146Y-55628000D01*
X169381807Y-55635322D01*
X169286425Y-55664255D01*
X169198521Y-55711241D01*
X169121473Y-55774473D01*
X169105628Y-55793780D01*
X167972252Y-56927157D01*
X167630000Y-56927157D01*
X167516293Y-56938356D01*
X167406956Y-56971523D01*
X167306190Y-57025384D01*
X167217868Y-57097868D01*
X167145384Y-57186190D01*
X167091523Y-57286956D01*
X167058356Y-57396293D01*
X167047157Y-57510000D01*
X167047157Y-57823084D01*
X166962843Y-57823084D01*
X166962843Y-57510000D01*
X166951644Y-57396293D01*
X166918477Y-57286956D01*
X166864616Y-57186190D01*
X166792132Y-57097868D01*
X166703810Y-57025384D01*
X166603044Y-56971523D01*
X166493707Y-56938356D01*
X166380000Y-56927157D01*
X165980000Y-56927157D01*
X165972583Y-56927887D01*
X165898193Y-56905322D01*
X165823854Y-56898000D01*
X165823846Y-56898000D01*
X165799000Y-56895553D01*
X165774154Y-56898000D01*
X164535242Y-56898000D01*
X164553900Y-56804198D01*
X164553900Y-56661602D01*
X164526081Y-56521746D01*
X164471512Y-56390005D01*
X164414200Y-56304231D01*
X164414200Y-54130681D01*
X164417025Y-54101999D01*
X164414200Y-54073317D01*
X164414200Y-54073308D01*
X164405746Y-53987477D01*
X164372341Y-53877355D01*
X164318094Y-53775866D01*
X164245090Y-53686910D01*
X164222802Y-53668619D01*
X164097383Y-53543200D01*
X167195801Y-53543200D01*
X167195800Y-54380242D01*
X167125190Y-54438190D01*
X167049597Y-54530301D01*
X166993426Y-54635389D01*
X166958837Y-54749416D01*
X166947157Y-54868000D01*
X166947157Y-55368000D01*
X166958837Y-55486584D01*
X166993426Y-55600611D01*
X167049597Y-55705699D01*
X167125190Y-55797810D01*
X167217301Y-55873403D01*
X167322389Y-55929574D01*
X167436416Y-55964163D01*
X167555000Y-55975843D01*
X168005000Y-55975843D01*
X168123584Y-55964163D01*
X168237611Y-55929574D01*
X168342699Y-55873403D01*
X168434810Y-55797810D01*
X168510403Y-55705699D01*
X168566574Y-55600611D01*
X168601163Y-55486584D01*
X168612843Y-55368000D01*
X168612843Y-54868000D01*
X168601163Y-54749416D01*
X168566574Y-54635389D01*
X168510403Y-54530301D01*
X168434810Y-54438190D01*
X168364200Y-54380242D01*
X168364200Y-53018691D01*
X168367026Y-52990000D01*
X168364200Y-52961308D01*
X168364200Y-51771983D01*
X170291984Y-49844200D01*
X176465801Y-49844200D01*
X176465800Y-54847316D01*
X176462975Y-54876000D01*
X176465800Y-54904684D01*
X176465800Y-54904691D01*
X176473190Y-54979717D01*
X176474254Y-54990523D01*
X176482725Y-55018448D01*
X176507659Y-55100644D01*
X176561906Y-55202133D01*
X176634910Y-55291090D01*
X176657199Y-55309382D01*
X177965801Y-56617984D01*
X177965800Y-59788016D01*
X176746235Y-61007581D01*
X176723654Y-60998228D01*
X176476167Y-60949000D01*
X176223833Y-60949000D01*
X175976346Y-60998228D01*
X175743219Y-61094793D01*
X175533410Y-61234982D01*
X175354982Y-61413410D01*
X175214793Y-61623219D01*
X175118228Y-61856346D01*
X175069000Y-62103833D01*
X175069000Y-62356167D01*
X175118228Y-62603654D01*
X175214793Y-62836781D01*
X175354982Y-63046590D01*
X175533410Y-63225018D01*
X175743219Y-63365207D01*
X175976346Y-63461772D01*
X176223833Y-63511000D01*
X176476167Y-63511000D01*
X176723654Y-63461772D01*
X176956781Y-63365207D01*
X177032313Y-63314738D01*
X183109000Y-63314738D01*
X183109000Y-63685262D01*
X183181286Y-64048667D01*
X183323080Y-64390987D01*
X183528932Y-64699067D01*
X183790933Y-64961068D01*
X184099013Y-65166920D01*
X184441333Y-65308714D01*
X184804738Y-65381000D01*
X185175262Y-65381000D01*
X185538667Y-65308714D01*
X185880987Y-65166920D01*
X186189067Y-64961068D01*
X186451068Y-64699067D01*
X186656920Y-64390987D01*
X186798714Y-64048667D01*
X186871000Y-63685262D01*
X186871000Y-63314738D01*
X186798714Y-62951333D01*
X186656920Y-62609013D01*
X186451068Y-62300933D01*
X186189067Y-62038932D01*
X185880987Y-61833080D01*
X185538667Y-61691286D01*
X185175262Y-61619000D01*
X184804738Y-61619000D01*
X184441333Y-61691286D01*
X184099013Y-61833080D01*
X183790933Y-62038932D01*
X183528932Y-62300933D01*
X183323080Y-62609013D01*
X183181286Y-62951333D01*
X183109000Y-63314738D01*
X177032313Y-63314738D01*
X177166590Y-63225018D01*
X177345018Y-63046590D01*
X177485207Y-62836781D01*
X177581772Y-62603654D01*
X177631000Y-62356167D01*
X177631000Y-62103833D01*
X177581772Y-61856346D01*
X177572419Y-61833765D01*
X178942807Y-60463377D01*
X178965090Y-60445090D01*
X179003412Y-60398395D01*
X179038094Y-60356134D01*
X179092341Y-60254645D01*
X179125746Y-60144523D01*
X179137026Y-60030000D01*
X179134200Y-60001308D01*
X179134200Y-56404681D01*
X179137025Y-56375999D01*
X179134200Y-56347317D01*
X179134200Y-56347308D01*
X179125746Y-56261477D01*
X179092341Y-56151355D01*
X179038094Y-56049866D01*
X178965090Y-55960910D01*
X178942801Y-55942618D01*
X178694921Y-55694738D01*
X183109000Y-55694738D01*
X183109000Y-56065262D01*
X183181286Y-56428667D01*
X183323080Y-56770987D01*
X183528932Y-57079067D01*
X183790933Y-57341068D01*
X184099013Y-57546920D01*
X184441333Y-57688714D01*
X184804738Y-57761000D01*
X185175262Y-57761000D01*
X185538667Y-57688714D01*
X185880987Y-57546920D01*
X186189067Y-57341068D01*
X186451068Y-57079067D01*
X186656920Y-56770987D01*
X186798714Y-56428667D01*
X186871000Y-56065262D01*
X186871000Y-55694738D01*
X186798714Y-55331333D01*
X186656920Y-54989013D01*
X186451068Y-54680933D01*
X186189067Y-54418932D01*
X185880987Y-54213080D01*
X185538667Y-54071286D01*
X185175262Y-53999000D01*
X184804738Y-53999000D01*
X184441333Y-54071286D01*
X184099013Y-54213080D01*
X183790933Y-54418932D01*
X183528932Y-54680933D01*
X183323080Y-54989013D01*
X183181286Y-55331333D01*
X183109000Y-55694738D01*
X178694921Y-55694738D01*
X177634200Y-54634017D01*
X177634200Y-49844200D01*
X178471910Y-49844200D01*
X178351579Y-49924602D01*
X178194602Y-50081579D01*
X178071266Y-50266165D01*
X177986310Y-50471266D01*
X177943000Y-50689000D01*
X177943000Y-50911000D01*
X177986310Y-51128734D01*
X178071266Y-51333835D01*
X178194602Y-51518421D01*
X178351579Y-51675398D01*
X178536165Y-51798734D01*
X178741266Y-51883690D01*
X178959000Y-51927000D01*
X179181000Y-51927000D01*
X179398734Y-51883690D01*
X179603835Y-51798734D01*
X179788421Y-51675398D01*
X179945398Y-51518421D01*
X180007819Y-51425000D01*
X181387157Y-51425000D01*
X181387157Y-51825000D01*
X181398356Y-51938707D01*
X181431523Y-52048044D01*
X181485384Y-52148810D01*
X181557868Y-52237132D01*
X181646190Y-52309616D01*
X181746956Y-52363477D01*
X181856293Y-52396644D01*
X181970000Y-52407843D01*
X182520000Y-52407843D01*
X182633707Y-52396644D01*
X182743044Y-52363477D01*
X182843810Y-52309616D01*
X182932132Y-52237132D01*
X183004616Y-52148810D01*
X183014136Y-52131000D01*
X184007000Y-52131000D01*
X184007000Y-52182576D01*
X184050925Y-52403401D01*
X184137087Y-52611413D01*
X184262174Y-52798620D01*
X184421380Y-52957826D01*
X184608587Y-53082913D01*
X184816599Y-53169075D01*
X185037424Y-53213000D01*
X185262576Y-53213000D01*
X185483401Y-53169075D01*
X185691413Y-53082913D01*
X185878620Y-52957826D01*
X186037826Y-52798620D01*
X186162913Y-52611413D01*
X186249075Y-52403401D01*
X186293000Y-52182576D01*
X186293000Y-51957424D01*
X186249075Y-51736599D01*
X186162913Y-51528587D01*
X186037826Y-51341380D01*
X185878620Y-51182174D01*
X185691413Y-51057087D01*
X185483401Y-50970925D01*
X185262576Y-50927000D01*
X185037424Y-50927000D01*
X184816599Y-50970925D01*
X184608587Y-51057087D01*
X184515927Y-51119000D01*
X183014136Y-51119000D01*
X183004616Y-51101190D01*
X182932132Y-51012868D01*
X182843810Y-50940384D01*
X182743044Y-50886523D01*
X182633707Y-50853356D01*
X182520000Y-50842157D01*
X181970000Y-50842157D01*
X181856293Y-50853356D01*
X181746956Y-50886523D01*
X181646190Y-50940384D01*
X181557868Y-51012868D01*
X181485384Y-51101190D01*
X181431523Y-51201956D01*
X181398356Y-51311293D01*
X181387157Y-51425000D01*
X180007819Y-51425000D01*
X180068734Y-51333835D01*
X180153690Y-51128734D01*
X180197000Y-50911000D01*
X180197000Y-50689000D01*
X180153690Y-50471266D01*
X180068734Y-50266165D01*
X179945398Y-50081579D01*
X179788421Y-49924602D01*
X179668090Y-49844200D01*
X180308017Y-49844200D01*
X180831622Y-50367806D01*
X180849910Y-50390090D01*
X180872194Y-50408378D01*
X180872196Y-50408380D01*
X180938866Y-50463094D01*
X181040355Y-50517341D01*
X181150477Y-50550746D01*
X181265000Y-50562026D01*
X181293692Y-50559200D01*
X181534945Y-50559200D01*
X181557868Y-50587132D01*
X181646190Y-50659616D01*
X181746956Y-50713477D01*
X181856293Y-50746644D01*
X181970000Y-50757843D01*
X182520000Y-50757843D01*
X182633707Y-50746644D01*
X182743044Y-50713477D01*
X182843810Y-50659616D01*
X182932132Y-50587132D01*
X183004616Y-50498810D01*
X183058477Y-50398044D01*
X183091644Y-50288707D01*
X183102843Y-50175000D01*
X183102843Y-49775000D01*
X183091644Y-49661293D01*
X183058477Y-49551956D01*
X183004616Y-49451190D01*
X182932132Y-49362868D01*
X182843810Y-49290384D01*
X182743044Y-49236523D01*
X182633707Y-49203356D01*
X182520000Y-49192157D01*
X181970000Y-49192157D01*
X181856293Y-49203356D01*
X181746956Y-49236523D01*
X181646190Y-49290384D01*
X181557868Y-49362868D01*
X181534945Y-49390800D01*
X181506984Y-49390800D01*
X180983382Y-48867199D01*
X180965090Y-48844910D01*
X180876134Y-48771906D01*
X180774645Y-48717659D01*
X180664523Y-48684254D01*
X180578692Y-48675800D01*
X180578684Y-48675800D01*
X180550000Y-48672975D01*
X180521316Y-48675800D01*
X177078692Y-48675800D01*
X177050000Y-48672974D01*
X177021309Y-48675800D01*
X170078692Y-48675800D01*
X170050000Y-48672974D01*
X169935477Y-48684254D01*
X169825355Y-48717659D01*
X169723866Y-48771906D01*
X169657196Y-48826620D01*
X169657194Y-48826622D01*
X169634910Y-48844910D01*
X169616622Y-48867194D01*
X167387195Y-51096622D01*
X167364911Y-51114910D01*
X167346623Y-51137194D01*
X167346620Y-51137197D01*
X167341944Y-51142895D01*
X167291907Y-51203866D01*
X167267948Y-51248690D01*
X167237659Y-51305356D01*
X167204254Y-51415477D01*
X167192975Y-51530000D01*
X167195801Y-51558694D01*
X167195800Y-52374800D01*
X163389716Y-52374800D01*
X163410900Y-52268298D01*
X163410900Y-52125702D01*
X163410415Y-52123264D01*
X163425711Y-52110711D01*
X163473322Y-52052696D01*
X163508701Y-51986508D01*
X163530487Y-51914689D01*
X163537843Y-51840000D01*
X163537843Y-49090000D01*
X163530487Y-49015311D01*
X163508701Y-48943492D01*
X163473322Y-48877304D01*
X163425711Y-48819289D01*
X163367696Y-48771678D01*
X163301508Y-48736299D01*
X163229689Y-48714513D01*
X163155000Y-48707157D01*
X162155000Y-48707157D01*
X162080311Y-48714513D01*
X162008492Y-48736299D01*
X161942304Y-48771678D01*
X161884289Y-48819289D01*
X161836678Y-48877304D01*
X161801299Y-48943492D01*
X161779513Y-49015311D01*
X161772157Y-49090000D01*
X161772157Y-51840000D01*
X161779513Y-51914689D01*
X161801299Y-51986508D01*
X161836678Y-52052696D01*
X161884289Y-52110711D01*
X161942304Y-52158322D01*
X161963100Y-52169438D01*
X161963100Y-52268298D01*
X161984284Y-52374800D01*
X156578984Y-52374800D01*
X155142558Y-50938375D01*
X155155900Y-50871298D01*
X155155900Y-50728702D01*
X155128081Y-50588846D01*
X155073512Y-50457105D01*
X154994290Y-50338540D01*
X154893460Y-50237710D01*
X154774895Y-50158488D01*
X154643154Y-50103919D01*
X154503298Y-50076100D01*
X154360702Y-50076100D01*
X154220846Y-50103919D01*
X154089105Y-50158488D01*
X153970540Y-50237710D01*
X153943559Y-50264691D01*
X153909616Y-50201190D01*
X153837132Y-50112868D01*
X153811090Y-50091496D01*
X153800746Y-49986477D01*
X153800239Y-49984807D01*
X153767341Y-49876355D01*
X153713094Y-49774866D01*
X153640090Y-49685910D01*
X153617801Y-49667618D01*
X153468382Y-49518199D01*
X153450090Y-49495910D01*
X153361134Y-49422906D01*
X153259645Y-49368659D01*
X153149523Y-49335254D01*
X153063692Y-49326800D01*
X153063684Y-49326800D01*
X153035000Y-49323975D01*
X153006316Y-49326800D01*
X150396681Y-49326800D01*
X150367999Y-49323975D01*
X150339317Y-49326800D01*
X150339308Y-49326800D01*
X150253477Y-49335254D01*
X150143355Y-49368659D01*
X150041866Y-49422906D01*
X149952910Y-49495910D01*
X149934618Y-49518199D01*
X149467199Y-49985618D01*
X149444910Y-50003910D01*
X149371906Y-50092867D01*
X149336831Y-50158488D01*
X149317659Y-50194356D01*
X149284459Y-50303803D01*
X149284254Y-50304478D01*
X149275800Y-50390309D01*
X149275800Y-50390316D01*
X149272975Y-50419000D01*
X149275800Y-50447684D01*
X149275801Y-59321015D01*
X147689199Y-60907618D01*
X147666910Y-60925910D01*
X147593906Y-61014867D01*
X147544710Y-61106906D01*
X147539659Y-61116356D01*
X147508064Y-61220512D01*
X147506254Y-61226478D01*
X147497800Y-61312309D01*
X147497800Y-61312316D01*
X147494975Y-61341000D01*
X146456000Y-61341000D01*
X146456000Y-50054000D01*
X146828000Y-50054000D01*
X146828000Y-50276000D01*
X146871310Y-50493734D01*
X146956266Y-50698835D01*
X147079602Y-50883421D01*
X147236579Y-51040398D01*
X147421165Y-51163734D01*
X147626266Y-51248690D01*
X147844000Y-51292000D01*
X148066000Y-51292000D01*
X148283734Y-51248690D01*
X148488835Y-51163734D01*
X148673421Y-51040398D01*
X148830398Y-50883421D01*
X148953734Y-50698835D01*
X149038690Y-50493734D01*
X149082000Y-50276000D01*
X149082000Y-50054000D01*
X149038690Y-49836266D01*
X148953734Y-49631165D01*
X148830398Y-49446579D01*
X148673421Y-49289602D01*
X148488835Y-49166266D01*
X148283734Y-49081310D01*
X148066000Y-49038000D01*
X147844000Y-49038000D01*
X147626266Y-49081310D01*
X147421165Y-49166266D01*
X147236579Y-49289602D01*
X147079602Y-49446579D01*
X146956266Y-49631165D01*
X146871310Y-49836266D01*
X146828000Y-50054000D01*
X146456000Y-50054000D01*
X146456000Y-48666000D01*
X188824000Y-48666000D01*
X188824001Y-70714000D01*
G04 #@! TA.AperFunction,Conductor*
D24*
G36*
X188824001Y-70714000D02*
G01*
X185902446Y-70714000D01*
X186037826Y-70578620D01*
X186162913Y-70391413D01*
X186249075Y-70183401D01*
X186293000Y-69962576D01*
X186293000Y-69737424D01*
X186249075Y-69516599D01*
X186162913Y-69308587D01*
X186037826Y-69121380D01*
X185878620Y-68962174D01*
X185691413Y-68837087D01*
X185483401Y-68750925D01*
X185262576Y-68707000D01*
X185037424Y-68707000D01*
X184816599Y-68750925D01*
X184608587Y-68837087D01*
X184515927Y-68899000D01*
X183014136Y-68899000D01*
X183004616Y-68881190D01*
X182932132Y-68792868D01*
X182843810Y-68720384D01*
X182743044Y-68666523D01*
X182633707Y-68633356D01*
X182520000Y-68622157D01*
X181970000Y-68622157D01*
X181856293Y-68633356D01*
X181746956Y-68666523D01*
X181646190Y-68720384D01*
X181557868Y-68792868D01*
X181485384Y-68881190D01*
X181431523Y-68981956D01*
X181398356Y-69091293D01*
X181387157Y-69205000D01*
X181387157Y-69605000D01*
X181398356Y-69718707D01*
X181431523Y-69828044D01*
X181485384Y-69928810D01*
X181557868Y-70017132D01*
X181646190Y-70089616D01*
X181746956Y-70143477D01*
X181856293Y-70176644D01*
X181970000Y-70187843D01*
X182520000Y-70187843D01*
X182633707Y-70176644D01*
X182743044Y-70143477D01*
X182843810Y-70089616D01*
X182932132Y-70017132D01*
X183004616Y-69928810D01*
X183014136Y-69911000D01*
X184007000Y-69911000D01*
X184007000Y-69962576D01*
X184050925Y-70183401D01*
X184137087Y-70391413D01*
X184262174Y-70578620D01*
X184397554Y-70714000D01*
X146456000Y-70714000D01*
X146456000Y-61341000D01*
X147494975Y-61341000D01*
X147497800Y-61369684D01*
X147497801Y-68170306D01*
X147494975Y-68199000D01*
X147506254Y-68313523D01*
X147539659Y-68423644D01*
X147561589Y-68464671D01*
X147593907Y-68525134D01*
X147616113Y-68552192D01*
X147648620Y-68591803D01*
X147648623Y-68591806D01*
X147666911Y-68614090D01*
X147689194Y-68632377D01*
X148804622Y-69747806D01*
X148822910Y-69770090D01*
X148845194Y-69788378D01*
X148845196Y-69788380D01*
X148865187Y-69804785D01*
X148911866Y-69843094D01*
X149013355Y-69897341D01*
X149112595Y-69927445D01*
X149180190Y-70009810D01*
X149272301Y-70085403D01*
X149377389Y-70141574D01*
X149491416Y-70176163D01*
X149610000Y-70187843D01*
X150110000Y-70187843D01*
X150228584Y-70176163D01*
X150342611Y-70141574D01*
X150447699Y-70085403D01*
X150539810Y-70009810D01*
X150597758Y-69939200D01*
X150643816Y-69939200D01*
X150672500Y-69942025D01*
X150701184Y-69939200D01*
X150701192Y-69939200D01*
X150787023Y-69930746D01*
X150897145Y-69897341D01*
X150998634Y-69843094D01*
X151087590Y-69770090D01*
X151105882Y-69747801D01*
X151477850Y-69375833D01*
X151500272Y-69429963D01*
X151579494Y-69548528D01*
X151680324Y-69649358D01*
X151798889Y-69728580D01*
X151930630Y-69783149D01*
X152070486Y-69810968D01*
X152213082Y-69810968D01*
X152292157Y-69795239D01*
X152292157Y-69855000D01*
X152299513Y-69929689D01*
X152321299Y-70001508D01*
X152356678Y-70067696D01*
X152404289Y-70125711D01*
X152462304Y-70173322D01*
X152528492Y-70208701D01*
X152600311Y-70230487D01*
X152675000Y-70237843D01*
X153735000Y-70237843D01*
X153809689Y-70230487D01*
X153881508Y-70208701D01*
X153947696Y-70173322D01*
X154005711Y-70125711D01*
X154043989Y-70079069D01*
X154066167Y-70072341D01*
X154167656Y-70018094D01*
X154256612Y-69945090D01*
X154274904Y-69922801D01*
X155033506Y-69164200D01*
X155952017Y-69164200D01*
X156835622Y-70047806D01*
X156853910Y-70070090D01*
X156876194Y-70088378D01*
X156876196Y-70088380D01*
X156893289Y-70102407D01*
X156898317Y-70153462D01*
X156934329Y-70272179D01*
X156992810Y-70381589D01*
X157071512Y-70477488D01*
X157167411Y-70556190D01*
X157276821Y-70614671D01*
X157395538Y-70650683D01*
X157519000Y-70662843D01*
X159219000Y-70662843D01*
X159342462Y-70650683D01*
X159461179Y-70614671D01*
X159570589Y-70556190D01*
X159666488Y-70477488D01*
X159745190Y-70381589D01*
X159803671Y-70272179D01*
X159839683Y-70153462D01*
X159851843Y-70030000D01*
X159851843Y-69280000D01*
X159839683Y-69156538D01*
X159803671Y-69037821D01*
X159745190Y-68928411D01*
X159666488Y-68832512D01*
X159570589Y-68753810D01*
X159461179Y-68695329D01*
X159342462Y-68659317D01*
X159219000Y-68647157D01*
X157519000Y-68647157D01*
X157395538Y-68659317D01*
X157276821Y-68695329D01*
X157184734Y-68744551D01*
X156627382Y-68187199D01*
X156609090Y-68164910D01*
X156573863Y-68136000D01*
X156627154Y-68136000D01*
X156652000Y-68138447D01*
X156676846Y-68136000D01*
X156676854Y-68136000D01*
X156751193Y-68128678D01*
X156846575Y-68099745D01*
X156916230Y-68062513D01*
X156934329Y-68122179D01*
X156992810Y-68231589D01*
X157071512Y-68327488D01*
X157167411Y-68406190D01*
X157276821Y-68464671D01*
X157395538Y-68500683D01*
X157519000Y-68512843D01*
X159219000Y-68512843D01*
X159342462Y-68500683D01*
X159461179Y-68464671D01*
X159570589Y-68406190D01*
X159666488Y-68327488D01*
X159745190Y-68231589D01*
X159803671Y-68122179D01*
X159837396Y-68011000D01*
X160005409Y-68011000D01*
X161777157Y-69782749D01*
X161777157Y-70080000D01*
X161784513Y-70154689D01*
X161806299Y-70226508D01*
X161841678Y-70292696D01*
X161889289Y-70350711D01*
X161947304Y-70398322D01*
X162013492Y-70433701D01*
X162085311Y-70455487D01*
X162160000Y-70462843D01*
X162960000Y-70462843D01*
X163034689Y-70455487D01*
X163106508Y-70433701D01*
X163172696Y-70398322D01*
X163230711Y-70350711D01*
X163278322Y-70292696D01*
X163313701Y-70226508D01*
X163335487Y-70154689D01*
X163342843Y-70080000D01*
X163342843Y-69280000D01*
X163335487Y-69205311D01*
X163313701Y-69133492D01*
X163278322Y-69067304D01*
X163230711Y-69009289D01*
X163172696Y-68961678D01*
X163112790Y-68929657D01*
X163135575Y-68922745D01*
X163223479Y-68875759D01*
X163300527Y-68812527D01*
X163316376Y-68793215D01*
X163675220Y-68434372D01*
X163694527Y-68418527D01*
X163757759Y-68341479D01*
X163804745Y-68253575D01*
X163816689Y-68214200D01*
X163833678Y-68158194D01*
X163835864Y-68136000D01*
X163841000Y-68083854D01*
X163841000Y-68083847D01*
X163843447Y-68059001D01*
X163841000Y-68034155D01*
X163841000Y-66613591D01*
X164877157Y-67649749D01*
X164877157Y-68017000D01*
X164888837Y-68135584D01*
X164923426Y-68249611D01*
X164979597Y-68354699D01*
X165055190Y-68446810D01*
X165147301Y-68522403D01*
X165252389Y-68578574D01*
X165366416Y-68613163D01*
X165485000Y-68624843D01*
X165852251Y-68624843D01*
X166147628Y-68920220D01*
X166163473Y-68939527D01*
X166240521Y-69002759D01*
X166328425Y-69049745D01*
X166397836Y-69070800D01*
X166423806Y-69078678D01*
X166429655Y-69079254D01*
X166498146Y-69086000D01*
X166498153Y-69086000D01*
X166522999Y-69088447D01*
X166547845Y-69086000D01*
X170119736Y-69086000D01*
X170136678Y-69117696D01*
X170184289Y-69175711D01*
X170242304Y-69223322D01*
X170308492Y-69258701D01*
X170380311Y-69280487D01*
X170455000Y-69287843D01*
X171515000Y-69287843D01*
X171589689Y-69280487D01*
X171661508Y-69258701D01*
X171727696Y-69223322D01*
X171785711Y-69175711D01*
X171833322Y-69117696D01*
X171849954Y-69086580D01*
X171855846Y-69086000D01*
X171855854Y-69086000D01*
X171930193Y-69078678D01*
X172025575Y-69049745D01*
X172113479Y-69002759D01*
X172190527Y-68939527D01*
X172206376Y-68920215D01*
X172272157Y-68854434D01*
X172272157Y-68905000D01*
X172279513Y-68979689D01*
X172301299Y-69051508D01*
X172303166Y-69055000D01*
X172301299Y-69058492D01*
X172279513Y-69130311D01*
X172272157Y-69205000D01*
X172272157Y-69855000D01*
X172279513Y-69929689D01*
X172301299Y-70001508D01*
X172336678Y-70067696D01*
X172384289Y-70125711D01*
X172442304Y-70173322D01*
X172508492Y-70208701D01*
X172580311Y-70230487D01*
X172655000Y-70237843D01*
X173715000Y-70237843D01*
X173789689Y-70230487D01*
X173861508Y-70208701D01*
X173927696Y-70173322D01*
X173985711Y-70125711D01*
X174033322Y-70067696D01*
X174050264Y-70036000D01*
X174793154Y-70036000D01*
X174818000Y-70038447D01*
X174842846Y-70036000D01*
X174842854Y-70036000D01*
X174917193Y-70028678D01*
X175012575Y-69999745D01*
X175100479Y-69952759D01*
X175151362Y-69911000D01*
X175760864Y-69911000D01*
X175770384Y-69928810D01*
X175842868Y-70017132D01*
X175931190Y-70089616D01*
X176031956Y-70143477D01*
X176141293Y-70176644D01*
X176255000Y-70187843D01*
X176805000Y-70187843D01*
X176918707Y-70176644D01*
X177028044Y-70143477D01*
X177128810Y-70089616D01*
X177217132Y-70017132D01*
X177289616Y-69928810D01*
X177343477Y-69828044D01*
X177376644Y-69718707D01*
X177387843Y-69605000D01*
X177387843Y-69205000D01*
X177376644Y-69091293D01*
X177343477Y-68981956D01*
X177289616Y-68881190D01*
X177217132Y-68792868D01*
X177128810Y-68720384D01*
X177028044Y-68666523D01*
X176918707Y-68633356D01*
X176805000Y-68622157D01*
X176255000Y-68622157D01*
X176141293Y-68633356D01*
X176031956Y-68666523D01*
X175931190Y-68720384D01*
X175842868Y-68792868D01*
X175770384Y-68881190D01*
X175760864Y-68899000D01*
X174967854Y-68899000D01*
X174943000Y-68896552D01*
X174918146Y-68899000D01*
X174843807Y-68906322D01*
X174748425Y-68935255D01*
X174660521Y-68982241D01*
X174609638Y-69024000D01*
X174077045Y-69024000D01*
X174090487Y-68979689D01*
X174091192Y-68972532D01*
X174131408Y-68939527D01*
X174147257Y-68920215D01*
X174457220Y-68610253D01*
X174476527Y-68594408D01*
X174539759Y-68517360D01*
X174586745Y-68429456D01*
X174615678Y-68334074D01*
X174623000Y-68259735D01*
X174623000Y-68259727D01*
X174625447Y-68234881D01*
X174623000Y-68210035D01*
X174623000Y-67392591D01*
X174838220Y-67177372D01*
X174857527Y-67161527D01*
X174920759Y-67084479D01*
X174967745Y-66996575D01*
X174996678Y-66901193D01*
X175004000Y-66826854D01*
X175004000Y-66826847D01*
X175006447Y-66802001D01*
X175004000Y-66777155D01*
X175004000Y-65333702D01*
X175044100Y-65333702D01*
X175044100Y-65476298D01*
X175071919Y-65616154D01*
X175126488Y-65747895D01*
X175205710Y-65866460D01*
X175306540Y-65967290D01*
X175425105Y-66046512D01*
X175556846Y-66101081D01*
X175643001Y-66118218D01*
X175643000Y-67349153D01*
X175640553Y-67374000D01*
X175643000Y-67398846D01*
X175643000Y-67398853D01*
X175650322Y-67473192D01*
X175672888Y-67547583D01*
X175672157Y-67555000D01*
X175672157Y-67955000D01*
X175683356Y-68068707D01*
X175716523Y-68178044D01*
X175770384Y-68278810D01*
X175842868Y-68367132D01*
X175931190Y-68439616D01*
X176031956Y-68493477D01*
X176141293Y-68526644D01*
X176255000Y-68537843D01*
X176805000Y-68537843D01*
X176918707Y-68526644D01*
X177028044Y-68493477D01*
X177073836Y-68469000D01*
X177943000Y-68469000D01*
X177943000Y-68691000D01*
X177986310Y-68908734D01*
X178071266Y-69113835D01*
X178194602Y-69298421D01*
X178351579Y-69455398D01*
X178536165Y-69578734D01*
X178741266Y-69663690D01*
X178959000Y-69707000D01*
X179181000Y-69707000D01*
X179398734Y-69663690D01*
X179603835Y-69578734D01*
X179788421Y-69455398D01*
X179945398Y-69298421D01*
X180068734Y-69113835D01*
X180153690Y-68908734D01*
X180197000Y-68691000D01*
X180197000Y-68469000D01*
X180153690Y-68251266D01*
X180068734Y-68046165D01*
X179945398Y-67861579D01*
X179788421Y-67704602D01*
X179603835Y-67581266D01*
X179398734Y-67496310D01*
X179181000Y-67453000D01*
X178959000Y-67453000D01*
X178741266Y-67496310D01*
X178536165Y-67581266D01*
X178351579Y-67704602D01*
X178194602Y-67861579D01*
X178071266Y-68046165D01*
X177986310Y-68251266D01*
X177943000Y-68469000D01*
X177073836Y-68469000D01*
X177128810Y-68439616D01*
X177217132Y-68367132D01*
X177289616Y-68278810D01*
X177343477Y-68178044D01*
X177376644Y-68068707D01*
X177387843Y-67955000D01*
X177387843Y-67555000D01*
X177376644Y-67441293D01*
X177343477Y-67331956D01*
X177289616Y-67231190D01*
X177217132Y-67142868D01*
X177164392Y-67099585D01*
X177253895Y-67062512D01*
X177372460Y-66983290D01*
X177428750Y-66927000D01*
X180701409Y-66927000D01*
X181387157Y-67612749D01*
X181387157Y-67955000D01*
X181398356Y-68068707D01*
X181431523Y-68178044D01*
X181485384Y-68278810D01*
X181557868Y-68367132D01*
X181646190Y-68439616D01*
X181746956Y-68493477D01*
X181856293Y-68526644D01*
X181970000Y-68537843D01*
X182520000Y-68537843D01*
X182633707Y-68526644D01*
X182743044Y-68493477D01*
X182843810Y-68439616D01*
X182932132Y-68367132D01*
X183004616Y-68278810D01*
X183058477Y-68178044D01*
X183091644Y-68068707D01*
X183102843Y-67955000D01*
X183102843Y-67555000D01*
X183091644Y-67441293D01*
X183058477Y-67331956D01*
X183004616Y-67231190D01*
X182932132Y-67142868D01*
X182843810Y-67070384D01*
X182743044Y-67016523D01*
X182633707Y-66983356D01*
X182520000Y-66972157D01*
X182177749Y-66972157D01*
X181286376Y-66080785D01*
X181270527Y-66061473D01*
X181193479Y-65998241D01*
X181105575Y-65951255D01*
X181010193Y-65922322D01*
X180935854Y-65915000D01*
X180935846Y-65915000D01*
X180911000Y-65912553D01*
X180886154Y-65915000D01*
X177428750Y-65915000D01*
X177372460Y-65858710D01*
X177253895Y-65779488D01*
X177122154Y-65724919D01*
X176982298Y-65697100D01*
X176839702Y-65697100D01*
X176699846Y-65724919D01*
X176653330Y-65744187D01*
X176648504Y-65695192D01*
X176647678Y-65686806D01*
X176639229Y-65658953D01*
X176618745Y-65591425D01*
X176571759Y-65503521D01*
X176508527Y-65426473D01*
X176491900Y-65412828D01*
X176491900Y-65333702D01*
X176464081Y-65193846D01*
X176409512Y-65062105D01*
X176330290Y-64943540D01*
X176229460Y-64842710D01*
X176110895Y-64763488D01*
X175979154Y-64708919D01*
X175839298Y-64681100D01*
X175696702Y-64681100D01*
X175556846Y-64708919D01*
X175425105Y-64763488D01*
X175306540Y-64842710D01*
X175205710Y-64943540D01*
X175126488Y-65062105D01*
X175071919Y-65193846D01*
X175044100Y-65333702D01*
X175004000Y-65333702D01*
X175004000Y-59211591D01*
X175875565Y-58340027D01*
X175976346Y-58381772D01*
X176223833Y-58431000D01*
X176476167Y-58431000D01*
X176723654Y-58381772D01*
X176956781Y-58285207D01*
X177166590Y-58145018D01*
X177345018Y-57966590D01*
X177485207Y-57756781D01*
X177581772Y-57523654D01*
X177631000Y-57276167D01*
X177631000Y-57023833D01*
X177581772Y-56776346D01*
X177485207Y-56543219D01*
X177345018Y-56333410D01*
X177166590Y-56154982D01*
X176956781Y-56014793D01*
X176723654Y-55918228D01*
X176476167Y-55869000D01*
X176223833Y-55869000D01*
X175976346Y-55918228D01*
X175743219Y-56014793D01*
X175533410Y-56154982D01*
X175354982Y-56333410D01*
X175214793Y-56543219D01*
X175118228Y-56776346D01*
X175069000Y-57023833D01*
X175069000Y-57276167D01*
X175118228Y-57523654D01*
X175159973Y-57624435D01*
X174157781Y-58626628D01*
X174138474Y-58642473D01*
X174075242Y-58719521D01*
X174054601Y-58758138D01*
X174028255Y-58807426D01*
X173999322Y-58902808D01*
X173989553Y-59002000D01*
X173992001Y-59026856D01*
X173992000Y-64699760D01*
X173898188Y-64681100D01*
X173755592Y-64681100D01*
X173615736Y-64708919D01*
X173483995Y-64763488D01*
X173374944Y-64836353D01*
X172968376Y-64429785D01*
X172952527Y-64410473D01*
X172875479Y-64347241D01*
X172864301Y-64341266D01*
X172869843Y-64285000D01*
X172869843Y-63985000D01*
X172859605Y-63881047D01*
X172829283Y-63781090D01*
X172780043Y-63688968D01*
X172713777Y-63608223D01*
X172633032Y-63541957D01*
X172554536Y-63500000D01*
X172633032Y-63458043D01*
X172713777Y-63391777D01*
X172730828Y-63371000D01*
X172822154Y-63371000D01*
X172847000Y-63373447D01*
X172871846Y-63371000D01*
X172871854Y-63371000D01*
X172946193Y-63363678D01*
X173041575Y-63334745D01*
X173129479Y-63287759D01*
X173206527Y-63224527D01*
X173222376Y-63205215D01*
X173568220Y-62859372D01*
X173587527Y-62843527D01*
X173650759Y-62766479D01*
X173697745Y-62678575D01*
X173726678Y-62583193D01*
X173734000Y-62508854D01*
X173734000Y-62508847D01*
X173736447Y-62484001D01*
X173734000Y-62459155D01*
X173734000Y-59437854D01*
X173736448Y-59413000D01*
X173726678Y-59313807D01*
X173697745Y-59218425D01*
X173686065Y-59196574D01*
X173650759Y-59130521D01*
X173587527Y-59053473D01*
X173568220Y-59037628D01*
X173462843Y-58932251D01*
X173462843Y-58410000D01*
X173455487Y-58335311D01*
X173433701Y-58263492D01*
X173398322Y-58197304D01*
X173350711Y-58139289D01*
X173292696Y-58091678D01*
X173226508Y-58056299D01*
X173154689Y-58034513D01*
X173080000Y-58027157D01*
X172020000Y-58027157D01*
X171956000Y-58033460D01*
X171956000Y-57536540D01*
X172020000Y-57542843D01*
X173080000Y-57542843D01*
X173154689Y-57535487D01*
X173226508Y-57513701D01*
X173292696Y-57478322D01*
X173350711Y-57430711D01*
X173398322Y-57372696D01*
X173433701Y-57306508D01*
X173455487Y-57234689D01*
X173462843Y-57160000D01*
X173462843Y-56510000D01*
X173455487Y-56435311D01*
X173433701Y-56363492D01*
X173398322Y-56297304D01*
X173350711Y-56239289D01*
X173292696Y-56191678D01*
X173226508Y-56156299D01*
X173154689Y-56134513D01*
X173080000Y-56127157D01*
X173057774Y-56127157D01*
X173056000Y-56109146D01*
X173056000Y-54534854D01*
X173058448Y-54510000D01*
X173048678Y-54410807D01*
X173019745Y-54315425D01*
X173003323Y-54284702D01*
X172972759Y-54227521D01*
X172909527Y-54150473D01*
X172890220Y-54134628D01*
X172556000Y-53800409D01*
X172556000Y-53191942D01*
X172723161Y-53080249D01*
X172870249Y-52933161D01*
X172985815Y-52760204D01*
X173065419Y-52568024D01*
X173106000Y-52364007D01*
X173106000Y-52155993D01*
X173065419Y-51951976D01*
X172985815Y-51759796D01*
X172870249Y-51586839D01*
X172723161Y-51439751D01*
X172550204Y-51324185D01*
X172358024Y-51244581D01*
X172154007Y-51204000D01*
X171945993Y-51204000D01*
X171741976Y-51244581D01*
X171549796Y-51324185D01*
X171376839Y-51439751D01*
X171229751Y-51586839D01*
X171114185Y-51759796D01*
X171050000Y-51914751D01*
X170985815Y-51759796D01*
X170870249Y-51586839D01*
X170723161Y-51439751D01*
X170550204Y-51324185D01*
X170358024Y-51244581D01*
X170154007Y-51204000D01*
X169945993Y-51204000D01*
X169741976Y-51244581D01*
X169549796Y-51324185D01*
X169376839Y-51439751D01*
X169229751Y-51586839D01*
X169114185Y-51759796D01*
X169034581Y-51951976D01*
X168994000Y-52155993D01*
X168994000Y-52364007D01*
X169034581Y-52568024D01*
X169114185Y-52760204D01*
X169229751Y-52933161D01*
X169376839Y-53080249D01*
X169549796Y-53195815D01*
X169741976Y-53275419D01*
X169945993Y-53316000D01*
X170154007Y-53316000D01*
X170358024Y-53275419D01*
X170550204Y-53195815D01*
X170723161Y-53080249D01*
X170870249Y-52933161D01*
X170985815Y-52760204D01*
X171050000Y-52605249D01*
X171114185Y-52760204D01*
X171229751Y-52933161D01*
X171376839Y-53080249D01*
X171544000Y-53191943D01*
X171544000Y-53985153D01*
X171541553Y-54010000D01*
X171544000Y-54034846D01*
X171544000Y-54034853D01*
X171551322Y-54109192D01*
X171580255Y-54204574D01*
X171627241Y-54292479D01*
X171690473Y-54369527D01*
X171709785Y-54385376D01*
X172044001Y-54719593D01*
X172044000Y-55628000D01*
X169505854Y-55628000D01*
X169481000Y-55625552D01*
X169456146Y-55628000D01*
X169381807Y-55635322D01*
X169286425Y-55664255D01*
X169198521Y-55711241D01*
X169121473Y-55774473D01*
X169105628Y-55793780D01*
X167972252Y-56927157D01*
X167630000Y-56927157D01*
X167516293Y-56938356D01*
X167406956Y-56971523D01*
X167306190Y-57025384D01*
X167217868Y-57097868D01*
X167145384Y-57186190D01*
X167091523Y-57286956D01*
X167058356Y-57396293D01*
X167047157Y-57510000D01*
X167047157Y-57823084D01*
X166962843Y-57823084D01*
X166962843Y-57510000D01*
X166951644Y-57396293D01*
X166918477Y-57286956D01*
X166864616Y-57186190D01*
X166792132Y-57097868D01*
X166703810Y-57025384D01*
X166603044Y-56971523D01*
X166493707Y-56938356D01*
X166380000Y-56927157D01*
X165980000Y-56927157D01*
X165972583Y-56927887D01*
X165898193Y-56905322D01*
X165823854Y-56898000D01*
X165823846Y-56898000D01*
X165799000Y-56895553D01*
X165774154Y-56898000D01*
X164535242Y-56898000D01*
X164553900Y-56804198D01*
X164553900Y-56661602D01*
X164526081Y-56521746D01*
X164471512Y-56390005D01*
X164414200Y-56304231D01*
X164414200Y-54130681D01*
X164417025Y-54101999D01*
X164414200Y-54073317D01*
X164414200Y-54073308D01*
X164405746Y-53987477D01*
X164372341Y-53877355D01*
X164318094Y-53775866D01*
X164245090Y-53686910D01*
X164222802Y-53668619D01*
X164097383Y-53543200D01*
X167195801Y-53543200D01*
X167195800Y-54380242D01*
X167125190Y-54438190D01*
X167049597Y-54530301D01*
X166993426Y-54635389D01*
X166958837Y-54749416D01*
X166947157Y-54868000D01*
X166947157Y-55368000D01*
X166958837Y-55486584D01*
X166993426Y-55600611D01*
X167049597Y-55705699D01*
X167125190Y-55797810D01*
X167217301Y-55873403D01*
X167322389Y-55929574D01*
X167436416Y-55964163D01*
X167555000Y-55975843D01*
X168005000Y-55975843D01*
X168123584Y-55964163D01*
X168237611Y-55929574D01*
X168342699Y-55873403D01*
X168434810Y-55797810D01*
X168510403Y-55705699D01*
X168566574Y-55600611D01*
X168601163Y-55486584D01*
X168612843Y-55368000D01*
X168612843Y-54868000D01*
X168601163Y-54749416D01*
X168566574Y-54635389D01*
X168510403Y-54530301D01*
X168434810Y-54438190D01*
X168364200Y-54380242D01*
X168364200Y-53018691D01*
X168367026Y-52990000D01*
X168364200Y-52961308D01*
X168364200Y-51771983D01*
X170291984Y-49844200D01*
X176465801Y-49844200D01*
X176465800Y-54847316D01*
X176462975Y-54876000D01*
X176465800Y-54904684D01*
X176465800Y-54904691D01*
X176473190Y-54979717D01*
X176474254Y-54990523D01*
X176482725Y-55018448D01*
X176507659Y-55100644D01*
X176561906Y-55202133D01*
X176634910Y-55291090D01*
X176657199Y-55309382D01*
X177965801Y-56617984D01*
X177965800Y-59788016D01*
X176746235Y-61007581D01*
X176723654Y-60998228D01*
X176476167Y-60949000D01*
X176223833Y-60949000D01*
X175976346Y-60998228D01*
X175743219Y-61094793D01*
X175533410Y-61234982D01*
X175354982Y-61413410D01*
X175214793Y-61623219D01*
X175118228Y-61856346D01*
X175069000Y-62103833D01*
X175069000Y-62356167D01*
X175118228Y-62603654D01*
X175214793Y-62836781D01*
X175354982Y-63046590D01*
X175533410Y-63225018D01*
X175743219Y-63365207D01*
X175976346Y-63461772D01*
X176223833Y-63511000D01*
X176476167Y-63511000D01*
X176723654Y-63461772D01*
X176956781Y-63365207D01*
X177032313Y-63314738D01*
X183109000Y-63314738D01*
X183109000Y-63685262D01*
X183181286Y-64048667D01*
X183323080Y-64390987D01*
X183528932Y-64699067D01*
X183790933Y-64961068D01*
X184099013Y-65166920D01*
X184441333Y-65308714D01*
X184804738Y-65381000D01*
X185175262Y-65381000D01*
X185538667Y-65308714D01*
X185880987Y-65166920D01*
X186189067Y-64961068D01*
X186451068Y-64699067D01*
X186656920Y-64390987D01*
X186798714Y-64048667D01*
X186871000Y-63685262D01*
X186871000Y-63314738D01*
X186798714Y-62951333D01*
X186656920Y-62609013D01*
X186451068Y-62300933D01*
X186189067Y-62038932D01*
X185880987Y-61833080D01*
X185538667Y-61691286D01*
X185175262Y-61619000D01*
X184804738Y-61619000D01*
X184441333Y-61691286D01*
X184099013Y-61833080D01*
X183790933Y-62038932D01*
X183528932Y-62300933D01*
X183323080Y-62609013D01*
X183181286Y-62951333D01*
X183109000Y-63314738D01*
X177032313Y-63314738D01*
X177166590Y-63225018D01*
X177345018Y-63046590D01*
X177485207Y-62836781D01*
X177581772Y-62603654D01*
X177631000Y-62356167D01*
X177631000Y-62103833D01*
X177581772Y-61856346D01*
X177572419Y-61833765D01*
X178942807Y-60463377D01*
X178965090Y-60445090D01*
X179003412Y-60398395D01*
X179038094Y-60356134D01*
X179092341Y-60254645D01*
X179125746Y-60144523D01*
X179137026Y-60030000D01*
X179134200Y-60001308D01*
X179134200Y-56404681D01*
X179137025Y-56375999D01*
X179134200Y-56347317D01*
X179134200Y-56347308D01*
X179125746Y-56261477D01*
X179092341Y-56151355D01*
X179038094Y-56049866D01*
X178965090Y-55960910D01*
X178942801Y-55942618D01*
X178694921Y-55694738D01*
X183109000Y-55694738D01*
X183109000Y-56065262D01*
X183181286Y-56428667D01*
X183323080Y-56770987D01*
X183528932Y-57079067D01*
X183790933Y-57341068D01*
X184099013Y-57546920D01*
X184441333Y-57688714D01*
X184804738Y-57761000D01*
X185175262Y-57761000D01*
X185538667Y-57688714D01*
X185880987Y-57546920D01*
X186189067Y-57341068D01*
X186451068Y-57079067D01*
X186656920Y-56770987D01*
X186798714Y-56428667D01*
X186871000Y-56065262D01*
X186871000Y-55694738D01*
X186798714Y-55331333D01*
X186656920Y-54989013D01*
X186451068Y-54680933D01*
X186189067Y-54418932D01*
X185880987Y-54213080D01*
X185538667Y-54071286D01*
X185175262Y-53999000D01*
X184804738Y-53999000D01*
X184441333Y-54071286D01*
X184099013Y-54213080D01*
X183790933Y-54418932D01*
X183528932Y-54680933D01*
X183323080Y-54989013D01*
X183181286Y-55331333D01*
X183109000Y-55694738D01*
X178694921Y-55694738D01*
X177634200Y-54634017D01*
X177634200Y-49844200D01*
X178471910Y-49844200D01*
X178351579Y-49924602D01*
X178194602Y-50081579D01*
X178071266Y-50266165D01*
X177986310Y-50471266D01*
X177943000Y-50689000D01*
X177943000Y-50911000D01*
X177986310Y-51128734D01*
X178071266Y-51333835D01*
X178194602Y-51518421D01*
X178351579Y-51675398D01*
X178536165Y-51798734D01*
X178741266Y-51883690D01*
X178959000Y-51927000D01*
X179181000Y-51927000D01*
X179398734Y-51883690D01*
X179603835Y-51798734D01*
X179788421Y-51675398D01*
X179945398Y-51518421D01*
X180007819Y-51425000D01*
X181387157Y-51425000D01*
X181387157Y-51825000D01*
X181398356Y-51938707D01*
X181431523Y-52048044D01*
X181485384Y-52148810D01*
X181557868Y-52237132D01*
X181646190Y-52309616D01*
X181746956Y-52363477D01*
X181856293Y-52396644D01*
X181970000Y-52407843D01*
X182520000Y-52407843D01*
X182633707Y-52396644D01*
X182743044Y-52363477D01*
X182843810Y-52309616D01*
X182932132Y-52237132D01*
X183004616Y-52148810D01*
X183014136Y-52131000D01*
X184007000Y-52131000D01*
X184007000Y-52182576D01*
X184050925Y-52403401D01*
X184137087Y-52611413D01*
X184262174Y-52798620D01*
X184421380Y-52957826D01*
X184608587Y-53082913D01*
X184816599Y-53169075D01*
X185037424Y-53213000D01*
X185262576Y-53213000D01*
X185483401Y-53169075D01*
X185691413Y-53082913D01*
X185878620Y-52957826D01*
X186037826Y-52798620D01*
X186162913Y-52611413D01*
X186249075Y-52403401D01*
X186293000Y-52182576D01*
X186293000Y-51957424D01*
X186249075Y-51736599D01*
X186162913Y-51528587D01*
X186037826Y-51341380D01*
X185878620Y-51182174D01*
X185691413Y-51057087D01*
X185483401Y-50970925D01*
X185262576Y-50927000D01*
X185037424Y-50927000D01*
X184816599Y-50970925D01*
X184608587Y-51057087D01*
X184515927Y-51119000D01*
X183014136Y-51119000D01*
X183004616Y-51101190D01*
X182932132Y-51012868D01*
X182843810Y-50940384D01*
X182743044Y-50886523D01*
X182633707Y-50853356D01*
X182520000Y-50842157D01*
X181970000Y-50842157D01*
X181856293Y-50853356D01*
X181746956Y-50886523D01*
X181646190Y-50940384D01*
X181557868Y-51012868D01*
X181485384Y-51101190D01*
X181431523Y-51201956D01*
X181398356Y-51311293D01*
X181387157Y-51425000D01*
X180007819Y-51425000D01*
X180068734Y-51333835D01*
X180153690Y-51128734D01*
X180197000Y-50911000D01*
X180197000Y-50689000D01*
X180153690Y-50471266D01*
X180068734Y-50266165D01*
X179945398Y-50081579D01*
X179788421Y-49924602D01*
X179668090Y-49844200D01*
X180308017Y-49844200D01*
X180831622Y-50367806D01*
X180849910Y-50390090D01*
X180872194Y-50408378D01*
X180872196Y-50408380D01*
X180938866Y-50463094D01*
X181040355Y-50517341D01*
X181150477Y-50550746D01*
X181265000Y-50562026D01*
X181293692Y-50559200D01*
X181534945Y-50559200D01*
X181557868Y-50587132D01*
X181646190Y-50659616D01*
X181746956Y-50713477D01*
X181856293Y-50746644D01*
X181970000Y-50757843D01*
X182520000Y-50757843D01*
X182633707Y-50746644D01*
X182743044Y-50713477D01*
X182843810Y-50659616D01*
X182932132Y-50587132D01*
X183004616Y-50498810D01*
X183058477Y-50398044D01*
X183091644Y-50288707D01*
X183102843Y-50175000D01*
X183102843Y-49775000D01*
X183091644Y-49661293D01*
X183058477Y-49551956D01*
X183004616Y-49451190D01*
X182932132Y-49362868D01*
X182843810Y-49290384D01*
X182743044Y-49236523D01*
X182633707Y-49203356D01*
X182520000Y-49192157D01*
X181970000Y-49192157D01*
X181856293Y-49203356D01*
X181746956Y-49236523D01*
X181646190Y-49290384D01*
X181557868Y-49362868D01*
X181534945Y-49390800D01*
X181506984Y-49390800D01*
X180983382Y-48867199D01*
X180965090Y-48844910D01*
X180876134Y-48771906D01*
X180774645Y-48717659D01*
X180664523Y-48684254D01*
X180578692Y-48675800D01*
X180578684Y-48675800D01*
X180550000Y-48672975D01*
X180521316Y-48675800D01*
X177078692Y-48675800D01*
X177050000Y-48672974D01*
X177021309Y-48675800D01*
X170078692Y-48675800D01*
X170050000Y-48672974D01*
X169935477Y-48684254D01*
X169825355Y-48717659D01*
X169723866Y-48771906D01*
X169657196Y-48826620D01*
X169657194Y-48826622D01*
X169634910Y-48844910D01*
X169616622Y-48867194D01*
X167387195Y-51096622D01*
X167364911Y-51114910D01*
X167346623Y-51137194D01*
X167346620Y-51137197D01*
X167341944Y-51142895D01*
X167291907Y-51203866D01*
X167267948Y-51248690D01*
X167237659Y-51305356D01*
X167204254Y-51415477D01*
X167192975Y-51530000D01*
X167195801Y-51558694D01*
X167195800Y-52374800D01*
X163389716Y-52374800D01*
X163410900Y-52268298D01*
X163410900Y-52125702D01*
X163410415Y-52123264D01*
X163425711Y-52110711D01*
X163473322Y-52052696D01*
X163508701Y-51986508D01*
X163530487Y-51914689D01*
X163537843Y-51840000D01*
X163537843Y-49090000D01*
X163530487Y-49015311D01*
X163508701Y-48943492D01*
X163473322Y-48877304D01*
X163425711Y-48819289D01*
X163367696Y-48771678D01*
X163301508Y-48736299D01*
X163229689Y-48714513D01*
X163155000Y-48707157D01*
X162155000Y-48707157D01*
X162080311Y-48714513D01*
X162008492Y-48736299D01*
X161942304Y-48771678D01*
X161884289Y-48819289D01*
X161836678Y-48877304D01*
X161801299Y-48943492D01*
X161779513Y-49015311D01*
X161772157Y-49090000D01*
X161772157Y-51840000D01*
X161779513Y-51914689D01*
X161801299Y-51986508D01*
X161836678Y-52052696D01*
X161884289Y-52110711D01*
X161942304Y-52158322D01*
X161963100Y-52169438D01*
X161963100Y-52268298D01*
X161984284Y-52374800D01*
X156578984Y-52374800D01*
X155142558Y-50938375D01*
X155155900Y-50871298D01*
X155155900Y-50728702D01*
X155128081Y-50588846D01*
X155073512Y-50457105D01*
X154994290Y-50338540D01*
X154893460Y-50237710D01*
X154774895Y-50158488D01*
X154643154Y-50103919D01*
X154503298Y-50076100D01*
X154360702Y-50076100D01*
X154220846Y-50103919D01*
X154089105Y-50158488D01*
X153970540Y-50237710D01*
X153943559Y-50264691D01*
X153909616Y-50201190D01*
X153837132Y-50112868D01*
X153811090Y-50091496D01*
X153800746Y-49986477D01*
X153800239Y-49984807D01*
X153767341Y-49876355D01*
X153713094Y-49774866D01*
X153640090Y-49685910D01*
X153617801Y-49667618D01*
X153468382Y-49518199D01*
X153450090Y-49495910D01*
X153361134Y-49422906D01*
X153259645Y-49368659D01*
X153149523Y-49335254D01*
X153063692Y-49326800D01*
X153063684Y-49326800D01*
X153035000Y-49323975D01*
X153006316Y-49326800D01*
X150396681Y-49326800D01*
X150367999Y-49323975D01*
X150339317Y-49326800D01*
X150339308Y-49326800D01*
X150253477Y-49335254D01*
X150143355Y-49368659D01*
X150041866Y-49422906D01*
X149952910Y-49495910D01*
X149934618Y-49518199D01*
X149467199Y-49985618D01*
X149444910Y-50003910D01*
X149371906Y-50092867D01*
X149336831Y-50158488D01*
X149317659Y-50194356D01*
X149284459Y-50303803D01*
X149284254Y-50304478D01*
X149275800Y-50390309D01*
X149275800Y-50390316D01*
X149272975Y-50419000D01*
X149275800Y-50447684D01*
X149275801Y-59321015D01*
X147689199Y-60907618D01*
X147666910Y-60925910D01*
X147593906Y-61014867D01*
X147544710Y-61106906D01*
X147539659Y-61116356D01*
X147508064Y-61220512D01*
X147506254Y-61226478D01*
X147497800Y-61312309D01*
X147497800Y-61312316D01*
X147494975Y-61341000D01*
X146456000Y-61341000D01*
X146456000Y-50054000D01*
X146828000Y-50054000D01*
X146828000Y-50276000D01*
X146871310Y-50493734D01*
X146956266Y-50698835D01*
X147079602Y-50883421D01*
X147236579Y-51040398D01*
X147421165Y-51163734D01*
X147626266Y-51248690D01*
X147844000Y-51292000D01*
X148066000Y-51292000D01*
X148283734Y-51248690D01*
X148488835Y-51163734D01*
X148673421Y-51040398D01*
X148830398Y-50883421D01*
X148953734Y-50698835D01*
X149038690Y-50493734D01*
X149082000Y-50276000D01*
X149082000Y-50054000D01*
X149038690Y-49836266D01*
X148953734Y-49631165D01*
X148830398Y-49446579D01*
X148673421Y-49289602D01*
X148488835Y-49166266D01*
X148283734Y-49081310D01*
X148066000Y-49038000D01*
X147844000Y-49038000D01*
X147626266Y-49081310D01*
X147421165Y-49166266D01*
X147236579Y-49289602D01*
X147079602Y-49446579D01*
X146956266Y-49631165D01*
X146871310Y-49836266D01*
X146828000Y-50054000D01*
X146456000Y-50054000D01*
X146456000Y-48666000D01*
X188824000Y-48666000D01*
X188824001Y-70714000D01*
G37*
G04 #@! TD.AperFunction*
D23*
X165924628Y-59600220D02*
X165940473Y-59619527D01*
X166017521Y-59682759D01*
X166105425Y-59729745D01*
X166200807Y-59758678D01*
X166275146Y-59766000D01*
X166275154Y-59766000D01*
X166300000Y-59768447D01*
X166324846Y-59766000D01*
X166864817Y-59766000D01*
X165942195Y-60688622D01*
X165919911Y-60706910D01*
X165901623Y-60729194D01*
X165901620Y-60729197D01*
X165881287Y-60753974D01*
X165846907Y-60795866D01*
X165792659Y-60897355D01*
X165788169Y-60912157D01*
X165751341Y-60912157D01*
X165131494Y-60292310D01*
X165161456Y-60272290D01*
X165262286Y-60171460D01*
X165341508Y-60052895D01*
X165396077Y-59921154D01*
X165423896Y-59781298D01*
X165423896Y-59638702D01*
X165396077Y-59498846D01*
X165341508Y-59367105D01*
X165262286Y-59248540D01*
X165161456Y-59147710D01*
X165042891Y-59068488D01*
X164911150Y-59013919D01*
X164771294Y-58986100D01*
X164628698Y-58986100D01*
X164488842Y-59013919D01*
X164357101Y-59068488D01*
X164301259Y-59105800D01*
X164067273Y-59105800D01*
X164065403Y-59102301D01*
X163989810Y-59010190D01*
X163897699Y-58934597D01*
X163792611Y-58878426D01*
X163678584Y-58843837D01*
X163560000Y-58832157D01*
X163110000Y-58832157D01*
X162991416Y-58843837D01*
X162877389Y-58878426D01*
X162772301Y-58934597D01*
X162680190Y-59010190D01*
X162604597Y-59102301D01*
X162548426Y-59207389D01*
X162513837Y-59321416D01*
X162502157Y-59440000D01*
X162502157Y-59940000D01*
X162513837Y-60058584D01*
X162548426Y-60172611D01*
X162604597Y-60277699D01*
X162680190Y-60369810D01*
X162772301Y-60445403D01*
X162877389Y-60501574D01*
X162991416Y-60536163D01*
X163110000Y-60547843D01*
X163560000Y-60547843D01*
X163678584Y-60536163D01*
X163712647Y-60525830D01*
X165174622Y-61987806D01*
X165192910Y-62010090D01*
X165215194Y-62028378D01*
X165215196Y-62028380D01*
X165281866Y-62083094D01*
X165371404Y-62130953D01*
X165440968Y-62188043D01*
X165519464Y-62230000D01*
X165440968Y-62271957D01*
X165360223Y-62338223D01*
X165293957Y-62418968D01*
X165244717Y-62511090D01*
X165214395Y-62611047D01*
X165204157Y-62715000D01*
X165204157Y-63015000D01*
X165214395Y-63118953D01*
X165244717Y-63218910D01*
X165293957Y-63311032D01*
X165360223Y-63391777D01*
X165440968Y-63458043D01*
X165519464Y-63500000D01*
X165440968Y-63541957D01*
X165360223Y-63608223D01*
X165293957Y-63688968D01*
X165244717Y-63781090D01*
X165214395Y-63881047D01*
X165204157Y-63985000D01*
X165204157Y-64285000D01*
X165214395Y-64388953D01*
X165244717Y-64488910D01*
X165293957Y-64581032D01*
X165360223Y-64661777D01*
X165440968Y-64728043D01*
X165519464Y-64770000D01*
X165440968Y-64811957D01*
X165360223Y-64878223D01*
X165293957Y-64958968D01*
X165244717Y-65051090D01*
X165214395Y-65151047D01*
X165204157Y-65255000D01*
X165204157Y-65555000D01*
X165214395Y-65658953D01*
X165244717Y-65758910D01*
X165293957Y-65851032D01*
X165360223Y-65931777D01*
X165440968Y-65998043D01*
X165533090Y-66047283D01*
X165633047Y-66077605D01*
X165737000Y-66087843D01*
X167134001Y-66087843D01*
X167134000Y-67020775D01*
X167041190Y-67070384D01*
X166952868Y-67142868D01*
X166880384Y-67231190D01*
X166826523Y-67331956D01*
X166793356Y-67441293D01*
X166782157Y-67555000D01*
X166782157Y-67955000D01*
X166793356Y-68068707D01*
X166794962Y-68074000D01*
X166732592Y-68074000D01*
X166592843Y-67934251D01*
X166592843Y-67567000D01*
X166581163Y-67448416D01*
X166546574Y-67334389D01*
X166490403Y-67229301D01*
X166414810Y-67137190D01*
X166322699Y-67061597D01*
X166217611Y-67005426D01*
X166103584Y-66970837D01*
X165985000Y-66959157D01*
X165617749Y-66959157D01*
X164590000Y-65931409D01*
X164590000Y-64286845D01*
X164592447Y-64261999D01*
X164590000Y-64237153D01*
X164590000Y-64237146D01*
X164582678Y-64162807D01*
X164581783Y-64159854D01*
X164574107Y-64134553D01*
X164553745Y-64067425D01*
X164506759Y-63979521D01*
X164443527Y-63902473D01*
X164424220Y-63886628D01*
X164078376Y-63540785D01*
X164062527Y-63521473D01*
X163985479Y-63458241D01*
X163897575Y-63411255D01*
X163802193Y-63382322D01*
X163727854Y-63375000D01*
X163727846Y-63375000D01*
X163703000Y-63372553D01*
X163678154Y-63375000D01*
X163531592Y-63375000D01*
X162617843Y-62461252D01*
X162617843Y-61980000D01*
X162606163Y-61861416D01*
X162571574Y-61747389D01*
X162515403Y-61642301D01*
X162439810Y-61550190D01*
X162347699Y-61474597D01*
X162242611Y-61418426D01*
X162128584Y-61383837D01*
X162010000Y-61372157D01*
X161560000Y-61372157D01*
X161441416Y-61383837D01*
X161327389Y-61418426D01*
X161222301Y-61474597D01*
X161130190Y-61550190D01*
X161054597Y-61642301D01*
X160998426Y-61747389D01*
X160963837Y-61861416D01*
X160952157Y-61980000D01*
X160952157Y-62480000D01*
X160963837Y-62598584D01*
X160998426Y-62712611D01*
X161054597Y-62817699D01*
X161130190Y-62909810D01*
X161222301Y-62985403D01*
X161279001Y-63015710D01*
X161279000Y-63984290D01*
X161222301Y-64014597D01*
X161130190Y-64090190D01*
X161054597Y-64182301D01*
X161010928Y-64264000D01*
X160309224Y-64264000D01*
X160259616Y-64171190D01*
X160187132Y-64082868D01*
X160098810Y-64010384D01*
X159998044Y-63956523D01*
X159888707Y-63923356D01*
X159775000Y-63912157D01*
X159375000Y-63912157D01*
X159261293Y-63923356D01*
X159151956Y-63956523D01*
X159051190Y-64010384D01*
X158962868Y-64082868D01*
X158890384Y-64171190D01*
X158836523Y-64271956D01*
X158803356Y-64381293D01*
X158792157Y-64495000D01*
X158792157Y-65045000D01*
X158803356Y-65158707D01*
X158836523Y-65268044D01*
X158890384Y-65368810D01*
X158962868Y-65457132D01*
X159051190Y-65529616D01*
X159151956Y-65583477D01*
X159261293Y-65616644D01*
X159375000Y-65627843D01*
X159775000Y-65627843D01*
X159888707Y-65616644D01*
X159998044Y-65583477D01*
X160098810Y-65529616D01*
X160187132Y-65457132D01*
X160259616Y-65368810D01*
X160309224Y-65276000D01*
X161010928Y-65276000D01*
X161054597Y-65357699D01*
X161130190Y-65449810D01*
X161222301Y-65525403D01*
X161327389Y-65581574D01*
X161441416Y-65616163D01*
X161560000Y-65627843D01*
X161927251Y-65627843D01*
X162054000Y-65754592D01*
X162054001Y-66714011D01*
X162013492Y-66726299D01*
X161947304Y-66761678D01*
X161889289Y-66809289D01*
X161841678Y-66867304D01*
X161806299Y-66933492D01*
X161784513Y-67005311D01*
X161777157Y-67080000D01*
X161777157Y-67589565D01*
X160395376Y-66207785D01*
X160379527Y-66188473D01*
X160302479Y-66125241D01*
X160214575Y-66078255D01*
X160119193Y-66049322D01*
X160044854Y-66042000D01*
X160044846Y-66042000D01*
X160020000Y-66039553D01*
X159995154Y-66042000D01*
X159086592Y-66042000D01*
X158517684Y-65473093D01*
X158537132Y-65457132D01*
X158609616Y-65368810D01*
X158663477Y-65268044D01*
X158696644Y-65158707D01*
X158707843Y-65045000D01*
X158707843Y-64495000D01*
X158696644Y-64381293D01*
X158663477Y-64271956D01*
X158609616Y-64171190D01*
X158537132Y-64082868D01*
X158448810Y-64010384D01*
X158431000Y-64000864D01*
X158431000Y-62999136D01*
X158448810Y-62989616D01*
X158537132Y-62917132D01*
X158609616Y-62828810D01*
X158663477Y-62728044D01*
X158696644Y-62618707D01*
X158707843Y-62505000D01*
X158707843Y-61955000D01*
X158696644Y-61841293D01*
X158663477Y-61731956D01*
X158609616Y-61631190D01*
X158537132Y-61542868D01*
X158448810Y-61470384D01*
X158348044Y-61416523D01*
X158238707Y-61383356D01*
X158125000Y-61372157D01*
X157725000Y-61372157D01*
X157611293Y-61383356D01*
X157501956Y-61416523D01*
X157401190Y-61470384D01*
X157312868Y-61542868D01*
X157240384Y-61631190D01*
X157186523Y-61731956D01*
X157153356Y-61841293D01*
X157142157Y-61955000D01*
X157142157Y-62505000D01*
X157153356Y-62618707D01*
X157186523Y-62728044D01*
X157240384Y-62828810D01*
X157312868Y-62917132D01*
X157401190Y-62989616D01*
X157419000Y-62999136D01*
X157419000Y-63714853D01*
X157419001Y-63714863D01*
X157419001Y-64000864D01*
X157401190Y-64010384D01*
X157312868Y-64082868D01*
X157240384Y-64171190D01*
X157186523Y-64271956D01*
X157153356Y-64381293D01*
X157142157Y-64495000D01*
X157142157Y-65045000D01*
X157153356Y-65158707D01*
X157186523Y-65268044D01*
X157240384Y-65368810D01*
X157312868Y-65457132D01*
X157331767Y-65472642D01*
X156381409Y-66423000D01*
X152170845Y-66423000D01*
X152145999Y-66420553D01*
X152121153Y-66423000D01*
X152121146Y-66423000D01*
X152056694Y-66429348D01*
X152046806Y-66430322D01*
X152024607Y-66437056D01*
X151951425Y-66459255D01*
X151863521Y-66506241D01*
X151786473Y-66569473D01*
X151770629Y-66588779D01*
X151654461Y-66704947D01*
X151599895Y-66668488D01*
X151468154Y-66613919D01*
X151328298Y-66586100D01*
X151185702Y-66586100D01*
X151045846Y-66613919D01*
X150914105Y-66668488D01*
X150795540Y-66747710D01*
X150694710Y-66848540D01*
X150615488Y-66967105D01*
X150560919Y-67098846D01*
X150533100Y-67238702D01*
X150533100Y-67381298D01*
X150560919Y-67521154D01*
X150615488Y-67652895D01*
X150694710Y-67771460D01*
X150795540Y-67872290D01*
X150914105Y-67951512D01*
X151045846Y-68006081D01*
X151170451Y-68030866D01*
X150518563Y-68682754D01*
X150447699Y-68624597D01*
X150342611Y-68568426D01*
X150228584Y-68533837D01*
X150110000Y-68522157D01*
X149610000Y-68522157D01*
X149491416Y-68533837D01*
X149377389Y-68568426D01*
X149312366Y-68603182D01*
X148666200Y-67957017D01*
X148666200Y-61582983D01*
X150142563Y-60106621D01*
X150152255Y-60138574D01*
X150170449Y-60172611D01*
X150199242Y-60226479D01*
X150262474Y-60303527D01*
X150281780Y-60319371D01*
X151262628Y-61300220D01*
X151278473Y-61319527D01*
X151355521Y-61382759D01*
X151443425Y-61429745D01*
X151538807Y-61458678D01*
X151613146Y-61466000D01*
X151613154Y-61466000D01*
X151638000Y-61468447D01*
X151662846Y-61466000D01*
X151932528Y-61466000D01*
X151969682Y-61521605D01*
X152092395Y-61644318D01*
X152236690Y-61740732D01*
X152397022Y-61807144D01*
X152567229Y-61841000D01*
X152740771Y-61841000D01*
X152910978Y-61807144D01*
X152996157Y-61771862D01*
X152996157Y-62730000D01*
X153003513Y-62804689D01*
X153025299Y-62876508D01*
X153060678Y-62942696D01*
X153108289Y-63000711D01*
X153166304Y-63048322D01*
X153232492Y-63083701D01*
X153304311Y-63105487D01*
X153379000Y-63112843D01*
X154469000Y-63112843D01*
X154543689Y-63105487D01*
X154615508Y-63083701D01*
X154681696Y-63048322D01*
X154739711Y-63000711D01*
X154787322Y-62942696D01*
X154822701Y-62876508D01*
X154844487Y-62804689D01*
X154851843Y-62730000D01*
X154851843Y-61730000D01*
X154844487Y-61655311D01*
X154822701Y-61583492D01*
X154787322Y-61517304D01*
X154745218Y-61466000D01*
X155931154Y-61466000D01*
X155956000Y-61468447D01*
X155980846Y-61466000D01*
X155980854Y-61466000D01*
X156055193Y-61458678D01*
X156150575Y-61429745D01*
X156238479Y-61382759D01*
X156315527Y-61319527D01*
X156331376Y-61300215D01*
X159115592Y-58516000D01*
X164840409Y-58516000D01*
X165924628Y-59600220D01*
G04 #@! TA.AperFunction,Conductor*
D24*
G36*
X165924628Y-59600220D02*
G01*
X165940473Y-59619527D01*
X166017521Y-59682759D01*
X166105425Y-59729745D01*
X166200807Y-59758678D01*
X166275146Y-59766000D01*
X166275154Y-59766000D01*
X166300000Y-59768447D01*
X166324846Y-59766000D01*
X166864817Y-59766000D01*
X165942195Y-60688622D01*
X165919911Y-60706910D01*
X165901623Y-60729194D01*
X165901620Y-60729197D01*
X165881287Y-60753974D01*
X165846907Y-60795866D01*
X165792659Y-60897355D01*
X165788169Y-60912157D01*
X165751341Y-60912157D01*
X165131494Y-60292310D01*
X165161456Y-60272290D01*
X165262286Y-60171460D01*
X165341508Y-60052895D01*
X165396077Y-59921154D01*
X165423896Y-59781298D01*
X165423896Y-59638702D01*
X165396077Y-59498846D01*
X165341508Y-59367105D01*
X165262286Y-59248540D01*
X165161456Y-59147710D01*
X165042891Y-59068488D01*
X164911150Y-59013919D01*
X164771294Y-58986100D01*
X164628698Y-58986100D01*
X164488842Y-59013919D01*
X164357101Y-59068488D01*
X164301259Y-59105800D01*
X164067273Y-59105800D01*
X164065403Y-59102301D01*
X163989810Y-59010190D01*
X163897699Y-58934597D01*
X163792611Y-58878426D01*
X163678584Y-58843837D01*
X163560000Y-58832157D01*
X163110000Y-58832157D01*
X162991416Y-58843837D01*
X162877389Y-58878426D01*
X162772301Y-58934597D01*
X162680190Y-59010190D01*
X162604597Y-59102301D01*
X162548426Y-59207389D01*
X162513837Y-59321416D01*
X162502157Y-59440000D01*
X162502157Y-59940000D01*
X162513837Y-60058584D01*
X162548426Y-60172611D01*
X162604597Y-60277699D01*
X162680190Y-60369810D01*
X162772301Y-60445403D01*
X162877389Y-60501574D01*
X162991416Y-60536163D01*
X163110000Y-60547843D01*
X163560000Y-60547843D01*
X163678584Y-60536163D01*
X163712647Y-60525830D01*
X165174622Y-61987806D01*
X165192910Y-62010090D01*
X165215194Y-62028378D01*
X165215196Y-62028380D01*
X165281866Y-62083094D01*
X165371404Y-62130953D01*
X165440968Y-62188043D01*
X165519464Y-62230000D01*
X165440968Y-62271957D01*
X165360223Y-62338223D01*
X165293957Y-62418968D01*
X165244717Y-62511090D01*
X165214395Y-62611047D01*
X165204157Y-62715000D01*
X165204157Y-63015000D01*
X165214395Y-63118953D01*
X165244717Y-63218910D01*
X165293957Y-63311032D01*
X165360223Y-63391777D01*
X165440968Y-63458043D01*
X165519464Y-63500000D01*
X165440968Y-63541957D01*
X165360223Y-63608223D01*
X165293957Y-63688968D01*
X165244717Y-63781090D01*
X165214395Y-63881047D01*
X165204157Y-63985000D01*
X165204157Y-64285000D01*
X165214395Y-64388953D01*
X165244717Y-64488910D01*
X165293957Y-64581032D01*
X165360223Y-64661777D01*
X165440968Y-64728043D01*
X165519464Y-64770000D01*
X165440968Y-64811957D01*
X165360223Y-64878223D01*
X165293957Y-64958968D01*
X165244717Y-65051090D01*
X165214395Y-65151047D01*
X165204157Y-65255000D01*
X165204157Y-65555000D01*
X165214395Y-65658953D01*
X165244717Y-65758910D01*
X165293957Y-65851032D01*
X165360223Y-65931777D01*
X165440968Y-65998043D01*
X165533090Y-66047283D01*
X165633047Y-66077605D01*
X165737000Y-66087843D01*
X167134001Y-66087843D01*
X167134000Y-67020775D01*
X167041190Y-67070384D01*
X166952868Y-67142868D01*
X166880384Y-67231190D01*
X166826523Y-67331956D01*
X166793356Y-67441293D01*
X166782157Y-67555000D01*
X166782157Y-67955000D01*
X166793356Y-68068707D01*
X166794962Y-68074000D01*
X166732592Y-68074000D01*
X166592843Y-67934251D01*
X166592843Y-67567000D01*
X166581163Y-67448416D01*
X166546574Y-67334389D01*
X166490403Y-67229301D01*
X166414810Y-67137190D01*
X166322699Y-67061597D01*
X166217611Y-67005426D01*
X166103584Y-66970837D01*
X165985000Y-66959157D01*
X165617749Y-66959157D01*
X164590000Y-65931409D01*
X164590000Y-64286845D01*
X164592447Y-64261999D01*
X164590000Y-64237153D01*
X164590000Y-64237146D01*
X164582678Y-64162807D01*
X164581783Y-64159854D01*
X164574107Y-64134553D01*
X164553745Y-64067425D01*
X164506759Y-63979521D01*
X164443527Y-63902473D01*
X164424220Y-63886628D01*
X164078376Y-63540785D01*
X164062527Y-63521473D01*
X163985479Y-63458241D01*
X163897575Y-63411255D01*
X163802193Y-63382322D01*
X163727854Y-63375000D01*
X163727846Y-63375000D01*
X163703000Y-63372553D01*
X163678154Y-63375000D01*
X163531592Y-63375000D01*
X162617843Y-62461252D01*
X162617843Y-61980000D01*
X162606163Y-61861416D01*
X162571574Y-61747389D01*
X162515403Y-61642301D01*
X162439810Y-61550190D01*
X162347699Y-61474597D01*
X162242611Y-61418426D01*
X162128584Y-61383837D01*
X162010000Y-61372157D01*
X161560000Y-61372157D01*
X161441416Y-61383837D01*
X161327389Y-61418426D01*
X161222301Y-61474597D01*
X161130190Y-61550190D01*
X161054597Y-61642301D01*
X160998426Y-61747389D01*
X160963837Y-61861416D01*
X160952157Y-61980000D01*
X160952157Y-62480000D01*
X160963837Y-62598584D01*
X160998426Y-62712611D01*
X161054597Y-62817699D01*
X161130190Y-62909810D01*
X161222301Y-62985403D01*
X161279001Y-63015710D01*
X161279000Y-63984290D01*
X161222301Y-64014597D01*
X161130190Y-64090190D01*
X161054597Y-64182301D01*
X161010928Y-64264000D01*
X160309224Y-64264000D01*
X160259616Y-64171190D01*
X160187132Y-64082868D01*
X160098810Y-64010384D01*
X159998044Y-63956523D01*
X159888707Y-63923356D01*
X159775000Y-63912157D01*
X159375000Y-63912157D01*
X159261293Y-63923356D01*
X159151956Y-63956523D01*
X159051190Y-64010384D01*
X158962868Y-64082868D01*
X158890384Y-64171190D01*
X158836523Y-64271956D01*
X158803356Y-64381293D01*
X158792157Y-64495000D01*
X158792157Y-65045000D01*
X158803356Y-65158707D01*
X158836523Y-65268044D01*
X158890384Y-65368810D01*
X158962868Y-65457132D01*
X159051190Y-65529616D01*
X159151956Y-65583477D01*
X159261293Y-65616644D01*
X159375000Y-65627843D01*
X159775000Y-65627843D01*
X159888707Y-65616644D01*
X159998044Y-65583477D01*
X160098810Y-65529616D01*
X160187132Y-65457132D01*
X160259616Y-65368810D01*
X160309224Y-65276000D01*
X161010928Y-65276000D01*
X161054597Y-65357699D01*
X161130190Y-65449810D01*
X161222301Y-65525403D01*
X161327389Y-65581574D01*
X161441416Y-65616163D01*
X161560000Y-65627843D01*
X161927251Y-65627843D01*
X162054000Y-65754592D01*
X162054001Y-66714011D01*
X162013492Y-66726299D01*
X161947304Y-66761678D01*
X161889289Y-66809289D01*
X161841678Y-66867304D01*
X161806299Y-66933492D01*
X161784513Y-67005311D01*
X161777157Y-67080000D01*
X161777157Y-67589565D01*
X160395376Y-66207785D01*
X160379527Y-66188473D01*
X160302479Y-66125241D01*
X160214575Y-66078255D01*
X160119193Y-66049322D01*
X160044854Y-66042000D01*
X160044846Y-66042000D01*
X160020000Y-66039553D01*
X159995154Y-66042000D01*
X159086592Y-66042000D01*
X158517684Y-65473093D01*
X158537132Y-65457132D01*
X158609616Y-65368810D01*
X158663477Y-65268044D01*
X158696644Y-65158707D01*
X158707843Y-65045000D01*
X158707843Y-64495000D01*
X158696644Y-64381293D01*
X158663477Y-64271956D01*
X158609616Y-64171190D01*
X158537132Y-64082868D01*
X158448810Y-64010384D01*
X158431000Y-64000864D01*
X158431000Y-62999136D01*
X158448810Y-62989616D01*
X158537132Y-62917132D01*
X158609616Y-62828810D01*
X158663477Y-62728044D01*
X158696644Y-62618707D01*
X158707843Y-62505000D01*
X158707843Y-61955000D01*
X158696644Y-61841293D01*
X158663477Y-61731956D01*
X158609616Y-61631190D01*
X158537132Y-61542868D01*
X158448810Y-61470384D01*
X158348044Y-61416523D01*
X158238707Y-61383356D01*
X158125000Y-61372157D01*
X157725000Y-61372157D01*
X157611293Y-61383356D01*
X157501956Y-61416523D01*
X157401190Y-61470384D01*
X157312868Y-61542868D01*
X157240384Y-61631190D01*
X157186523Y-61731956D01*
X157153356Y-61841293D01*
X157142157Y-61955000D01*
X157142157Y-62505000D01*
X157153356Y-62618707D01*
X157186523Y-62728044D01*
X157240384Y-62828810D01*
X157312868Y-62917132D01*
X157401190Y-62989616D01*
X157419000Y-62999136D01*
X157419000Y-63714853D01*
X157419001Y-63714863D01*
X157419001Y-64000864D01*
X157401190Y-64010384D01*
X157312868Y-64082868D01*
X157240384Y-64171190D01*
X157186523Y-64271956D01*
X157153356Y-64381293D01*
X157142157Y-64495000D01*
X157142157Y-65045000D01*
X157153356Y-65158707D01*
X157186523Y-65268044D01*
X157240384Y-65368810D01*
X157312868Y-65457132D01*
X157331767Y-65472642D01*
X156381409Y-66423000D01*
X152170845Y-66423000D01*
X152145999Y-66420553D01*
X152121153Y-66423000D01*
X152121146Y-66423000D01*
X152056694Y-66429348D01*
X152046806Y-66430322D01*
X152024607Y-66437056D01*
X151951425Y-66459255D01*
X151863521Y-66506241D01*
X151786473Y-66569473D01*
X151770629Y-66588779D01*
X151654461Y-66704947D01*
X151599895Y-66668488D01*
X151468154Y-66613919D01*
X151328298Y-66586100D01*
X151185702Y-66586100D01*
X151045846Y-66613919D01*
X150914105Y-66668488D01*
X150795540Y-66747710D01*
X150694710Y-66848540D01*
X150615488Y-66967105D01*
X150560919Y-67098846D01*
X150533100Y-67238702D01*
X150533100Y-67381298D01*
X150560919Y-67521154D01*
X150615488Y-67652895D01*
X150694710Y-67771460D01*
X150795540Y-67872290D01*
X150914105Y-67951512D01*
X151045846Y-68006081D01*
X151170451Y-68030866D01*
X150518563Y-68682754D01*
X150447699Y-68624597D01*
X150342611Y-68568426D01*
X150228584Y-68533837D01*
X150110000Y-68522157D01*
X149610000Y-68522157D01*
X149491416Y-68533837D01*
X149377389Y-68568426D01*
X149312366Y-68603182D01*
X148666200Y-67957017D01*
X148666200Y-61582983D01*
X150142563Y-60106621D01*
X150152255Y-60138574D01*
X150170449Y-60172611D01*
X150199242Y-60226479D01*
X150262474Y-60303527D01*
X150281780Y-60319371D01*
X151262628Y-61300220D01*
X151278473Y-61319527D01*
X151355521Y-61382759D01*
X151443425Y-61429745D01*
X151538807Y-61458678D01*
X151613146Y-61466000D01*
X151613154Y-61466000D01*
X151638000Y-61468447D01*
X151662846Y-61466000D01*
X151932528Y-61466000D01*
X151969682Y-61521605D01*
X152092395Y-61644318D01*
X152236690Y-61740732D01*
X152397022Y-61807144D01*
X152567229Y-61841000D01*
X152740771Y-61841000D01*
X152910978Y-61807144D01*
X152996157Y-61771862D01*
X152996157Y-62730000D01*
X153003513Y-62804689D01*
X153025299Y-62876508D01*
X153060678Y-62942696D01*
X153108289Y-63000711D01*
X153166304Y-63048322D01*
X153232492Y-63083701D01*
X153304311Y-63105487D01*
X153379000Y-63112843D01*
X154469000Y-63112843D01*
X154543689Y-63105487D01*
X154615508Y-63083701D01*
X154681696Y-63048322D01*
X154739711Y-63000711D01*
X154787322Y-62942696D01*
X154822701Y-62876508D01*
X154844487Y-62804689D01*
X154851843Y-62730000D01*
X154851843Y-61730000D01*
X154844487Y-61655311D01*
X154822701Y-61583492D01*
X154787322Y-61517304D01*
X154745218Y-61466000D01*
X155931154Y-61466000D01*
X155956000Y-61468447D01*
X155980846Y-61466000D01*
X155980854Y-61466000D01*
X156055193Y-61458678D01*
X156150575Y-61429745D01*
X156238479Y-61382759D01*
X156315527Y-61319527D01*
X156331376Y-61300215D01*
X159115592Y-58516000D01*
X164840409Y-58516000D01*
X165924628Y-59600220D01*
G37*
G04 #@! TD.AperFunction*
D23*
X171873492Y-59413701D02*
X171945311Y-59435487D01*
X172020000Y-59442843D01*
X172542251Y-59442843D01*
X172722001Y-59622593D01*
X172722000Y-62274408D01*
X172683244Y-62313165D01*
X172633032Y-62271957D01*
X172540910Y-62222717D01*
X172440953Y-62192395D01*
X172337000Y-62182157D01*
X170687000Y-62182157D01*
X170583047Y-62192395D01*
X170483090Y-62222717D01*
X170390968Y-62271957D01*
X170310223Y-62338223D01*
X170243957Y-62418968D01*
X170194717Y-62511090D01*
X170164395Y-62611047D01*
X170154157Y-62715000D01*
X170154157Y-62876014D01*
X170142893Y-62868488D01*
X170011152Y-62813919D01*
X169871296Y-62786100D01*
X169728700Y-62786100D01*
X169588844Y-62813919D01*
X169457103Y-62868488D01*
X169416000Y-62895952D01*
X169416000Y-61804591D01*
X171790220Y-59430372D01*
X171809527Y-59414527D01*
X171829502Y-59390187D01*
X171873492Y-59413701D01*
G04 #@! TA.AperFunction,Conductor*
D24*
G36*
X171873492Y-59413701D02*
G01*
X171945311Y-59435487D01*
X172020000Y-59442843D01*
X172542251Y-59442843D01*
X172722001Y-59622593D01*
X172722000Y-62274408D01*
X172683244Y-62313165D01*
X172633032Y-62271957D01*
X172540910Y-62222717D01*
X172440953Y-62192395D01*
X172337000Y-62182157D01*
X170687000Y-62182157D01*
X170583047Y-62192395D01*
X170483090Y-62222717D01*
X170390968Y-62271957D01*
X170310223Y-62338223D01*
X170243957Y-62418968D01*
X170194717Y-62511090D01*
X170164395Y-62611047D01*
X170154157Y-62715000D01*
X170154157Y-62876014D01*
X170142893Y-62868488D01*
X170011152Y-62813919D01*
X169871296Y-62786100D01*
X169728700Y-62786100D01*
X169588844Y-62813919D01*
X169457103Y-62868488D01*
X169416000Y-62895952D01*
X169416000Y-61804591D01*
X171790220Y-59430372D01*
X171809527Y-59414527D01*
X171829502Y-59390187D01*
X171873492Y-59413701D01*
G37*
G04 #@! TD.AperFunction*
D23*
X152442157Y-50525000D02*
X152442157Y-51075000D01*
X152453356Y-51188707D01*
X152486523Y-51298044D01*
X152540384Y-51398810D01*
X152612868Y-51487132D01*
X152701190Y-51559616D01*
X152801956Y-51613477D01*
X152911293Y-51646644D01*
X153025000Y-51657843D01*
X153193660Y-51657843D01*
X155522618Y-53986801D01*
X155540910Y-54009090D01*
X155629866Y-54082094D01*
X155731355Y-54136341D01*
X155841477Y-54169746D01*
X155927308Y-54178200D01*
X155927317Y-54178200D01*
X155955999Y-54181025D01*
X155984681Y-54178200D01*
X161984284Y-54178200D01*
X161963100Y-54284702D01*
X161963100Y-54427298D01*
X161978070Y-54502560D01*
X161942304Y-54521678D01*
X161884289Y-54569289D01*
X161836678Y-54627304D01*
X161801299Y-54693492D01*
X161779513Y-54765311D01*
X161772157Y-54840000D01*
X161772157Y-57504000D01*
X158930845Y-57504000D01*
X158905999Y-57501553D01*
X158881153Y-57504000D01*
X158881146Y-57504000D01*
X158806807Y-57511322D01*
X158711425Y-57540255D01*
X158623521Y-57587241D01*
X158546473Y-57650473D01*
X158530628Y-57669780D01*
X155746409Y-60454000D01*
X154645472Y-60454000D01*
X154608318Y-60398395D01*
X154534923Y-60325000D01*
X154608318Y-60251605D01*
X154704732Y-60107310D01*
X154771144Y-59946978D01*
X154805000Y-59776771D01*
X154805000Y-59603229D01*
X154771144Y-59433022D01*
X154704732Y-59272690D01*
X154608318Y-59128395D01*
X154534923Y-59055000D01*
X154608318Y-58981605D01*
X154704732Y-58837310D01*
X154771144Y-58676978D01*
X154805000Y-58506771D01*
X154805000Y-58333229D01*
X154771144Y-58163022D01*
X154704732Y-58002690D01*
X154608318Y-57858395D01*
X154534923Y-57785000D01*
X154608318Y-57711605D01*
X154704732Y-57567310D01*
X154771144Y-57406978D01*
X154805000Y-57236771D01*
X154805000Y-57063229D01*
X154771144Y-56893022D01*
X154704732Y-56732690D01*
X154608318Y-56588395D01*
X154485605Y-56465682D01*
X154341310Y-56369268D01*
X154180978Y-56302856D01*
X154010771Y-56269000D01*
X153837229Y-56269000D01*
X153667022Y-56302856D01*
X153506690Y-56369268D01*
X153362395Y-56465682D01*
X153239682Y-56588395D01*
X153143268Y-56732690D01*
X153076856Y-56893022D01*
X153043000Y-57063229D01*
X153043000Y-57236771D01*
X153076856Y-57406978D01*
X153143268Y-57567310D01*
X153239682Y-57711605D01*
X153313077Y-57785000D01*
X153289000Y-57809077D01*
X153215605Y-57735682D01*
X153071310Y-57639268D01*
X152910978Y-57572856D01*
X152740771Y-57539000D01*
X152567229Y-57539000D01*
X152397022Y-57572856D01*
X152236690Y-57639268D01*
X152092395Y-57735682D01*
X151969682Y-57858395D01*
X151873268Y-58002690D01*
X151806856Y-58163022D01*
X151773000Y-58333229D01*
X151773000Y-58506771D01*
X151806856Y-58676978D01*
X151873268Y-58837310D01*
X151969682Y-58981605D01*
X152043077Y-59055000D01*
X151969682Y-59128395D01*
X151873268Y-59272690D01*
X151806856Y-59433022D01*
X151773000Y-59603229D01*
X151773000Y-59776771D01*
X151806856Y-59946978D01*
X151873268Y-60107310D01*
X151969682Y-60251605D01*
X152043077Y-60325000D01*
X151969682Y-60398395D01*
X151932528Y-60454000D01*
X151847592Y-60454000D01*
X151128000Y-59734409D01*
X151128000Y-51600672D01*
X151151956Y-51613477D01*
X151261293Y-51646644D01*
X151375000Y-51657843D01*
X151775000Y-51657843D01*
X151888707Y-51646644D01*
X151998044Y-51613477D01*
X152098810Y-51559616D01*
X152187132Y-51487132D01*
X152259616Y-51398810D01*
X152313477Y-51298044D01*
X152346644Y-51188707D01*
X152357843Y-51075000D01*
X152357843Y-50525000D01*
X152354908Y-50495200D01*
X152445092Y-50495200D01*
X152442157Y-50525000D01*
G04 #@! TA.AperFunction,Conductor*
D24*
G36*
X152442157Y-50525000D02*
G01*
X152442157Y-51075000D01*
X152453356Y-51188707D01*
X152486523Y-51298044D01*
X152540384Y-51398810D01*
X152612868Y-51487132D01*
X152701190Y-51559616D01*
X152801956Y-51613477D01*
X152911293Y-51646644D01*
X153025000Y-51657843D01*
X153193660Y-51657843D01*
X155522618Y-53986801D01*
X155540910Y-54009090D01*
X155629866Y-54082094D01*
X155731355Y-54136341D01*
X155841477Y-54169746D01*
X155927308Y-54178200D01*
X155927317Y-54178200D01*
X155955999Y-54181025D01*
X155984681Y-54178200D01*
X161984284Y-54178200D01*
X161963100Y-54284702D01*
X161963100Y-54427298D01*
X161978070Y-54502560D01*
X161942304Y-54521678D01*
X161884289Y-54569289D01*
X161836678Y-54627304D01*
X161801299Y-54693492D01*
X161779513Y-54765311D01*
X161772157Y-54840000D01*
X161772157Y-57504000D01*
X158930845Y-57504000D01*
X158905999Y-57501553D01*
X158881153Y-57504000D01*
X158881146Y-57504000D01*
X158806807Y-57511322D01*
X158711425Y-57540255D01*
X158623521Y-57587241D01*
X158546473Y-57650473D01*
X158530628Y-57669780D01*
X155746409Y-60454000D01*
X154645472Y-60454000D01*
X154608318Y-60398395D01*
X154534923Y-60325000D01*
X154608318Y-60251605D01*
X154704732Y-60107310D01*
X154771144Y-59946978D01*
X154805000Y-59776771D01*
X154805000Y-59603229D01*
X154771144Y-59433022D01*
X154704732Y-59272690D01*
X154608318Y-59128395D01*
X154534923Y-59055000D01*
X154608318Y-58981605D01*
X154704732Y-58837310D01*
X154771144Y-58676978D01*
X154805000Y-58506771D01*
X154805000Y-58333229D01*
X154771144Y-58163022D01*
X154704732Y-58002690D01*
X154608318Y-57858395D01*
X154534923Y-57785000D01*
X154608318Y-57711605D01*
X154704732Y-57567310D01*
X154771144Y-57406978D01*
X154805000Y-57236771D01*
X154805000Y-57063229D01*
X154771144Y-56893022D01*
X154704732Y-56732690D01*
X154608318Y-56588395D01*
X154485605Y-56465682D01*
X154341310Y-56369268D01*
X154180978Y-56302856D01*
X154010771Y-56269000D01*
X153837229Y-56269000D01*
X153667022Y-56302856D01*
X153506690Y-56369268D01*
X153362395Y-56465682D01*
X153239682Y-56588395D01*
X153143268Y-56732690D01*
X153076856Y-56893022D01*
X153043000Y-57063229D01*
X153043000Y-57236771D01*
X153076856Y-57406978D01*
X153143268Y-57567310D01*
X153239682Y-57711605D01*
X153313077Y-57785000D01*
X153289000Y-57809077D01*
X153215605Y-57735682D01*
X153071310Y-57639268D01*
X152910978Y-57572856D01*
X152740771Y-57539000D01*
X152567229Y-57539000D01*
X152397022Y-57572856D01*
X152236690Y-57639268D01*
X152092395Y-57735682D01*
X151969682Y-57858395D01*
X151873268Y-58002690D01*
X151806856Y-58163022D01*
X151773000Y-58333229D01*
X151773000Y-58506771D01*
X151806856Y-58676978D01*
X151873268Y-58837310D01*
X151969682Y-58981605D01*
X152043077Y-59055000D01*
X151969682Y-59128395D01*
X151873268Y-59272690D01*
X151806856Y-59433022D01*
X151773000Y-59603229D01*
X151773000Y-59776771D01*
X151806856Y-59946978D01*
X151873268Y-60107310D01*
X151969682Y-60251605D01*
X152043077Y-60325000D01*
X151969682Y-60398395D01*
X151932528Y-60454000D01*
X151847592Y-60454000D01*
X151128000Y-59734409D01*
X151128000Y-51600672D01*
X151151956Y-51613477D01*
X151261293Y-51646644D01*
X151375000Y-51657843D01*
X151775000Y-51657843D01*
X151888707Y-51646644D01*
X151998044Y-51613477D01*
X152098810Y-51559616D01*
X152187132Y-51487132D01*
X152259616Y-51398810D01*
X152313477Y-51298044D01*
X152346644Y-51188707D01*
X152357843Y-51075000D01*
X152357843Y-50525000D01*
X152354908Y-50495200D01*
X152445092Y-50495200D01*
X152442157Y-50525000D01*
G37*
G04 #@! TD.AperFunction*
M02*
