M48
; DRILL file {KiCad (5.1.10)-1} date 12/17/21 12:19:26
; FORMAT={-:-/ absolute / inch / decimal}
; #@! TF.CreationDate,2021-12-17T12:19:26+00:00
; #@! TF.GenerationSoftware,Kicad,Pcbnew,(5.1.10)-1
; #@! TF.FileFunction,Plated,1,2,PTH
FMAT,2
INCH
T1C0.0130
T2C0.0256
T3C0.0315
T4C0.0354
T5C0.0429
%
G90
G05
T1
X5.8Y-2.35
X5.8Y-2.75
X5.865Y-2.67
X5.93Y-2.0
X5.955Y-2.65
X5.9898Y-2.72
X6.0Y-2.15
X6.08Y-2.0
X6.09Y-2.755
X6.15Y-1.95
X6.15Y-2.755
X6.2913Y-2.4118
X6.295Y-2.19
X6.33Y-1.985
X6.3695Y-2.3755
X6.405Y-2.055
X6.405Y-2.14
X6.43Y-2.41
X6.45Y-2.2336
X6.4843Y-2.3508
X6.485Y-2.73
X6.5374Y-2.0275
X6.5374Y-2.13
X6.575Y-2.305
X6.645Y-2.385
X6.685Y-2.5004
X6.755Y-2.395
X6.8436Y-2.575
X6.8436Y-2.615
X6.845Y-2.275
X6.92Y-2.575
X6.965Y-2.615
X7.4Y-2.0
X7.4Y-2.35
X7.4Y-2.7
T2
X6.01Y-2.25
X6.01Y-2.3
X6.01Y-2.35
X6.01Y-2.4
X6.01Y-2.45
X6.06Y-2.25
X6.06Y-2.3
X6.06Y-2.35
X6.06Y-2.4
X6.06Y-2.45
T3
X6.6949Y-2.0575
X6.7736Y-2.0575
T4
X7.2894Y-1.95
X7.2894Y-2.05
X7.2894Y-2.65
X7.2894Y-2.75
T5
X6.9429Y-2.25
X6.9429Y-2.35
X6.9429Y-2.45
T0
M30
