G04 #@! TF.GenerationSoftware,KiCad,Pcbnew,(5.1.10)-1*
G04 #@! TF.CreationDate,2021-12-17T12:19:08+00:00*
G04 #@! TF.ProjectId,Updifier,55706469-6669-4657-922e-6b696361645f,rev?*
G04 #@! TF.SameCoordinates,Original*
G04 #@! TF.FileFunction,Soldermask,Top*
G04 #@! TF.FilePolarity,Negative*
%FSLAX46Y46*%
G04 Gerber Fmt 4.6, Leading zero omitted, Abs format (unit mm)*
G04 Created by KiCad (PCBNEW (5.1.10)-1) date 2021-12-17 12:19:08*
%MOMM*%
%LPD*%
G01*
G04 APERTURE LIST*
%ADD10C,1.902000*%
%ADD11C,3.102000*%
%ADD12O,1.452000X1.452000*%
%ADD13C,1.452000*%
%ADD14C,1.102000*%
%ADD15C,2.000000*%
%ADD16C,1.626000*%
%ADD17C,0.100000*%
G04 APERTURE END LIST*
D10*
X176350000Y-62230000D03*
X176350000Y-59690000D03*
X176350000Y-57150000D03*
D11*
X184990000Y-63500000D03*
X184990000Y-55880000D03*
D12*
X172050000Y-52260000D03*
D13*
X170050000Y-52260000D03*
G36*
G01*
X153379000Y-61679000D02*
X154469000Y-61679000D01*
G75*
G02*
X154520000Y-61730000I0J-51000D01*
G01*
X154520000Y-62730000D01*
G75*
G02*
X154469000Y-62781000I-51000J0D01*
G01*
X153379000Y-62781000D01*
G75*
G02*
X153328000Y-62730000I0J51000D01*
G01*
X153328000Y-61730000D01*
G75*
G02*
X153379000Y-61679000I51000J0D01*
G01*
G37*
D14*
X152654000Y-62230000D03*
X153924000Y-60960000D03*
X152654000Y-60960000D03*
X153924000Y-59690000D03*
X152654000Y-59690000D03*
X153924000Y-58420000D03*
X152654000Y-58420000D03*
X153924000Y-57150000D03*
X152654000Y-57150000D03*
G36*
G01*
X170486000Y-61770500D02*
X170486000Y-61419500D01*
G75*
G02*
X170661500Y-61244000I175500J0D01*
G01*
X172362500Y-61244000D01*
G75*
G02*
X172538000Y-61419500I0J-175500D01*
G01*
X172538000Y-61770500D01*
G75*
G02*
X172362500Y-61946000I-175500J0D01*
G01*
X170661500Y-61946000D01*
G75*
G02*
X170486000Y-61770500I0J175500D01*
G01*
G37*
G36*
G01*
X170486000Y-63040500D02*
X170486000Y-62689500D01*
G75*
G02*
X170661500Y-62514000I175500J0D01*
G01*
X172362500Y-62514000D01*
G75*
G02*
X172538000Y-62689500I0J-175500D01*
G01*
X172538000Y-63040500D01*
G75*
G02*
X172362500Y-63216000I-175500J0D01*
G01*
X170661500Y-63216000D01*
G75*
G02*
X170486000Y-63040500I0J175500D01*
G01*
G37*
G36*
G01*
X170486000Y-64310500D02*
X170486000Y-63959500D01*
G75*
G02*
X170661500Y-63784000I175500J0D01*
G01*
X172362500Y-63784000D01*
G75*
G02*
X172538000Y-63959500I0J-175500D01*
G01*
X172538000Y-64310500D01*
G75*
G02*
X172362500Y-64486000I-175500J0D01*
G01*
X170661500Y-64486000D01*
G75*
G02*
X170486000Y-64310500I0J175500D01*
G01*
G37*
G36*
G01*
X170486000Y-65580500D02*
X170486000Y-65229500D01*
G75*
G02*
X170661500Y-65054000I175500J0D01*
G01*
X172362500Y-65054000D01*
G75*
G02*
X172538000Y-65229500I0J-175500D01*
G01*
X172538000Y-65580500D01*
G75*
G02*
X172362500Y-65756000I-175500J0D01*
G01*
X170661500Y-65756000D01*
G75*
G02*
X170486000Y-65580500I0J175500D01*
G01*
G37*
G36*
G01*
X165536000Y-65580500D02*
X165536000Y-65229500D01*
G75*
G02*
X165711500Y-65054000I175500J0D01*
G01*
X167412500Y-65054000D01*
G75*
G02*
X167588000Y-65229500I0J-175500D01*
G01*
X167588000Y-65580500D01*
G75*
G02*
X167412500Y-65756000I-175500J0D01*
G01*
X165711500Y-65756000D01*
G75*
G02*
X165536000Y-65580500I0J175500D01*
G01*
G37*
G36*
G01*
X165536000Y-64310500D02*
X165536000Y-63959500D01*
G75*
G02*
X165711500Y-63784000I175500J0D01*
G01*
X167412500Y-63784000D01*
G75*
G02*
X167588000Y-63959500I0J-175500D01*
G01*
X167588000Y-64310500D01*
G75*
G02*
X167412500Y-64486000I-175500J0D01*
G01*
X165711500Y-64486000D01*
G75*
G02*
X165536000Y-64310500I0J175500D01*
G01*
G37*
G36*
G01*
X165536000Y-63040500D02*
X165536000Y-62689500D01*
G75*
G02*
X165711500Y-62514000I175500J0D01*
G01*
X167412500Y-62514000D01*
G75*
G02*
X167588000Y-62689500I0J-175500D01*
G01*
X167588000Y-63040500D01*
G75*
G02*
X167412500Y-63216000I-175500J0D01*
G01*
X165711500Y-63216000D01*
G75*
G02*
X165536000Y-63040500I0J175500D01*
G01*
G37*
G36*
G01*
X165536000Y-61770500D02*
X165536000Y-61419500D01*
G75*
G02*
X165711500Y-61244000I175500J0D01*
G01*
X167412500Y-61244000D01*
G75*
G02*
X167588000Y-61419500I0J-175500D01*
G01*
X167588000Y-61770500D01*
G75*
G02*
X167412500Y-61946000I-175500J0D01*
G01*
X165711500Y-61946000D01*
G75*
G02*
X165536000Y-61770500I0J175500D01*
G01*
G37*
G36*
G01*
X163155000Y-57641000D02*
X162155000Y-57641000D01*
G75*
G02*
X162104000Y-57590000I0J51000D01*
G01*
X162104000Y-54840000D01*
G75*
G02*
X162155000Y-54789000I51000J0D01*
G01*
X163155000Y-54789000D01*
G75*
G02*
X163206000Y-54840000I0J-51000D01*
G01*
X163206000Y-57590000D01*
G75*
G02*
X163155000Y-57641000I-51000J0D01*
G01*
G37*
G36*
G01*
X163155000Y-51891000D02*
X162155000Y-51891000D01*
G75*
G02*
X162104000Y-51840000I0J51000D01*
G01*
X162104000Y-49090000D01*
G75*
G02*
X162155000Y-49039000I51000J0D01*
G01*
X163155000Y-49039000D01*
G75*
G02*
X163206000Y-49090000I0J-51000D01*
G01*
X163206000Y-51840000D01*
G75*
G02*
X163155000Y-51891000I-51000J0D01*
G01*
G37*
G36*
G01*
X159155000Y-51891000D02*
X158155000Y-51891000D01*
G75*
G02*
X158104000Y-51840000I0J51000D01*
G01*
X158104000Y-49090000D01*
G75*
G02*
X158155000Y-49039000I51000J0D01*
G01*
X159155000Y-49039000D01*
G75*
G02*
X159206000Y-49090000I0J-51000D01*
G01*
X159206000Y-51840000D01*
G75*
G02*
X159155000Y-51891000I-51000J0D01*
G01*
G37*
G36*
G01*
X159155000Y-57641000D02*
X158155000Y-57641000D01*
G75*
G02*
X158104000Y-57590000I0J51000D01*
G01*
X158104000Y-54840000D01*
G75*
G02*
X158155000Y-54789000I51000J0D01*
G01*
X159155000Y-54789000D01*
G75*
G02*
X159206000Y-54840000I0J-51000D01*
G01*
X159206000Y-57590000D01*
G75*
G02*
X159155000Y-57641000I-51000J0D01*
G01*
G37*
G36*
G01*
X170931000Y-57459999D02*
X170931000Y-58110001D01*
G75*
G02*
X170880001Y-58161000I-50999J0D01*
G01*
X169819999Y-58161000D01*
G75*
G02*
X169769000Y-58110001I0J50999D01*
G01*
X169769000Y-57459999D01*
G75*
G02*
X169819999Y-57409000I50999J0D01*
G01*
X170880001Y-57409000D01*
G75*
G02*
X170931000Y-57459999I0J-50999D01*
G01*
G37*
G36*
G01*
X170931000Y-58409999D02*
X170931000Y-59060001D01*
G75*
G02*
X170880001Y-59111000I-50999J0D01*
G01*
X169819999Y-59111000D01*
G75*
G02*
X169769000Y-59060001I0J50999D01*
G01*
X169769000Y-58409999D01*
G75*
G02*
X169819999Y-58359000I50999J0D01*
G01*
X170880001Y-58359000D01*
G75*
G02*
X170931000Y-58409999I0J-50999D01*
G01*
G37*
G36*
G01*
X170931000Y-56509999D02*
X170931000Y-57160001D01*
G75*
G02*
X170880001Y-57211000I-50999J0D01*
G01*
X169819999Y-57211000D01*
G75*
G02*
X169769000Y-57160001I0J50999D01*
G01*
X169769000Y-56509999D01*
G75*
G02*
X169819999Y-56459000I50999J0D01*
G01*
X170880001Y-56459000D01*
G75*
G02*
X170931000Y-56509999I0J-50999D01*
G01*
G37*
G36*
G01*
X173131000Y-56509999D02*
X173131000Y-57160001D01*
G75*
G02*
X173080001Y-57211000I-50999J0D01*
G01*
X172019999Y-57211000D01*
G75*
G02*
X171969000Y-57160001I0J50999D01*
G01*
X171969000Y-56509999D01*
G75*
G02*
X172019999Y-56459000I50999J0D01*
G01*
X173080001Y-56459000D01*
G75*
G02*
X173131000Y-56509999I0J-50999D01*
G01*
G37*
G36*
G01*
X173131000Y-57459999D02*
X173131000Y-58110001D01*
G75*
G02*
X173080001Y-58161000I-50999J0D01*
G01*
X172019999Y-58161000D01*
G75*
G02*
X171969000Y-58110001I0J50999D01*
G01*
X171969000Y-57459999D01*
G75*
G02*
X172019999Y-57409000I50999J0D01*
G01*
X173080001Y-57409000D01*
G75*
G02*
X173131000Y-57459999I0J-50999D01*
G01*
G37*
G36*
G01*
X173131000Y-58409999D02*
X173131000Y-59060001D01*
G75*
G02*
X173080001Y-59111000I-50999J0D01*
G01*
X172019999Y-59111000D01*
G75*
G02*
X171969000Y-59060001I0J50999D01*
G01*
X171969000Y-58409999D01*
G75*
G02*
X172019999Y-58359000I50999J0D01*
G01*
X173080001Y-58359000D01*
G75*
G02*
X173131000Y-58409999I0J-50999D01*
G01*
G37*
G36*
G01*
X172604000Y-68905001D02*
X172604000Y-68254999D01*
G75*
G02*
X172654999Y-68204000I50999J0D01*
G01*
X173715001Y-68204000D01*
G75*
G02*
X173766000Y-68254999I0J-50999D01*
G01*
X173766000Y-68905001D01*
G75*
G02*
X173715001Y-68956000I-50999J0D01*
G01*
X172654999Y-68956000D01*
G75*
G02*
X172604000Y-68905001I0J50999D01*
G01*
G37*
G36*
G01*
X172604000Y-67955001D02*
X172604000Y-67304999D01*
G75*
G02*
X172654999Y-67254000I50999J0D01*
G01*
X173715001Y-67254000D01*
G75*
G02*
X173766000Y-67304999I0J-50999D01*
G01*
X173766000Y-67955001D01*
G75*
G02*
X173715001Y-68006000I-50999J0D01*
G01*
X172654999Y-68006000D01*
G75*
G02*
X172604000Y-67955001I0J50999D01*
G01*
G37*
G36*
G01*
X172604000Y-69855001D02*
X172604000Y-69204999D01*
G75*
G02*
X172654999Y-69154000I50999J0D01*
G01*
X173715001Y-69154000D01*
G75*
G02*
X173766000Y-69204999I0J-50999D01*
G01*
X173766000Y-69855001D01*
G75*
G02*
X173715001Y-69906000I-50999J0D01*
G01*
X172654999Y-69906000D01*
G75*
G02*
X172604000Y-69855001I0J50999D01*
G01*
G37*
G36*
G01*
X170404000Y-69855001D02*
X170404000Y-69204999D01*
G75*
G02*
X170454999Y-69154000I50999J0D01*
G01*
X171515001Y-69154000D01*
G75*
G02*
X171566000Y-69204999I0J-50999D01*
G01*
X171566000Y-69855001D01*
G75*
G02*
X171515001Y-69906000I-50999J0D01*
G01*
X170454999Y-69906000D01*
G75*
G02*
X170404000Y-69855001I0J50999D01*
G01*
G37*
G36*
G01*
X170404000Y-68905001D02*
X170404000Y-68254999D01*
G75*
G02*
X170454999Y-68204000I50999J0D01*
G01*
X171515001Y-68204000D01*
G75*
G02*
X171566000Y-68254999I0J-50999D01*
G01*
X171566000Y-68905001D01*
G75*
G02*
X171515001Y-68956000I-50999J0D01*
G01*
X170454999Y-68956000D01*
G75*
G02*
X170404000Y-68905001I0J50999D01*
G01*
G37*
G36*
G01*
X170404000Y-67955001D02*
X170404000Y-67304999D01*
G75*
G02*
X170454999Y-67254000I50999J0D01*
G01*
X171515001Y-67254000D01*
G75*
G02*
X171566000Y-67304999I0J-50999D01*
G01*
X171566000Y-67955001D01*
G75*
G02*
X171515001Y-68006000I-50999J0D01*
G01*
X170454999Y-68006000D01*
G75*
G02*
X170404000Y-67955001I0J50999D01*
G01*
G37*
G36*
G01*
X154824000Y-67955001D02*
X154824000Y-67304999D01*
G75*
G02*
X154874999Y-67254000I50999J0D01*
G01*
X155935001Y-67254000D01*
G75*
G02*
X155986000Y-67304999I0J-50999D01*
G01*
X155986000Y-67955001D01*
G75*
G02*
X155935001Y-68006000I-50999J0D01*
G01*
X154874999Y-68006000D01*
G75*
G02*
X154824000Y-67955001I0J50999D01*
G01*
G37*
G36*
G01*
X154824000Y-69855001D02*
X154824000Y-69204999D01*
G75*
G02*
X154874999Y-69154000I50999J0D01*
G01*
X155935001Y-69154000D01*
G75*
G02*
X155986000Y-69204999I0J-50999D01*
G01*
X155986000Y-69855001D01*
G75*
G02*
X155935001Y-69906000I-50999J0D01*
G01*
X154874999Y-69906000D01*
G75*
G02*
X154824000Y-69855001I0J50999D01*
G01*
G37*
G36*
G01*
X152624000Y-69855001D02*
X152624000Y-69204999D01*
G75*
G02*
X152674999Y-69154000I50999J0D01*
G01*
X153735001Y-69154000D01*
G75*
G02*
X153786000Y-69204999I0J-50999D01*
G01*
X153786000Y-69855001D01*
G75*
G02*
X153735001Y-69906000I-50999J0D01*
G01*
X152674999Y-69906000D01*
G75*
G02*
X152624000Y-69855001I0J50999D01*
G01*
G37*
G36*
G01*
X152624000Y-68905001D02*
X152624000Y-68254999D01*
G75*
G02*
X152674999Y-68204000I50999J0D01*
G01*
X153735001Y-68204000D01*
G75*
G02*
X153786000Y-68254999I0J-50999D01*
G01*
X153786000Y-68905001D01*
G75*
G02*
X153735001Y-68956000I-50999J0D01*
G01*
X152674999Y-68956000D01*
G75*
G02*
X152624000Y-68905001I0J50999D01*
G01*
G37*
G36*
G01*
X152624000Y-67955001D02*
X152624000Y-67304999D01*
G75*
G02*
X152674999Y-67254000I50999J0D01*
G01*
X153735001Y-67254000D01*
G75*
G02*
X153786000Y-67304999I0J-50999D01*
G01*
X153786000Y-67955001D01*
G75*
G02*
X153735001Y-68006000I-50999J0D01*
G01*
X152674999Y-68006000D01*
G75*
G02*
X152624000Y-67955001I0J50999D01*
G01*
G37*
G36*
G01*
X182545500Y-68206000D02*
X181944500Y-68206000D01*
G75*
G02*
X181719000Y-67980500I0J225500D01*
G01*
X181719000Y-67529500D01*
G75*
G02*
X181944500Y-67304000I225500J0D01*
G01*
X182545500Y-67304000D01*
G75*
G02*
X182771000Y-67529500I0J-225500D01*
G01*
X182771000Y-67980500D01*
G75*
G02*
X182545500Y-68206000I-225500J0D01*
G01*
G37*
G36*
G01*
X182545500Y-69856000D02*
X181944500Y-69856000D01*
G75*
G02*
X181719000Y-69630500I0J225500D01*
G01*
X181719000Y-69179500D01*
G75*
G02*
X181944500Y-68954000I225500J0D01*
G01*
X182545500Y-68954000D01*
G75*
G02*
X182771000Y-69179500I0J-225500D01*
G01*
X182771000Y-69630500D01*
G75*
G02*
X182545500Y-69856000I-225500J0D01*
G01*
G37*
G36*
G01*
X176830500Y-68206000D02*
X176229500Y-68206000D01*
G75*
G02*
X176004000Y-67980500I0J225500D01*
G01*
X176004000Y-67529500D01*
G75*
G02*
X176229500Y-67304000I225500J0D01*
G01*
X176830500Y-67304000D01*
G75*
G02*
X177056000Y-67529500I0J-225500D01*
G01*
X177056000Y-67980500D01*
G75*
G02*
X176830500Y-68206000I-225500J0D01*
G01*
G37*
G36*
G01*
X176830500Y-69856000D02*
X176229500Y-69856000D01*
G75*
G02*
X176004000Y-69630500I0J225500D01*
G01*
X176004000Y-69179500D01*
G75*
G02*
X176229500Y-68954000I225500J0D01*
G01*
X176830500Y-68954000D01*
G75*
G02*
X177056000Y-69179500I0J-225500D01*
G01*
X177056000Y-69630500D01*
G75*
G02*
X176830500Y-69856000I-225500J0D01*
G01*
G37*
G36*
G01*
X167339500Y-68954000D02*
X167940500Y-68954000D01*
G75*
G02*
X168166000Y-69179500I0J-225500D01*
G01*
X168166000Y-69630500D01*
G75*
G02*
X167940500Y-69856000I-225500J0D01*
G01*
X167339500Y-69856000D01*
G75*
G02*
X167114000Y-69630500I0J225500D01*
G01*
X167114000Y-69179500D01*
G75*
G02*
X167339500Y-68954000I225500J0D01*
G01*
G37*
G36*
G01*
X167339500Y-67304000D02*
X167940500Y-67304000D01*
G75*
G02*
X168166000Y-67529500I0J-225500D01*
G01*
X168166000Y-67980500D01*
G75*
G02*
X167940500Y-68206000I-225500J0D01*
G01*
X167339500Y-68206000D01*
G75*
G02*
X167114000Y-67980500I0J225500D01*
G01*
X167114000Y-67529500D01*
G75*
G02*
X167339500Y-67304000I225500J0D01*
G01*
G37*
G36*
G01*
X181944500Y-51174000D02*
X182545500Y-51174000D01*
G75*
G02*
X182771000Y-51399500I0J-225500D01*
G01*
X182771000Y-51850500D01*
G75*
G02*
X182545500Y-52076000I-225500J0D01*
G01*
X181944500Y-52076000D01*
G75*
G02*
X181719000Y-51850500I0J225500D01*
G01*
X181719000Y-51399500D01*
G75*
G02*
X181944500Y-51174000I225500J0D01*
G01*
G37*
G36*
G01*
X181944500Y-49524000D02*
X182545500Y-49524000D01*
G75*
G02*
X182771000Y-49749500I0J-225500D01*
G01*
X182771000Y-50200500D01*
G75*
G02*
X182545500Y-50426000I-225500J0D01*
G01*
X181944500Y-50426000D01*
G75*
G02*
X181719000Y-50200500I0J225500D01*
G01*
X181719000Y-49749500D01*
G75*
G02*
X181944500Y-49524000I225500J0D01*
G01*
G37*
G36*
G01*
X159124000Y-62530500D02*
X159124000Y-61929500D01*
G75*
G02*
X159349500Y-61704000I225500J0D01*
G01*
X159800500Y-61704000D01*
G75*
G02*
X160026000Y-61929500I0J-225500D01*
G01*
X160026000Y-62530500D01*
G75*
G02*
X159800500Y-62756000I-225500J0D01*
G01*
X159349500Y-62756000D01*
G75*
G02*
X159124000Y-62530500I0J225500D01*
G01*
G37*
G36*
G01*
X157474000Y-62530500D02*
X157474000Y-61929500D01*
G75*
G02*
X157699500Y-61704000I225500J0D01*
G01*
X158150500Y-61704000D01*
G75*
G02*
X158376000Y-61929500I0J-225500D01*
G01*
X158376000Y-62530500D01*
G75*
G02*
X158150500Y-62756000I-225500J0D01*
G01*
X157699500Y-62756000D01*
G75*
G02*
X157474000Y-62530500I0J225500D01*
G01*
G37*
G36*
G01*
X158376000Y-64469500D02*
X158376000Y-65070500D01*
G75*
G02*
X158150500Y-65296000I-225500J0D01*
G01*
X157699500Y-65296000D01*
G75*
G02*
X157474000Y-65070500I0J225500D01*
G01*
X157474000Y-64469500D01*
G75*
G02*
X157699500Y-64244000I225500J0D01*
G01*
X158150500Y-64244000D01*
G75*
G02*
X158376000Y-64469500I0J-225500D01*
G01*
G37*
G36*
G01*
X160026000Y-64469500D02*
X160026000Y-65070500D01*
G75*
G02*
X159800500Y-65296000I-225500J0D01*
G01*
X159349500Y-65296000D01*
G75*
G02*
X159124000Y-65070500I0J225500D01*
G01*
X159124000Y-64469500D01*
G75*
G02*
X159349500Y-64244000I225500J0D01*
G01*
X159800500Y-64244000D01*
G75*
G02*
X160026000Y-64469500I0J-225500D01*
G01*
G37*
G36*
G01*
X167379000Y-58085500D02*
X167379000Y-57484500D01*
G75*
G02*
X167604500Y-57259000I225500J0D01*
G01*
X168055500Y-57259000D01*
G75*
G02*
X168281000Y-57484500I0J-225500D01*
G01*
X168281000Y-58085500D01*
G75*
G02*
X168055500Y-58311000I-225500J0D01*
G01*
X167604500Y-58311000D01*
G75*
G02*
X167379000Y-58085500I0J225500D01*
G01*
G37*
G36*
G01*
X165729000Y-58085500D02*
X165729000Y-57484500D01*
G75*
G02*
X165954500Y-57259000I225500J0D01*
G01*
X166405500Y-57259000D01*
G75*
G02*
X166631000Y-57484500I0J-225500D01*
G01*
X166631000Y-58085500D01*
G75*
G02*
X166405500Y-58311000I-225500J0D01*
G01*
X165954500Y-58311000D01*
G75*
G02*
X165729000Y-58085500I0J225500D01*
G01*
G37*
G36*
G01*
X159249600Y-68181000D02*
X157488400Y-68181000D01*
G75*
G02*
X157218000Y-67910600I0J270400D01*
G01*
X157218000Y-67099400D01*
G75*
G02*
X157488400Y-66829000I270400J0D01*
G01*
X159249600Y-66829000D01*
G75*
G02*
X159520000Y-67099400I0J-270400D01*
G01*
X159520000Y-67910600D01*
G75*
G02*
X159249600Y-68181000I-270400J0D01*
G01*
G37*
G36*
G01*
X159249600Y-70331000D02*
X157488400Y-70331000D01*
G75*
G02*
X157218000Y-70060600I0J270400D01*
G01*
X157218000Y-69249400D01*
G75*
G02*
X157488400Y-68979000I270400J0D01*
G01*
X159249600Y-68979000D01*
G75*
G02*
X159520000Y-69249400I0J-270400D01*
G01*
X159520000Y-70060600D01*
G75*
G02*
X159249600Y-70331000I-270400J0D01*
G01*
G37*
D15*
X179070000Y-50800000D03*
X179070000Y-68580000D03*
X147955000Y-50165000D03*
G36*
G01*
X152026000Y-50499500D02*
X152026000Y-51100500D01*
G75*
G02*
X151800500Y-51326000I-225500J0D01*
G01*
X151349500Y-51326000D01*
G75*
G02*
X151124000Y-51100500I0J225500D01*
G01*
X151124000Y-50499500D01*
G75*
G02*
X151349500Y-50274000I225500J0D01*
G01*
X151800500Y-50274000D01*
G75*
G02*
X152026000Y-50499500I0J-225500D01*
G01*
G37*
G36*
G01*
X153676000Y-50499500D02*
X153676000Y-51100500D01*
G75*
G02*
X153450500Y-51326000I-225500J0D01*
G01*
X152999500Y-51326000D01*
G75*
G02*
X152774000Y-51100500I0J225500D01*
G01*
X152774000Y-50499500D01*
G75*
G02*
X152999500Y-50274000I225500J0D01*
G01*
X153450500Y-50274000D01*
G75*
G02*
X153676000Y-50499500I0J-225500D01*
G01*
G37*
D16*
X185150000Y-69850000D03*
X185150000Y-67310000D03*
X185150000Y-52070000D03*
X185150000Y-49530000D03*
G36*
G01*
X162160000Y-69229000D02*
X162960000Y-69229000D01*
G75*
G02*
X163011000Y-69280000I0J-51000D01*
G01*
X163011000Y-70080000D01*
G75*
G02*
X162960000Y-70131000I-51000J0D01*
G01*
X162160000Y-70131000D01*
G75*
G02*
X162109000Y-70080000I0J51000D01*
G01*
X162109000Y-69280000D01*
G75*
G02*
X162160000Y-69229000I51000J0D01*
G01*
G37*
G36*
G01*
X162160000Y-67029000D02*
X162960000Y-67029000D01*
G75*
G02*
X163011000Y-67080000I0J-51000D01*
G01*
X163011000Y-67880000D01*
G75*
G02*
X162960000Y-67931000I-51000J0D01*
G01*
X162160000Y-67931000D01*
G75*
G02*
X162109000Y-67880000I0J51000D01*
G01*
X162109000Y-67080000D01*
G75*
G02*
X162160000Y-67029000I51000J0D01*
G01*
G37*
G36*
G01*
X165459500Y-68841000D02*
X166010500Y-68841000D01*
G75*
G02*
X166261000Y-69091500I0J-250500D01*
G01*
X166261000Y-69592500D01*
G75*
G02*
X166010500Y-69843000I-250500J0D01*
G01*
X165459500Y-69843000D01*
G75*
G02*
X165209000Y-69592500I0J250500D01*
G01*
X165209000Y-69091500D01*
G75*
G02*
X165459500Y-68841000I250500J0D01*
G01*
G37*
G36*
G01*
X165459500Y-67291000D02*
X166010500Y-67291000D01*
G75*
G02*
X166261000Y-67541500I0J-250500D01*
G01*
X166261000Y-68042500D01*
G75*
G02*
X166010500Y-68293000I-250500J0D01*
G01*
X165459500Y-68293000D01*
G75*
G02*
X165209000Y-68042500I0J250500D01*
G01*
X165209000Y-67541500D01*
G75*
G02*
X165459500Y-67291000I250500J0D01*
G01*
G37*
G36*
G01*
X162834000Y-62505500D02*
X162834000Y-61954500D01*
G75*
G02*
X163084500Y-61704000I250500J0D01*
G01*
X163585500Y-61704000D01*
G75*
G02*
X163836000Y-61954500I0J-250500D01*
G01*
X163836000Y-62505500D01*
G75*
G02*
X163585500Y-62756000I-250500J0D01*
G01*
X163084500Y-62756000D01*
G75*
G02*
X162834000Y-62505500I0J250500D01*
G01*
G37*
G36*
G01*
X161284000Y-62505500D02*
X161284000Y-61954500D01*
G75*
G02*
X161534500Y-61704000I250500J0D01*
G01*
X162035500Y-61704000D01*
G75*
G02*
X162286000Y-61954500I0J-250500D01*
G01*
X162286000Y-62505500D01*
G75*
G02*
X162035500Y-62756000I-250500J0D01*
G01*
X161534500Y-62756000D01*
G75*
G02*
X161284000Y-62505500I0J250500D01*
G01*
G37*
G36*
G01*
X162834000Y-65045500D02*
X162834000Y-64494500D01*
G75*
G02*
X163084500Y-64244000I250500J0D01*
G01*
X163585500Y-64244000D01*
G75*
G02*
X163836000Y-64494500I0J-250500D01*
G01*
X163836000Y-65045500D01*
G75*
G02*
X163585500Y-65296000I-250500J0D01*
G01*
X163084500Y-65296000D01*
G75*
G02*
X162834000Y-65045500I0J250500D01*
G01*
G37*
G36*
G01*
X161284000Y-65045500D02*
X161284000Y-64494500D01*
G75*
G02*
X161534500Y-64244000I250500J0D01*
G01*
X162035500Y-64244000D01*
G75*
G02*
X162286000Y-64494500I0J-250500D01*
G01*
X162286000Y-65045500D01*
G75*
G02*
X162035500Y-65296000I-250500J0D01*
G01*
X161534500Y-65296000D01*
G75*
G02*
X161284000Y-65045500I0J250500D01*
G01*
G37*
G36*
G01*
X166731000Y-54842500D02*
X166731000Y-55393500D01*
G75*
G02*
X166480500Y-55644000I-250500J0D01*
G01*
X165979500Y-55644000D01*
G75*
G02*
X165729000Y-55393500I0J250500D01*
G01*
X165729000Y-54842500D01*
G75*
G02*
X165979500Y-54592000I250500J0D01*
G01*
X166480500Y-54592000D01*
G75*
G02*
X166731000Y-54842500I0J-250500D01*
G01*
G37*
G36*
G01*
X168281000Y-54842500D02*
X168281000Y-55393500D01*
G75*
G02*
X168030500Y-55644000I-250500J0D01*
G01*
X167529500Y-55644000D01*
G75*
G02*
X167279000Y-55393500I0J250500D01*
G01*
X167279000Y-54842500D01*
G75*
G02*
X167529500Y-54592000I250500J0D01*
G01*
X168030500Y-54592000D01*
G75*
G02*
X168281000Y-54842500I0J-250500D01*
G01*
G37*
G36*
G01*
X150135500Y-68306000D02*
X149584500Y-68306000D01*
G75*
G02*
X149334000Y-68055500I0J250500D01*
G01*
X149334000Y-67554500D01*
G75*
G02*
X149584500Y-67304000I250500J0D01*
G01*
X150135500Y-67304000D01*
G75*
G02*
X150386000Y-67554500I0J-250500D01*
G01*
X150386000Y-68055500D01*
G75*
G02*
X150135500Y-68306000I-250500J0D01*
G01*
G37*
G36*
G01*
X150135500Y-69856000D02*
X149584500Y-69856000D01*
G75*
G02*
X149334000Y-69605500I0J250500D01*
G01*
X149334000Y-69104500D01*
G75*
G02*
X149584500Y-68854000I250500J0D01*
G01*
X150135500Y-68854000D01*
G75*
G02*
X150386000Y-69104500I0J-250500D01*
G01*
X150386000Y-69605500D01*
G75*
G02*
X150135500Y-69856000I-250500J0D01*
G01*
G37*
G36*
G01*
X162286000Y-59414500D02*
X162286000Y-59965500D01*
G75*
G02*
X162035500Y-60216000I-250500J0D01*
G01*
X161534500Y-60216000D01*
G75*
G02*
X161284000Y-59965500I0J250500D01*
G01*
X161284000Y-59414500D01*
G75*
G02*
X161534500Y-59164000I250500J0D01*
G01*
X162035500Y-59164000D01*
G75*
G02*
X162286000Y-59414500I0J-250500D01*
G01*
G37*
G36*
G01*
X163836000Y-59414500D02*
X163836000Y-59965500D01*
G75*
G02*
X163585500Y-60216000I-250500J0D01*
G01*
X163084500Y-60216000D01*
G75*
G02*
X162834000Y-59965500I0J250500D01*
G01*
X162834000Y-59414500D01*
G75*
G02*
X163084500Y-59164000I250500J0D01*
G01*
X163585500Y-59164000D01*
G75*
G02*
X163836000Y-59414500I0J-250500D01*
G01*
G37*
D17*
G36*
X153787732Y-68955000D02*
G01*
X153788000Y-68956000D01*
X153788000Y-69154000D01*
X153787000Y-69155732D01*
X153786000Y-69156000D01*
X152624000Y-69156000D01*
X152622268Y-69155000D01*
X152622000Y-69154000D01*
X152622000Y-68956000D01*
X152623000Y-68954268D01*
X152624000Y-68954000D01*
X153786000Y-68954000D01*
X153787732Y-68955000D01*
G37*
G36*
X173767732Y-68955000D02*
G01*
X173768000Y-68956000D01*
X173768000Y-69154000D01*
X173767000Y-69155732D01*
X173766000Y-69156000D01*
X172604000Y-69156000D01*
X172602268Y-69155000D01*
X172602000Y-69154000D01*
X172602000Y-68956000D01*
X172603000Y-68954268D01*
X172604000Y-68954000D01*
X173766000Y-68954000D01*
X173767732Y-68955000D01*
G37*
G36*
X171567732Y-68955000D02*
G01*
X171568000Y-68956000D01*
X171568000Y-69154000D01*
X171567000Y-69155732D01*
X171566000Y-69156000D01*
X170404000Y-69156000D01*
X170402268Y-69155000D01*
X170402000Y-69154000D01*
X170402000Y-68956000D01*
X170403000Y-68954268D01*
X170404000Y-68954000D01*
X171566000Y-68954000D01*
X171567732Y-68955000D01*
G37*
G36*
X171567732Y-68005000D02*
G01*
X171568000Y-68006000D01*
X171568000Y-68204000D01*
X171567000Y-68205732D01*
X171566000Y-68206000D01*
X170404000Y-68206000D01*
X170402268Y-68205000D01*
X170402000Y-68204000D01*
X170402000Y-68006000D01*
X170403000Y-68004268D01*
X170404000Y-68004000D01*
X171566000Y-68004000D01*
X171567732Y-68005000D01*
G37*
G36*
X153787732Y-68005000D02*
G01*
X153788000Y-68006000D01*
X153788000Y-68204000D01*
X153787000Y-68205732D01*
X153786000Y-68206000D01*
X152624000Y-68206000D01*
X152622268Y-68205000D01*
X152622000Y-68204000D01*
X152622000Y-68006000D01*
X152623000Y-68004268D01*
X152624000Y-68004000D01*
X153786000Y-68004000D01*
X153787732Y-68005000D01*
G37*
G36*
X173767732Y-68005000D02*
G01*
X173768000Y-68006000D01*
X173768000Y-68204000D01*
X173767000Y-68205732D01*
X173766000Y-68206000D01*
X172604000Y-68206000D01*
X172602268Y-68205000D01*
X172602000Y-68204000D01*
X172602000Y-68006000D01*
X172603000Y-68004268D01*
X172604000Y-68004000D01*
X173766000Y-68004000D01*
X173767732Y-68005000D01*
G37*
G36*
X153329165Y-61839105D02*
G01*
X153330000Y-61840731D01*
X153330000Y-62619269D01*
X153329000Y-62621001D01*
X153327000Y-62621001D01*
X153326010Y-62619465D01*
X153323628Y-62595278D01*
X153316628Y-62572203D01*
X153305263Y-62550939D01*
X153289968Y-62532302D01*
X153271331Y-62517007D01*
X153250067Y-62505642D01*
X153226992Y-62498642D01*
X153203001Y-62496279D01*
X153179010Y-62498642D01*
X153155935Y-62505642D01*
X153134671Y-62517007D01*
X153116034Y-62532302D01*
X153104514Y-62546340D01*
X153102642Y-62547044D01*
X153101096Y-62545776D01*
X153101305Y-62543960D01*
X153138166Y-62488793D01*
X153179350Y-62389365D01*
X153200347Y-62283808D01*
X153200347Y-62176192D01*
X153179350Y-62070635D01*
X153138166Y-61971207D01*
X153101304Y-61916038D01*
X153101173Y-61914042D01*
X153102836Y-61912931D01*
X153104513Y-61913658D01*
X153116035Y-61927698D01*
X153134672Y-61942993D01*
X153155936Y-61954358D01*
X153179011Y-61961358D01*
X153203002Y-61963721D01*
X153226993Y-61961358D01*
X153250068Y-61954358D01*
X153271332Y-61942992D01*
X153289968Y-61927697D01*
X153305263Y-61909060D01*
X153316628Y-61887796D01*
X153323628Y-61864721D01*
X153326010Y-61840535D01*
X153327175Y-61838909D01*
X153329165Y-61839105D01*
G37*
G36*
X152826906Y-61480824D02*
G01*
X152827671Y-61482672D01*
X152826631Y-61484175D01*
X152810609Y-61492738D01*
X152791972Y-61508033D01*
X152776677Y-61526670D01*
X152765312Y-61547934D01*
X152758312Y-61571009D01*
X152755949Y-61595000D01*
X152758312Y-61618991D01*
X152765312Y-61642066D01*
X152776677Y-61663330D01*
X152791972Y-61681967D01*
X152810609Y-61697262D01*
X152826631Y-61705825D01*
X152827687Y-61707524D01*
X152826744Y-61709287D01*
X152824923Y-61709437D01*
X152813365Y-61704650D01*
X152707808Y-61683653D01*
X152600192Y-61683653D01*
X152494635Y-61704650D01*
X152483077Y-61709437D01*
X152481094Y-61709176D01*
X152480329Y-61707328D01*
X152481369Y-61705825D01*
X152497391Y-61697262D01*
X152516028Y-61681967D01*
X152531323Y-61663330D01*
X152542688Y-61642066D01*
X152549688Y-61618991D01*
X152552051Y-61595000D01*
X152549688Y-61571009D01*
X152542688Y-61547934D01*
X152531323Y-61526670D01*
X152516028Y-61508033D01*
X152497391Y-61492738D01*
X152481369Y-61484175D01*
X152480313Y-61482476D01*
X152481256Y-61480713D01*
X152483077Y-61480563D01*
X152494635Y-61485350D01*
X152600192Y-61506347D01*
X152707808Y-61506347D01*
X152813365Y-61485350D01*
X152824923Y-61480563D01*
X152826906Y-61480824D01*
G37*
G36*
X154182105Y-61445534D02*
G01*
X154182870Y-61447382D01*
X154181998Y-61448784D01*
X154177670Y-61451676D01*
X154158955Y-61467035D01*
X154143660Y-61485672D01*
X154132295Y-61506935D01*
X154125295Y-61530010D01*
X154122932Y-61554001D01*
X154125295Y-61577993D01*
X154132295Y-61601068D01*
X154143660Y-61622331D01*
X154158956Y-61640968D01*
X154177593Y-61656263D01*
X154198856Y-61667628D01*
X154221931Y-61674628D01*
X154246118Y-61677010D01*
X154247744Y-61678175D01*
X154247548Y-61680165D01*
X154245922Y-61681000D01*
X153602078Y-61681000D01*
X153600346Y-61680000D01*
X153600346Y-61678000D01*
X153601882Y-61677010D01*
X153626069Y-61674628D01*
X153649144Y-61667628D01*
X153670408Y-61656263D01*
X153689045Y-61640968D01*
X153704340Y-61622331D01*
X153715705Y-61601067D01*
X153722705Y-61577992D01*
X153725068Y-61554001D01*
X153722705Y-61530010D01*
X153715705Y-61506935D01*
X153704340Y-61485671D01*
X153689045Y-61467034D01*
X153670330Y-61451676D01*
X153666002Y-61448784D01*
X153665117Y-61446990D01*
X153666228Y-61445327D01*
X153667878Y-61445273D01*
X153764635Y-61485350D01*
X153870192Y-61506347D01*
X153977808Y-61506347D01*
X154083365Y-61485350D01*
X154180122Y-61445273D01*
X154182105Y-61445534D01*
G37*
G36*
X153403287Y-60787256D02*
G01*
X153403437Y-60789077D01*
X153398650Y-60800635D01*
X153377653Y-60906192D01*
X153377653Y-61013808D01*
X153398650Y-61119365D01*
X153403437Y-61130923D01*
X153403176Y-61132906D01*
X153401328Y-61133671D01*
X153399825Y-61132631D01*
X153391262Y-61116609D01*
X153375967Y-61097972D01*
X153357330Y-61082677D01*
X153336066Y-61071312D01*
X153312991Y-61064312D01*
X153289000Y-61061949D01*
X153265009Y-61064312D01*
X153241934Y-61071312D01*
X153220670Y-61082677D01*
X153202033Y-61097972D01*
X153186738Y-61116609D01*
X153178175Y-61132631D01*
X153176476Y-61133687D01*
X153174713Y-61132744D01*
X153174563Y-61130923D01*
X153179350Y-61119365D01*
X153200347Y-61013808D01*
X153200347Y-60906192D01*
X153179350Y-60800635D01*
X153174563Y-60789077D01*
X153174824Y-60787094D01*
X153176672Y-60786329D01*
X153178175Y-60787369D01*
X153186738Y-60803391D01*
X153202033Y-60822028D01*
X153220670Y-60837323D01*
X153241934Y-60848688D01*
X153265009Y-60855688D01*
X153289000Y-60858051D01*
X153312991Y-60855688D01*
X153336066Y-60848688D01*
X153357330Y-60837323D01*
X153375967Y-60822028D01*
X153391262Y-60803391D01*
X153399825Y-60787369D01*
X153401524Y-60786313D01*
X153403287Y-60787256D01*
G37*
G36*
X152826906Y-60210824D02*
G01*
X152827671Y-60212672D01*
X152826631Y-60214175D01*
X152810609Y-60222738D01*
X152791972Y-60238033D01*
X152776677Y-60256670D01*
X152765312Y-60277934D01*
X152758312Y-60301009D01*
X152755949Y-60325000D01*
X152758312Y-60348991D01*
X152765312Y-60372066D01*
X152776677Y-60393330D01*
X152791972Y-60411967D01*
X152810609Y-60427262D01*
X152826631Y-60435825D01*
X152827687Y-60437524D01*
X152826744Y-60439287D01*
X152824923Y-60439437D01*
X152813365Y-60434650D01*
X152707808Y-60413653D01*
X152600192Y-60413653D01*
X152494635Y-60434650D01*
X152483077Y-60439437D01*
X152481094Y-60439176D01*
X152480329Y-60437328D01*
X152481369Y-60435825D01*
X152497391Y-60427262D01*
X152516028Y-60411967D01*
X152531323Y-60393330D01*
X152542688Y-60372066D01*
X152549688Y-60348991D01*
X152552051Y-60325000D01*
X152549688Y-60301009D01*
X152542688Y-60277934D01*
X152531323Y-60256670D01*
X152516028Y-60238033D01*
X152497391Y-60222738D01*
X152481369Y-60214175D01*
X152480313Y-60212476D01*
X152481256Y-60210713D01*
X152483077Y-60210563D01*
X152494635Y-60215350D01*
X152600192Y-60236347D01*
X152707808Y-60236347D01*
X152813365Y-60215350D01*
X152824923Y-60210563D01*
X152826906Y-60210824D01*
G37*
G36*
X154096906Y-60210824D02*
G01*
X154097671Y-60212672D01*
X154096631Y-60214175D01*
X154080609Y-60222738D01*
X154061972Y-60238033D01*
X154046677Y-60256670D01*
X154035312Y-60277934D01*
X154028312Y-60301009D01*
X154025949Y-60325000D01*
X154028312Y-60348991D01*
X154035312Y-60372066D01*
X154046677Y-60393330D01*
X154061972Y-60411967D01*
X154080609Y-60427262D01*
X154096631Y-60435825D01*
X154097687Y-60437524D01*
X154096744Y-60439287D01*
X154094923Y-60439437D01*
X154083365Y-60434650D01*
X153977808Y-60413653D01*
X153870192Y-60413653D01*
X153764635Y-60434650D01*
X153753077Y-60439437D01*
X153751094Y-60439176D01*
X153750329Y-60437328D01*
X153751369Y-60435825D01*
X153767391Y-60427262D01*
X153786028Y-60411967D01*
X153801323Y-60393330D01*
X153812688Y-60372066D01*
X153819688Y-60348991D01*
X153822051Y-60325000D01*
X153819688Y-60301009D01*
X153812688Y-60277934D01*
X153801323Y-60256670D01*
X153786028Y-60238033D01*
X153767391Y-60222738D01*
X153751369Y-60214175D01*
X153750313Y-60212476D01*
X153751256Y-60210713D01*
X153753077Y-60210563D01*
X153764635Y-60215350D01*
X153870192Y-60236347D01*
X153977808Y-60236347D01*
X154083365Y-60215350D01*
X154094923Y-60210563D01*
X154096906Y-60210824D01*
G37*
G36*
X153403287Y-59517256D02*
G01*
X153403437Y-59519077D01*
X153398650Y-59530635D01*
X153377653Y-59636192D01*
X153377653Y-59743808D01*
X153398650Y-59849365D01*
X153403437Y-59860923D01*
X153403176Y-59862906D01*
X153401328Y-59863671D01*
X153399825Y-59862631D01*
X153391262Y-59846609D01*
X153375967Y-59827972D01*
X153357330Y-59812677D01*
X153336066Y-59801312D01*
X153312991Y-59794312D01*
X153289000Y-59791949D01*
X153265009Y-59794312D01*
X153241934Y-59801312D01*
X153220670Y-59812677D01*
X153202033Y-59827972D01*
X153186738Y-59846609D01*
X153178175Y-59862631D01*
X153176476Y-59863687D01*
X153174713Y-59862744D01*
X153174563Y-59860923D01*
X153179350Y-59849365D01*
X153200347Y-59743808D01*
X153200347Y-59636192D01*
X153179350Y-59530635D01*
X153174563Y-59519077D01*
X153174824Y-59517094D01*
X153176672Y-59516329D01*
X153178175Y-59517369D01*
X153186738Y-59533391D01*
X153202033Y-59552028D01*
X153220670Y-59567323D01*
X153241934Y-59578688D01*
X153265009Y-59585688D01*
X153289000Y-59588051D01*
X153312991Y-59585688D01*
X153336066Y-59578688D01*
X153357330Y-59567323D01*
X153375967Y-59552028D01*
X153391262Y-59533391D01*
X153399825Y-59517369D01*
X153401524Y-59516313D01*
X153403287Y-59517256D01*
G37*
G36*
X152826906Y-58940824D02*
G01*
X152827671Y-58942672D01*
X152826631Y-58944175D01*
X152810609Y-58952738D01*
X152791972Y-58968033D01*
X152776677Y-58986670D01*
X152765312Y-59007934D01*
X152758312Y-59031009D01*
X152755949Y-59055000D01*
X152758312Y-59078991D01*
X152765312Y-59102066D01*
X152776677Y-59123330D01*
X152791972Y-59141967D01*
X152810609Y-59157262D01*
X152826631Y-59165825D01*
X152827687Y-59167524D01*
X152826744Y-59169287D01*
X152824923Y-59169437D01*
X152813365Y-59164650D01*
X152707808Y-59143653D01*
X152600192Y-59143653D01*
X152494635Y-59164650D01*
X152483077Y-59169437D01*
X152481094Y-59169176D01*
X152480329Y-59167328D01*
X152481369Y-59165825D01*
X152497391Y-59157262D01*
X152516028Y-59141967D01*
X152531323Y-59123330D01*
X152542688Y-59102066D01*
X152549688Y-59078991D01*
X152552051Y-59055000D01*
X152549688Y-59031009D01*
X152542688Y-59007934D01*
X152531323Y-58986670D01*
X152516028Y-58968033D01*
X152497391Y-58952738D01*
X152481369Y-58944175D01*
X152480313Y-58942476D01*
X152481256Y-58940713D01*
X152483077Y-58940563D01*
X152494635Y-58945350D01*
X152600192Y-58966347D01*
X152707808Y-58966347D01*
X152813365Y-58945350D01*
X152824923Y-58940563D01*
X152826906Y-58940824D01*
G37*
G36*
X154096906Y-58940824D02*
G01*
X154097671Y-58942672D01*
X154096631Y-58944175D01*
X154080609Y-58952738D01*
X154061972Y-58968033D01*
X154046677Y-58986670D01*
X154035312Y-59007934D01*
X154028312Y-59031009D01*
X154025949Y-59055000D01*
X154028312Y-59078991D01*
X154035312Y-59102066D01*
X154046677Y-59123330D01*
X154061972Y-59141967D01*
X154080609Y-59157262D01*
X154096631Y-59165825D01*
X154097687Y-59167524D01*
X154096744Y-59169287D01*
X154094923Y-59169437D01*
X154083365Y-59164650D01*
X153977808Y-59143653D01*
X153870192Y-59143653D01*
X153764635Y-59164650D01*
X153753077Y-59169437D01*
X153751094Y-59169176D01*
X153750329Y-59167328D01*
X153751369Y-59165825D01*
X153767391Y-59157262D01*
X153786028Y-59141967D01*
X153801323Y-59123330D01*
X153812688Y-59102066D01*
X153819688Y-59078991D01*
X153822051Y-59055000D01*
X153819688Y-59031009D01*
X153812688Y-59007934D01*
X153801323Y-58986670D01*
X153786028Y-58968033D01*
X153767391Y-58952738D01*
X153751369Y-58944175D01*
X153750313Y-58942476D01*
X153751256Y-58940713D01*
X153753077Y-58940563D01*
X153764635Y-58945350D01*
X153870192Y-58966347D01*
X153977808Y-58966347D01*
X154083365Y-58945350D01*
X154094923Y-58940563D01*
X154096906Y-58940824D01*
G37*
G36*
X153403287Y-58247256D02*
G01*
X153403437Y-58249077D01*
X153398650Y-58260635D01*
X153377653Y-58366192D01*
X153377653Y-58473808D01*
X153398650Y-58579365D01*
X153403437Y-58590923D01*
X153403176Y-58592906D01*
X153401328Y-58593671D01*
X153399825Y-58592631D01*
X153391262Y-58576609D01*
X153375967Y-58557972D01*
X153357330Y-58542677D01*
X153336066Y-58531312D01*
X153312991Y-58524312D01*
X153289000Y-58521949D01*
X153265009Y-58524312D01*
X153241934Y-58531312D01*
X153220670Y-58542677D01*
X153202033Y-58557972D01*
X153186738Y-58576609D01*
X153178175Y-58592631D01*
X153176476Y-58593687D01*
X153174713Y-58592744D01*
X153174563Y-58590923D01*
X153179350Y-58579365D01*
X153200347Y-58473808D01*
X153200347Y-58366192D01*
X153179350Y-58260635D01*
X153174563Y-58249077D01*
X153174824Y-58247094D01*
X153176672Y-58246329D01*
X153178175Y-58247369D01*
X153186738Y-58263391D01*
X153202033Y-58282028D01*
X153220670Y-58297323D01*
X153241934Y-58308688D01*
X153265009Y-58315688D01*
X153289000Y-58318051D01*
X153312991Y-58315688D01*
X153336066Y-58308688D01*
X153357330Y-58297323D01*
X153375967Y-58282028D01*
X153391262Y-58263391D01*
X153399825Y-58247369D01*
X153401524Y-58246313D01*
X153403287Y-58247256D01*
G37*
G36*
X173132732Y-58160000D02*
G01*
X173133000Y-58161000D01*
X173133000Y-58359000D01*
X173132000Y-58360732D01*
X173131000Y-58361000D01*
X171969000Y-58361000D01*
X171967268Y-58360000D01*
X171967000Y-58359000D01*
X171967000Y-58161000D01*
X171968000Y-58159268D01*
X171969000Y-58159000D01*
X173131000Y-58159000D01*
X173132732Y-58160000D01*
G37*
G36*
X170932732Y-58160000D02*
G01*
X170933000Y-58161000D01*
X170933000Y-58359000D01*
X170932000Y-58360732D01*
X170931000Y-58361000D01*
X169769000Y-58361000D01*
X169767268Y-58360000D01*
X169767000Y-58359000D01*
X169767000Y-58161000D01*
X169768000Y-58159268D01*
X169769000Y-58159000D01*
X170931000Y-58159000D01*
X170932732Y-58160000D01*
G37*
G36*
X154096906Y-57670824D02*
G01*
X154097671Y-57672672D01*
X154096631Y-57674175D01*
X154080609Y-57682738D01*
X154061972Y-57698033D01*
X154046677Y-57716670D01*
X154035312Y-57737934D01*
X154028312Y-57761009D01*
X154025949Y-57785000D01*
X154028312Y-57808991D01*
X154035312Y-57832066D01*
X154046677Y-57853330D01*
X154061972Y-57871967D01*
X154080609Y-57887262D01*
X154096631Y-57895825D01*
X154097687Y-57897524D01*
X154096744Y-57899287D01*
X154094923Y-57899437D01*
X154083365Y-57894650D01*
X153977808Y-57873653D01*
X153870192Y-57873653D01*
X153764635Y-57894650D01*
X153753077Y-57899437D01*
X153751094Y-57899176D01*
X153750329Y-57897328D01*
X153751369Y-57895825D01*
X153767391Y-57887262D01*
X153786028Y-57871967D01*
X153801323Y-57853330D01*
X153812688Y-57832066D01*
X153819688Y-57808991D01*
X153822051Y-57785000D01*
X153819688Y-57761009D01*
X153812688Y-57737934D01*
X153801323Y-57716670D01*
X153786028Y-57698033D01*
X153767391Y-57682738D01*
X153751369Y-57674175D01*
X153750313Y-57672476D01*
X153751256Y-57670713D01*
X153753077Y-57670563D01*
X153764635Y-57675350D01*
X153870192Y-57696347D01*
X153977808Y-57696347D01*
X154083365Y-57675350D01*
X154094923Y-57670563D01*
X154096906Y-57670824D01*
G37*
G36*
X152826906Y-57670824D02*
G01*
X152827671Y-57672672D01*
X152826631Y-57674175D01*
X152810609Y-57682738D01*
X152791972Y-57698033D01*
X152776677Y-57716670D01*
X152765312Y-57737934D01*
X152758312Y-57761009D01*
X152755949Y-57785000D01*
X152758312Y-57808991D01*
X152765312Y-57832066D01*
X152776677Y-57853330D01*
X152791972Y-57871967D01*
X152810609Y-57887262D01*
X152826631Y-57895825D01*
X152827687Y-57897524D01*
X152826744Y-57899287D01*
X152824923Y-57899437D01*
X152813365Y-57894650D01*
X152707808Y-57873653D01*
X152600192Y-57873653D01*
X152494635Y-57894650D01*
X152483077Y-57899437D01*
X152481094Y-57899176D01*
X152480329Y-57897328D01*
X152481369Y-57895825D01*
X152497391Y-57887262D01*
X152516028Y-57871967D01*
X152531323Y-57853330D01*
X152542688Y-57832066D01*
X152549688Y-57808991D01*
X152552051Y-57785000D01*
X152549688Y-57761009D01*
X152542688Y-57737934D01*
X152531323Y-57716670D01*
X152516028Y-57698033D01*
X152497391Y-57682738D01*
X152481369Y-57674175D01*
X152480313Y-57672476D01*
X152481256Y-57670713D01*
X152483077Y-57670563D01*
X152494635Y-57675350D01*
X152600192Y-57696347D01*
X152707808Y-57696347D01*
X152813365Y-57675350D01*
X152824923Y-57670563D01*
X152826906Y-57670824D01*
G37*
G36*
X173132732Y-57210000D02*
G01*
X173133000Y-57211000D01*
X173133000Y-57409000D01*
X173132000Y-57410732D01*
X173131000Y-57411000D01*
X171969000Y-57411000D01*
X171967268Y-57410000D01*
X171967000Y-57409000D01*
X171967000Y-57211000D01*
X171968000Y-57209268D01*
X171969000Y-57209000D01*
X173131000Y-57209000D01*
X173132732Y-57210000D01*
G37*
G36*
X170932732Y-57210000D02*
G01*
X170933000Y-57211000D01*
X170933000Y-57409000D01*
X170932000Y-57410732D01*
X170931000Y-57411000D01*
X169769000Y-57411000D01*
X169767268Y-57410000D01*
X169767000Y-57409000D01*
X169767000Y-57211000D01*
X169768000Y-57209268D01*
X169769000Y-57209000D01*
X170931000Y-57209000D01*
X170932732Y-57210000D01*
G37*
G36*
X153403287Y-56977256D02*
G01*
X153403437Y-56979077D01*
X153398650Y-56990635D01*
X153377653Y-57096192D01*
X153377653Y-57203808D01*
X153398650Y-57309365D01*
X153403437Y-57320923D01*
X153403176Y-57322906D01*
X153401328Y-57323671D01*
X153399825Y-57322631D01*
X153391262Y-57306609D01*
X153375967Y-57287972D01*
X153357330Y-57272677D01*
X153336066Y-57261312D01*
X153312991Y-57254312D01*
X153289000Y-57251949D01*
X153265009Y-57254312D01*
X153241934Y-57261312D01*
X153220670Y-57272677D01*
X153202033Y-57287972D01*
X153186738Y-57306609D01*
X153178175Y-57322631D01*
X153176476Y-57323687D01*
X153174713Y-57322744D01*
X153174563Y-57320923D01*
X153179350Y-57309365D01*
X153200347Y-57203808D01*
X153200347Y-57096192D01*
X153179350Y-56990635D01*
X153174563Y-56979077D01*
X153174824Y-56977094D01*
X153176672Y-56976329D01*
X153178175Y-56977369D01*
X153186738Y-56993391D01*
X153202033Y-57012028D01*
X153220670Y-57027323D01*
X153241934Y-57038688D01*
X153265009Y-57045688D01*
X153289000Y-57048051D01*
X153312991Y-57045688D01*
X153336066Y-57038688D01*
X153357330Y-57027323D01*
X153375967Y-57012028D01*
X153391262Y-56993391D01*
X153399825Y-56977369D01*
X153401524Y-56976313D01*
X153403287Y-56977256D01*
G37*
M02*
